Lora-BoldItalic.ufo
<glyph name="quotedbl" format="2">
  <advance width="324"/>
  <unicode hex="0022"/>
  <outline>
    <contour>
      <point x="307" y="716" type="line"/>
      <point x="212" y="716" type="line"/>
      <point x="208" y="491" type="line"/>
      <point x="287" y="491" type="line"/>
    </contour>
    <contour>
      <point x="164" y="716" type="line"/>
      <point x="69" y="716" type="line"/>
      <point x="65" y="491" type="line"/>
      <point x="144" y="491" type="line"/>
    </contour>
  </outline>
</glyph>
<glyph name="percent" format="2">
  <advance width="885"/>
  <unicode hex="0025"/>
  <outline>
    <contour>
      <point x="167" y="-17" type="line"/>
      <point x="780" y="650" type="line"/>
      <point x="710" y="716" type="line"/>
      <point x="105" y="44" type="line"/>
    </contour>
    <contour>
      <point x="223" y="325" type="curve" smooth="yes"/>
      <point x="328" y="325"/>
      <point x="413" y="420"/>
      <point x="418" y="526" type="curve" smooth="yes"/>
      <point x="423" y="618"/>
      <point x="363" y="718"/>
      <point x="241" y="716" type="curve" smooth="yes"/>
      <point x="121" y="713"/>
      <point x="49" y="611"/>
      <point x="44" y="517" type="curve" smooth="yes"/>
      <point x="40" y="418"/>
      <point x="100" y="325"/>
    </contour>
    <contour>
      <point x="227" y="393" type="curve" smooth="yes"/>
      <point x="177" y="393"/>
      <point x="164" y="468"/>
      <point x="164" y="518" type="curve" smooth="yes"/>
      <point x="164" y="555"/>
      <point x="175" y="648"/>
      <point x="237" y="648" type="curve" smooth="yes"/>
      <point x="284" y="648"/>
      <point x="298" y="584"/>
      <point x="298" y="525" type="curve" smooth="yes"/>
      <point x="298" y="479"/>
      <point x="282" y="393"/>
    </contour>
    <contour>
      <point x="651" y="-16" type="curve" smooth="yes"/>
      <point x="761" y="-16"/>
      <point x="842" y="80"/>
      <point x="848" y="185" type="curve" smooth="yes"/>
      <point x="853" y="277"/>
      <point x="792" y="378"/>
      <point x="669" y="375" type="curve" smooth="yes"/>
      <point x="550" y="373"/>
      <point x="479" y="270"/>
      <point x="474" y="176" type="curve" smooth="yes"/>
      <point x="468" y="77"/>
      <point x="528" y="-16"/>
    </contour>
    <contour>
      <point x="656" y="52" type="curve" smooth="yes"/>
      <point x="606" y="52"/>
      <point x="593" y="127"/>
      <point x="593" y="177" type="curve" smooth="yes"/>
      <point x="593" y="214"/>
      <point x="604" y="307"/>
      <point x="667" y="307" type="curve" smooth="yes"/>
      <point x="713" y="307"/>
      <point x="728" y="244"/>
      <point x="728" y="185" type="curve" smooth="yes"/>
      <point x="728" y="138"/>
      <point x="711" y="52"/>
    </contour>
  </outline>
</glyph>
<glyph name="quotesingle" format="2">
  <advance width="188"/>
  <unicode hex="0027"/>
  <outline>
    <contour>
      <point x="171" y="716" type="line"/>
      <point x="69" y="716" type="line"/>
      <point x="66" y="491" type="line"/>
      <point x="150" y="491" type="line"/>
    </contour>
  </outline>
</glyph>
<glyph name="plus" format="2">
  <advance width="530"/>
  <unicode hex="002B"/>
  <outline>
    <contour>
      <point x="50" y="399" type="line"/>
      <point x="46" y="321" type="line"/>
      <point x="492" y="321" type="line"/>
      <point x="496" y="399" type="line"/>
    </contour>
    <contour>
      <point x="322" y="583" type="line"/>
      <point x="244" y="583" type="line"/>
      <point x="220" y="137" type="line"/>
      <point x="298" y="137" type="line"/>
    </contour>
  </outline>
</glyph>
<glyph name="comma" format="2">
  <advance width="249"/>
  <unicode hex="002C"/>
  <outline>
    <contour>
      <point x="103" y="137" type="curve" smooth="yes"/>
      <point x="60" y="137"/>
      <point x="29" y="102"/>
      <point x="27" y="62" type="curve" smooth="yes"/>
      <point x="25" y="16"/>
      <point x="57" y="-4"/>
      <point x="93" y="-4" type="curve" smooth="yes"/>
      <point x="100" y="-4"/>
      <point x="104" y="-4"/>
      <point x="114" y="-1" type="curve"/>
      <point x="113" y="-59"/>
      <point x="71" y="-132"/>
      <point x="49" y="-159" type="curve"/>
      <point x="86" y="-187" type="line"/>
      <point x="152" y="-110"/>
      <point x="186" y="-32"/>
      <point x="189" y="32" type="curve" smooth="yes"/>
      <point x="192" y="92"/>
      <point x="165" y="138"/>
    </contour>
  </outline>
</glyph>
<glyph name="hyphen" format="2">
  <advance width="473"/>
  <unicode hex="002D"/>
  <outline>
    <contour>
      <point x="424" y="366" type="line"/>
      <point x="56" y="366" type="line"/>
      <point x="50" y="261" type="line"/>
      <point x="418" y="265" type="line"/>
    </contour>
  </outline>
</glyph>
<glyph name="one" format="2">
  <advance width="397"/>
  <unicode hex="0031"/>
  <outline>
    <contour>
      <point x="313" y="716" type="line"/>
      <point x="252" y="716" type="line"/>
      <point x="17" y="549" type="line"/>
      <point x="49" y="489" type="line"/>
      <point x="162" y="554" type="line"/>
      <point x="141" y="153" type="line" smooth="yes"/>
      <point x="137" y="72"/>
      <point x="110" y="68"/>
      <point x="65" y="66" type="curve"/>
      <point x="62" y="0" type="line"/>
      <point x="346" y="0" type="line"/>
      <point x="350" y="77" type="line"/>
      <point x="336" y="77"/>
      <point x="296" y="76"/>
      <point x="275" y="74" type="curve"/>
      <point x="278" y="91"/>
      <point x="282" y="128"/>
      <point x="284" y="164" type="curve" smooth="yes"/>
    </contour>
  </outline>
</glyph>
<glyph name="three" format="2">
  <advance width="546"/>
  <unicode hex="0033"/>
  <outline>
    <contour>
      <point x="229" y="-16" type="curve" smooth="yes"/>
      <point x="386" y="-16"/>
      <point x="499" y="59"/>
      <point x="506" y="196" type="curve" smooth="yes"/>
      <point x="510" y="281"/>
      <point x="458" y="358"/>
      <point x="332" y="382" type="curve"/>
      <point x="443" y="406"/>
      <point x="485" y="486"/>
      <point x="488" y="539" type="curve" smooth="yes"/>
      <point x="495" y="669"/>
      <point x="401" y="716"/>
      <point x="277" y="716" type="curve" smooth="yes"/>
      <point x="136" y="716"/>
      <point x="62" y="623"/>
      <point x="59" y="563" type="curve" smooth="yes"/>
      <point x="57" y="524"/>
      <point x="78" y="492"/>
      <point x="119" y="491" type="curve" smooth="yes"/>
      <point x="168" y="489"/>
      <point x="188" y="531"/>
      <point x="189" y="555" type="curve" smooth="yes"/>
      <point x="190" y="567"/>
      <point x="188" y="589"/>
      <point x="176" y="604" type="curve"/>
      <point x="188" y="625"/>
      <point x="221" y="646"/>
      <point x="257" y="646" type="curve" smooth="yes"/>
      <point x="326" y="646"/>
      <point x="349" y="597"/>
      <point x="344" y="528" type="curve" smooth="yes"/>
      <point x="339" y="454"/>
      <point x="286" y="403"/>
      <point x="198" y="403" type="curve" smooth="yes"/>
      <point x="187" y="403"/>
      <point x="179" y="403"/>
      <point x="168" y="404" type="curve"/>
      <point x="165" y="332" type="line"/>
      <point x="177" y="333"/>
      <point x="208" y="335"/>
      <point x="217" y="335" type="curve" smooth="yes"/>
      <point x="332" y="337"/>
      <point x="361" y="257"/>
      <point x="357" y="189" type="curve" smooth="yes"/>
      <point x="353" y="114"/>
      <point x="307" y="57"/>
      <point x="224" y="57" type="curve" smooth="yes"/>
      <point x="187" y="57"/>
      <point x="148" y="72"/>
      <point x="136" y="97" type="curve"/>
      <point x="147" y="111"/>
      <point x="153" y="130"/>
      <point x="154" y="143" type="curve" smooth="yes"/>
      <point x="155" y="169"/>
      <point x="142" y="208"/>
      <point x="92" y="207" type="curve" smooth="yes"/>
      <point x="51" y="206"/>
      <point x="22" y="171"/>
      <point x="21" y="131" type="curve" smooth="yes"/>
      <point x="17" y="62"/>
      <point x="79" y="-16"/>
    </contour>
  </outline>
</glyph>
<glyph name="five" format="2">
  <advance width="529"/>
  <unicode hex="0035"/>
  <outline>
    <contour>
      <point x="484" y="765" type="line"/>
      <point x="421" y="765" type="line"/>
      <point x="418" y="709"/>
      <point x="387" y="700"/>
      <point x="342" y="700" type="curve" smooth="yes"/>
      <point x="93" y="700" type="line"/>
      <point x="69" y="366" type="line"/>
      <point x="110" y="333" type="line"/>
      <point x="158" y="361"/>
      <point x="204" y="370"/>
      <point x="232" y="370" type="curve" smooth="yes"/>
      <point x="345" y="370"/>
      <point x="349" y="257"/>
      <point x="345" y="197" type="curve" smooth="yes"/>
      <point x="342" y="128"/>
      <point x="305" y="55"/>
      <point x="225" y="55" type="curve" smooth="yes"/>
      <point x="197" y="55"/>
      <point x="157" y="69"/>
      <point x="149" y="92" type="curve"/>
      <point x="158" y="105"/>
      <point x="162" y="122"/>
      <point x="163" y="133" type="curve" smooth="yes"/>
      <point x="164" y="160"/>
      <point x="150" y="199"/>
      <point x="100" y="197" type="curve" smooth="yes"/>
      <point x="59" y="196"/>
      <point x="31" y="160"/>
      <point x="29" y="121" type="curve" smooth="yes"/>
      <point x="26" y="57"/>
      <point x="98" y="-16"/>
      <point x="229" y="-16" type="curve" smooth="yes"/>
      <point x="359" y="-16"/>
      <point x="490" y="63"/>
      <point x="499" y="218" type="curve" smooth="yes"/>
      <point x="504" y="337"/>
      <point x="433" y="443"/>
      <point x="268" y="443" type="curve" smooth="yes"/>
      <point x="228" y="443"/>
      <point x="176" y="432"/>
      <point x="145" y="419" type="curve"/>
      <point x="164" y="597" type="line"/>
      <point x="468" y="603" type="line"/>
    </contour>
  </outline>
</glyph>
<glyph name="six" format="2">
  <advance width="560"/>
  <unicode hex="0036"/>
  <outline>
    <contour>
      <point x="333" y="716" type="curve" smooth="yes"/>
      <point x="107" y="716"/>
      <point x="47" y="438"/>
      <point x="42" y="322" type="curve" smooth="yes"/>
      <point x="30" y="115"/>
      <point x="83" y="-16"/>
      <point x="262" y="-16" type="curve" smooth="yes"/>
      <point x="404" y="-16"/>
      <point x="510" y="89"/>
      <point x="517" y="215" type="curve" smooth="yes"/>
      <point x="524" y="352"/>
      <point x="466" y="450"/>
      <point x="319" y="446" type="curve" smooth="yes"/>
      <point x="269" y="444"/>
      <point x="210" y="415"/>
      <point x="188" y="390" type="curve"/>
      <point x="196" y="498"/>
      <point x="232" y="640"/>
      <point x="329" y="646" type="curve" smooth="yes"/>
      <point x="362" y="648"/>
      <point x="386" y="634"/>
      <point x="396" y="618" type="curve"/>
      <point x="384" y="605"/>
      <point x="380" y="585"/>
      <point x="379" y="574" type="curve" smooth="yes"/>
      <point x="378" y="547"/>
      <point x="392" y="511"/>
      <point x="442" y="511" type="curve" smooth="yes"/>
      <point x="483" y="511"/>
      <point x="507" y="546"/>
      <point x="509" y="582" type="curve" smooth="yes"/>
      <point x="512" y="643"/>
      <point x="459" y="716"/>
    </contour>
    <contour>
      <point x="286" y="366" type="curve" smooth="yes"/>
      <point x="369" y="366"/>
      <point x="370" y="250"/>
      <point x="367" y="190" type="curve" smooth="yes"/>
      <point x="363" y="121"/>
      <point x="341" y="54"/>
      <point x="271" y="54" type="curve" smooth="yes"/>
      <point x="193" y="54"/>
      <point x="178" y="207"/>
      <point x="183" y="300" type="curve"/>
      <point x="203" y="336"/>
      <point x="244" y="366"/>
    </contour>
  </outline>
</glyph>
<glyph name="seven" format="2">
  <advance width="460"/>
  <unicode hex="0037"/>
  <outline>
    <contour>
      <point x="183" y="-16" type="curve" smooth="yes"/>
      <point x="227" y="-16"/>
      <point x="247" y="23"/>
      <point x="258" y="60" type="curve" smooth="yes"/>
      <point x="322" y="272"/>
      <point x="363" y="425"/>
      <point x="462" y="609" type="curve"/>
      <point x="467" y="700" type="line"/>
      <point x="42" y="700" type="line"/>
      <point x="25" y="530" type="line"/>
      <point x="88" y="530" type="line"/>
      <point x="91" y="586"/>
      <point x="122" y="602"/>
      <point x="167" y="601" type="curve" smooth="yes"/>
      <point x="378" y="599" type="line"/>
      <point x="295" y="427"/>
      <point x="239" y="311"/>
      <point x="201" y="232" type="curve" smooth="yes"/>
      <point x="136" y="95"/>
      <point x="127" y="67"/>
      <point x="127" y="39" type="curve" smooth="yes"/>
      <point x="127" y="11"/>
      <point x="142" y="-16"/>
    </contour>
  </outline>
</glyph>
<glyph name="A" format="2">
  <advance width="667"/>
  <unicode hex="0041"/>
  <anchor x="300" y="0" name="bottom"/>
  <anchor x="600" y="0" name="ogonek"/>
  <anchor x="346" y="700" name="top"/>
  <outline>
    <contour>
      <point x="384" y="718" type="line"/>
      <point x="317" y="718" type="line"/>
      <point x="94" y="183" type="line" smooth="yes"/>
      <point x="68" y="123"/>
      <point x="47" y="69"/>
      <point x="-8" y="69" type="curve"/>
      <point x="-12" y="0" type="line"/>
      <point x="202" y="0" type="line"/>
      <point x="207" y="80" type="line"/>
      <point x="133" y="77" type="line"/>
      <point x="146" y="100"/>
      <point x="162" y="140"/>
      <point x="169" y="158" type="curve"/>
      <point x="188" y="205" type="line"/>
      <point x="407" y="209" type="line"/>
      <point x="424" y="154" type="line" smooth="yes"/>
      <point x="440" y="104"/>
      <point x="438" y="66"/>
      <point x="382" y="66" type="curve"/>
      <point x="378" y="0" type="line"/>
      <point x="646" y="0" type="line"/>
      <point x="649" y="77" type="line"/>
      <point x="592" y="74" type="line"/>
      <point x="590" y="104"/>
      <point x="575" y="153"/>
      <point x="569" y="173" type="curve" smooth="yes"/>
    </contour>
    <contour>
      <point x="315" y="542" type="curve"/>
      <point x="319" y="505"/>
      <point x="332" y="453"/>
      <point x="346" y="405" type="curve" smooth="yes"/>
      <point x="385" y="280" type="line"/>
      <point x="217" y="280" type="line"/>
      <point x="268" y="410" type="line"/>
      <point x="293" y="472"/>
      <point x="309" y="519"/>
    </contour>
  </outline>
</glyph>
<glyph name="B" format="2">
  <advance width="659"/>
  <unicode hex="0042"/>
  <outline>
    <contour>
      <point x="347" y="702" type="curve" smooth="yes"/>
      <point x="255" y="701"/>
      <point x="164" y="701"/>
      <point x="72" y="700" type="curve"/>
      <point x="68" y="623" type="line"/>
      <point x="82" y="624"/>
      <point x="122" y="625"/>
      <point x="143" y="626" type="curve"/>
      <point x="140" y="609"/>
      <point x="136" y="572"/>
      <point x="134" y="536" type="curve" smooth="yes"/>
      <point x="114" y="153" type="line" smooth="yes"/>
      <point x="110" y="72"/>
      <point x="83" y="68"/>
      <point x="39" y="66" type="curve"/>
      <point x="35" y="0" type="line"/>
      <point x="373" y="0" type="line" smooth="yes"/>
      <point x="513" y="0"/>
      <point x="617" y="69"/>
      <point x="624" y="199" type="curve" smooth="yes"/>
      <point x="628" y="282"/>
      <point x="573" y="357"/>
      <point x="442" y="378" type="curve"/>
      <point x="442" y="379" type="line"/>
      <point x="537" y="404"/>
      <point x="583" y="462"/>
      <point x="590" y="520" type="curve" smooth="yes"/>
      <point x="604" y="642"/>
      <point x="506" y="703"/>
    </contour>
    <contour>
      <point x="346" y="323" type="curve" smooth="yes"/>
      <point x="411" y="323"/>
      <point x="474" y="294"/>
      <point x="469" y="202" type="curve" smooth="yes"/>
      <point x="465" y="128"/>
      <point x="427" y="76"/>
      <point x="346" y="72" type="curve" smooth="yes"/>
      <point x="314" y="71"/>
      <point x="283" y="71"/>
      <point x="248" y="71" type="curve"/>
      <point x="251" y="88"/>
      <point x="255" y="123"/>
      <point x="257" y="159" type="curve" smooth="yes"/>
      <point x="265" y="322" type="line"/>
      <point x="291" y="323"/>
      <point x="313" y="323"/>
    </contour>
    <contour>
      <point x="340" y="632" type="curve" smooth="yes"/>
      <point x="391" y="633"/>
      <point x="445" y="607"/>
      <point x="440" y="528" type="curve" smooth="yes"/>
      <point x="437" y="455"/>
      <point x="406" y="396"/>
      <point x="321" y="394" type="curve"/>
      <point x="304" y="394"/>
      <point x="286" y="393"/>
      <point x="269" y="393" type="curve"/>
      <point x="277" y="548" type="line" smooth="yes"/>
      <point x="281" y="625"/>
      <point x="307" y="631"/>
    </contour>
  </outline>
</glyph>
<glyph name="C" format="2">
  <advance width="690"/>
  <unicode hex="0043"/>
  <anchor x="394" y="0" name="bottom"/>
  <anchor x="423" y="700" name="top"/>
  <outline>
    <contour>
      <point x="408" y="716" type="curve" smooth="yes"/>
      <point x="175" y="716"/>
      <point x="48" y="522"/>
      <point x="38" y="340" type="curve" smooth="yes"/>
      <point x="28" y="141"/>
      <point x="156" y="-16"/>
      <point x="362" y="-16" type="curve" smooth="yes"/>
      <point x="445" y="-16"/>
      <point x="567" y="9"/>
      <point x="671" y="144" type="curve"/>
      <point x="632" y="184" type="line"/>
      <point x="564" y="96"/>
      <point x="471" y="59"/>
      <point x="391" y="60" type="curve" smooth="yes"/>
      <point x="256" y="61"/>
      <point x="185" y="188"/>
      <point x="194" y="360" type="curve" smooth="yes"/>
      <point x="202" y="504"/>
      <point x="277" y="649"/>
      <point x="417" y="648" type="curve" smooth="yes"/>
      <point x="510" y="648"/>
      <point x="564" y="587"/>
      <point x="576" y="476" type="curve"/>
      <point x="642" y="476" type="line"/>
      <point x="654" y="709" type="line"/>
      <point x="577" y="709" type="line"/>
      <point x="578" y="667" type="line"/>
      <point x="577" y="667" type="line"/>
      <point x="525" y="699"/>
      <point x="460" y="716"/>
    </contour>
  </outline>
</glyph>
<glyph name="D" format="2">
  <advance width="755"/>
  <unicode hex="0044"/>
  <anchor x="377" y="350" name="center"/>
  <anchor x="397" y="700" name="top"/>
  <outline>
    <contour>
      <point x="361" y="701" type="curve" smooth="yes"/>
      <point x="72" y="700" type="line"/>
      <point x="68" y="623" type="line"/>
      <point x="82" y="624"/>
      <point x="122" y="625"/>
      <point x="143" y="626" type="curve"/>
      <point x="140" y="609"/>
      <point x="136" y="572"/>
      <point x="134" y="536" type="curve" smooth="yes"/>
      <point x="114" y="153" type="line" smooth="yes"/>
      <point x="110" y="72"/>
      <point x="83" y="68"/>
      <point x="39" y="66" type="curve"/>
      <point x="35" y="0" type="line"/>
      <point x="319" y="0" type="line" smooth="yes"/>
      <point x="599" y="0"/>
      <point x="714" y="194"/>
      <point x="723" y="357" type="curve" smooth="yes"/>
      <point x="731" y="523"/>
      <point x="625" y="702"/>
    </contour>
    <contour>
      <point x="355" y="634" type="curve" smooth="yes"/>
      <point x="494" y="630"/>
      <point x="577" y="540"/>
      <point x="566" y="336" type="curve" smooth="yes"/>
      <point x="560" y="203"/>
      <point x="490" y="73"/>
      <point x="344" y="73" type="curve" smooth="yes"/>
      <point x="320" y="73"/>
      <point x="268" y="76"/>
      <point x="249" y="74" type="curve"/>
      <point x="252" y="91"/>
      <point x="255" y="128"/>
      <point x="257" y="164" type="curve" smooth="yes"/>
      <point x="277" y="549" type="line" smooth="yes"/>
      <point x="281" y="626"/>
      <point x="306" y="636"/>
    </contour>
  </outline>
</glyph>
<glyph name="E" format="2">
  <advance width="623"/>
  <unicode hex="0045"/>
  <anchor x="343" y="0" name="bottom"/>
  <anchor x="561" y="5" name="ogonek"/>
  <anchor x="343" y="700" name="top"/>
  <anchor x="33" y="700" name="topleft"/>
  <outline>
    <contour>
      <point x="570" y="700" type="line"/>
      <point x="72" y="700" type="line"/>
      <point x="68" y="623" type="line"/>
      <point x="82" y="624"/>
      <point x="122" y="625"/>
      <point x="143" y="626" type="curve"/>
      <point x="140" y="609"/>
      <point x="136" y="572"/>
      <point x="134" y="536" type="curve" smooth="yes"/>
      <point x="114" y="153" type="line" smooth="yes"/>
      <point x="110" y="72"/>
      <point x="83" y="68"/>
      <point x="39" y="66" type="curve"/>
      <point x="35" y="0" type="line"/>
      <point x="561" y="0" type="line"/>
      <point x="578" y="220" type="line"/>
      <point x="512" y="220" type="line"/>
      <point x="506" y="112"/>
      <point x="442" y="76"/>
      <point x="383" y="76" type="curve" smooth="yes"/>
      <point x="249" y="76" type="line"/>
      <point x="252" y="93"/>
      <point x="255" y="128"/>
      <point x="257" y="164" type="curve" smooth="yes"/>
      <point x="266" y="328" type="line"/>
      <point x="292" y="329" type="line" smooth="yes"/>
      <point x="346" y="330"/>
      <point x="390" y="325"/>
      <point x="386" y="241" type="curve"/>
      <point x="452" y="241" type="line"/>
      <point x="464" y="484" type="line"/>
      <point x="387" y="484" type="line"/>
      <point x="387" y="459"/>
      <point x="387" y="425"/>
      <point x="387" y="397" type="curve"/>
      <point x="270" y="397" type="line"/>
      <point x="277" y="547" type="line" smooth="yes"/>
      <point x="281" y="625"/>
      <point x="307" y="633"/>
      <point x="349" y="634" type="curve" smooth="yes"/>
      <point x="385" y="635" type="line" smooth="yes"/>
      <point x="439" y="637"/>
      <point x="505" y="615"/>
      <point x="500" y="506" type="curve"/>
      <point x="565" y="506" type="line"/>
    </contour>
  </outline>
</glyph>
<glyph name="F" format="2">
  <advance width="566"/>
  <unicode hex="0046"/>
  <outline>
    <contour>
      <point x="570" y="700" type="line"/>
      <point x="72" y="700" type="line"/>
      <point x="68" y="623" type="line"/>
      <point x="82" y="624"/>
      <point x="122" y="625"/>
      <point x="143" y="626" type="curve"/>
      <point x="140" y="609"/>
      <point x="136" y="572"/>
      <point x="134" y="536" type="curve" smooth="yes"/>
      <point x="114" y="153" type="line" smooth="yes"/>
      <point x="110" y="72"/>
      <point x="83" y="68"/>
      <point x="39" y="66" type="curve"/>
      <point x="35" y="0" type="line"/>
      <point x="333" y="0" type="line"/>
      <point x="337" y="77" type="line"/>
      <point x="323" y="77"/>
      <point x="270" y="76"/>
      <point x="249" y="74" type="curve"/>
      <point x="252" y="91"/>
      <point x="255" y="128"/>
      <point x="257" y="164" type="curve" smooth="yes"/>
      <point x="265" y="304" type="line"/>
      <point x="269" y="304"/>
      <point x="273" y="304"/>
      <point x="277" y="304" type="curve" smooth="yes"/>
      <point x="331" y="306"/>
      <point x="375" y="300"/>
      <point x="370" y="216" type="curve"/>
      <point x="436" y="216" type="line"/>
      <point x="449" y="459" type="line"/>
      <point x="372" y="459" type="line"/>
      <point x="372" y="435"/>
      <point x="371" y="400"/>
      <point x="372" y="373" type="curve"/>
      <point x="268" y="373" type="line"/>
      <point x="277" y="547" type="line" smooth="yes"/>
      <point x="281" y="625"/>
      <point x="307" y="633"/>
      <point x="349" y="634" type="curve" smooth="yes"/>
      <point x="385" y="635" type="line" smooth="yes"/>
      <point x="439" y="637"/>
      <point x="505" y="615"/>
      <point x="500" y="506" type="curve"/>
      <point x="565" y="506" type="line"/>
    </contour>
  </outline>
</glyph>
<glyph name="G" format="2">
  <advance width="756"/>
  <unicode hex="0047"/>
  <anchor x="368" y="0" name="bottom"/>
  <anchor x="427" y="700" name="top"/>
  <outline>
    <contour>
      <point x="361" y="-16" type="curve" smooth="yes"/>
      <point x="427" y="-16"/>
      <point x="479" y="-1"/>
      <point x="525" y="12" type="curve" smooth="yes"/>
      <point x="563" y="24"/>
      <point x="598" y="34"/>
      <point x="633" y="34" type="curve" smooth="yes"/>
      <point x="658" y="34" type="line"/>
      <point x="666" y="194" type="line" smooth="yes"/>
      <point x="670" y="270"/>
      <point x="692" y="279"/>
      <point x="737" y="281" type="curve"/>
      <point x="740" y="347" type="line"/>
      <point x="477" y="347" type="line"/>
      <point x="473" y="270" type="line"/>
      <point x="487" y="271"/>
      <point x="527" y="271"/>
      <point x="548" y="273" type="curve"/>
      <point x="545" y="256"/>
      <point x="542" y="219"/>
      <point x="540" y="183" type="curve" smooth="yes"/>
      <point x="535" y="90" type="line"/>
      <point x="497" y="72"/>
      <point x="428" y="63"/>
      <point x="390" y="63" type="curve" smooth="yes"/>
      <point x="253" y="63"/>
      <point x="185" y="188"/>
      <point x="194" y="360" type="curve" smooth="yes"/>
      <point x="202" y="504"/>
      <point x="276" y="644"/>
      <point x="416" y="644" type="curve" smooth="yes"/>
      <point x="509" y="643"/>
      <point x="580" y="587"/>
      <point x="592" y="476" type="curve"/>
      <point x="658" y="476" type="line"/>
      <point x="670" y="709" type="line"/>
      <point x="593" y="709" type="line"/>
      <point x="593" y="667" type="line"/>
      <point x="542" y="699"/>
      <point x="458" y="716"/>
      <point x="406" y="716" type="curve" smooth="yes"/>
      <point x="173" y="716"/>
      <point x="48" y="522"/>
      <point x="39" y="340" type="curve" smooth="yes"/>
      <point x="28" y="141"/>
      <point x="144" y="-16"/>
    </contour>
  </outline>
</glyph>
<glyph name="H" format="2">
  <advance width="802"/>
  <unicode hex="0048"/>
  <anchor x="401" y="350" name="center"/>
  <anchor x="429" y="700" name="top"/>
  <outline>
    <contour>
      <point x="774" y="700" type="line"/>
      <point x="489" y="700" type="line"/>
      <point x="485" y="623" type="line"/>
      <point x="500" y="624"/>
      <point x="539" y="625"/>
      <point x="561" y="626" type="curve"/>
      <point x="557" y="609"/>
      <point x="554" y="572"/>
      <point x="552" y="536" type="curve" smooth="yes"/>
      <point x="544" y="391" type="line"/>
      <point x="269" y="391" type="line"/>
      <point x="277" y="547" type="line" smooth="yes"/>
      <point x="281" y="628"/>
      <point x="308" y="632"/>
      <point x="353" y="634" type="curve"/>
      <point x="356" y="700" type="line"/>
      <point x="72" y="700" type="line"/>
      <point x="68" y="623" type="line"/>
      <point x="82" y="624"/>
      <point x="122" y="625"/>
      <point x="143" y="626" type="curve"/>
      <point x="140" y="609"/>
      <point x="136" y="572"/>
      <point x="134" y="536" type="curve" smooth="yes"/>
      <point x="114" y="153" type="line" smooth="yes"/>
      <point x="110" y="72"/>
      <point x="83" y="68"/>
      <point x="39" y="66" type="curve"/>
      <point x="35" y="0" type="line"/>
      <point x="320" y="0" type="line"/>
      <point x="324" y="77" type="line"/>
      <point x="310" y="77"/>
      <point x="270" y="76"/>
      <point x="249" y="74" type="curve"/>
      <point x="252" y="91"/>
      <point x="255" y="128"/>
      <point x="257" y="164" type="curve" smooth="yes"/>
      <point x="265" y="312" type="line"/>
      <point x="541" y="315" type="line"/>
      <point x="532" y="153" type="line" smooth="yes"/>
      <point x="528" y="72"/>
      <point x="501" y="68"/>
      <point x="456" y="66" type="curve"/>
      <point x="453" y="0" type="line"/>
      <point x="737" y="0" type="line"/>
      <point x="741" y="77" type="line"/>
      <point x="727" y="77"/>
      <point x="688" y="76"/>
      <point x="666" y="74" type="curve"/>
      <point x="669" y="91"/>
      <point x="673" y="128"/>
      <point x="675" y="164" type="curve" smooth="yes"/>
      <point x="695" y="547" type="line" smooth="yes"/>
      <point x="699" y="628"/>
      <point x="726" y="632"/>
      <point x="771" y="634" type="curve"/>
    </contour>
  </outline>
</glyph>
<glyph name="M" format="2">
  <advance width="970"/>
  <unicode hex="004D"/>
  <outline>
    <contour>
      <point x="397" y="-10" type="line"/>
      <point x="487" y="-10" type="line"/>
      <point x="669" y="428" type="line"/>
      <point x="716" y="542" type="line"/>
      <point x="717" y="542" type="line"/>
      <point x="717" y="481"/>
      <point x="717" y="389"/>
      <point x="716" y="365" type="curve" smooth="yes"/>
      <point x="713" y="153" type="line" smooth="yes"/>
      <point x="712" y="72"/>
      <point x="683" y="68"/>
      <point x="638" y="66" type="curve"/>
      <point x="634" y="0" type="line"/>
      <point x="914" y="0" type="line"/>
      <point x="918" y="77" type="line"/>
      <point x="904" y="77"/>
      <point x="864" y="76"/>
      <point x="842" y="74" type="curve"/>
      <point x="846" y="91"/>
      <point x="851" y="128"/>
      <point x="851" y="164" type="curve" smooth="yes"/>
      <point x="856" y="547" type="line"/>
      <point x="857" y="628"/>
      <point x="887" y="632"/>
      <point x="932" y="634" type="curve"/>
      <point x="936" y="700" type="line"/>
      <point x="703" y="700" type="line"/>
      <point x="645" y="562"/>
      <point x="588" y="425"/>
      <point x="530" y="287" type="curve" smooth="yes"/>
      <point x="512" y="244"/>
      <point x="494" y="196"/>
      <point x="475" y="150" type="curve"/>
      <point x="474" y="150" type="line"/>
      <point x="460" y="198"/>
      <point x="448" y="250"/>
      <point x="426" y="312" type="curve" smooth="yes"/>
      <point x="289" y="700" type="line"/>
      <point x="75" y="700" type="line"/>
      <point x="70" y="623" type="line"/>
      <point x="84" y="624"/>
      <point x="125" y="625"/>
      <point x="146" y="626" type="curve"/>
      <point x="143" y="609"/>
      <point x="140" y="572"/>
      <point x="137" y="536" type="curve" smooth="yes"/>
      <point x="111" y="153" type="line"/>
      <point x="105" y="72"/>
      <point x="81" y="68"/>
      <point x="36" y="66" type="curve"/>
      <point x="32" y="0" type="line"/>
      <point x="260" y="0" type="line"/>
      <point x="264" y="77" type="line"/>
      <point x="250" y="77"/>
      <point x="210" y="76"/>
      <point x="188" y="74" type="curve"/>
      <point x="191" y="91"/>
      <point x="195" y="128"/>
      <point x="197" y="164" type="curve" smooth="yes"/>
      <point x="208" y="345" type="line" smooth="yes"/>
      <point x="212" y="405"/>
      <point x="213" y="467"/>
      <point x="215" y="535" type="curve"/>
      <point x="216" y="535" type="line"/>
      <point x="231" y="455"/>
      <point x="261" y="356"/>
      <point x="275" y="319" type="curve" smooth="yes"/>
    </contour>
  </outline>
</glyph>
<glyph name="N" format="2">
  <advance width="772"/>
  <unicode hex="004E"/>
  <anchor x="386" y="0" name="bottom"/>
  <anchor x="410" y="700" name="top"/>
  <outline>
    <contour>
      <point x="566" y="-10" type="line"/>
      <point x="651" y="-10" type="line"/>
      <point x="681" y="547" type="line" smooth="yes"/>
      <point x="685" y="628"/>
      <point x="711" y="632"/>
      <point x="757" y="634" type="curve"/>
      <point x="760" y="700" type="line"/>
      <point x="533" y="700" type="line"/>
      <point x="528" y="623" type="line"/>
      <point x="542" y="624"/>
      <point x="582" y="625"/>
      <point x="604" y="626" type="curve"/>
      <point x="601" y="609"/>
      <point x="597" y="572"/>
      <point x="595" y="536" type="curve" smooth="yes"/>
      <point x="579" y="217" type="line"/>
      <point x="578" y="217" type="line"/>
      <point x="563" y="240"/>
      <point x="544" y="270"/>
      <point x="513" y="313" type="curve" smooth="yes"/>
      <point x="228" y="700" type="line"/>
      <point x="71" y="700" type="line"/>
      <point x="66" y="623" type="line"/>
      <point x="81" y="624"/>
      <point x="120" y="625"/>
      <point x="142" y="626" type="curve"/>
      <point x="139" y="609"/>
      <point x="135" y="572"/>
      <point x="133" y="536" type="curve" smooth="yes"/>
      <point x="116" y="153" type="line"/>
      <point x="111" y="72"/>
      <point x="85" y="68"/>
      <point x="40" y="66" type="curve"/>
      <point x="36" y="0" type="line"/>
      <point x="264" y="0" type="line"/>
      <point x="269" y="77" type="line"/>
      <point x="254" y="77"/>
      <point x="215" y="76"/>
      <point x="193" y="74" type="curve"/>
      <point x="196" y="91"/>
      <point x="200" y="128"/>
      <point x="202" y="164" type="curve" smooth="yes"/>
      <point x="216" y="476" type="line"/>
      <point x="217" y="476" type="line"/>
      <point x="234" y="449"/>
      <point x="252" y="423"/>
      <point x="268" y="401" type="curve" smooth="yes"/>
    </contour>
  </outline>
</glyph>
<glyph name="P" format="2">
  <advance width="632"/>
  <unicode hex="0050"/>
  <outline>
    <contour>
      <point x="354" y="702" type="curve" smooth="yes"/>
      <point x="260" y="701"/>
      <point x="166" y="701"/>
      <point x="72" y="700" type="curve"/>
      <point x="68" y="623" type="line"/>
      <point x="82" y="624"/>
      <point x="122" y="625"/>
      <point x="143" y="626" type="curve"/>
      <point x="140" y="609"/>
      <point x="136" y="572"/>
      <point x="134" y="536" type="curve" smooth="yes"/>
      <point x="114" y="153" type="line" smooth="yes"/>
      <point x="110" y="72"/>
      <point x="83" y="68"/>
      <point x="39" y="66" type="curve"/>
      <point x="35" y="0" type="line"/>
      <point x="330" y="0" type="line"/>
      <point x="333" y="77" type="line"/>
      <point x="319" y="77"/>
      <point x="270" y="76"/>
      <point x="249" y="74" type="curve"/>
      <point x="252" y="91"/>
      <point x="255" y="128"/>
      <point x="257" y="165" type="curve" smooth="yes"/>
      <point x="262" y="253" type="line"/>
      <point x="285" y="252"/>
      <point x="304" y="252"/>
      <point x="334" y="253" type="curve" smooth="yes"/>
      <point x="524" y="259"/>
      <point x="618" y="368"/>
      <point x="627" y="475" type="curve" smooth="yes"/>
      <point x="640" y="634"/>
      <point x="529" y="703"/>
    </contour>
    <contour>
      <point x="349" y="632" type="curve" smooth="yes"/>
      <point x="399" y="632"/>
      <point x="482" y="618"/>
      <point x="476" y="484" type="curve" smooth="yes"/>
      <point x="470" y="382"/>
      <point x="421" y="325"/>
      <point x="311" y="325" type="curve" smooth="yes"/>
      <point x="295" y="325"/>
      <point x="280" y="326"/>
      <point x="266" y="328" type="curve"/>
      <point x="277" y="553" type="line" smooth="yes"/>
      <point x="281" y="623"/>
      <point x="307" y="632"/>
    </contour>
  </outline>
</glyph>
<glyph name="R" format="2">
  <advance width="681"/>
  <unicode hex="0052"/>
  <anchor x="340" y="0" name="bottom"/>
  <anchor x="353" y="704" name="top"/>
  <outline>
    <contour>
      <point x="354" y="702" type="curve" smooth="yes"/>
      <point x="260" y="701"/>
      <point x="166" y="701"/>
      <point x="72" y="700" type="curve"/>
      <point x="68" y="623" type="line"/>
      <point x="82" y="624"/>
      <point x="122" y="625"/>
      <point x="143" y="626" type="curve"/>
      <point x="140" y="609"/>
      <point x="136" y="572"/>
      <point x="134" y="536" type="curve" smooth="yes"/>
      <point x="114" y="153" type="line" smooth="yes"/>
      <point x="110" y="72"/>
      <point x="83" y="68"/>
      <point x="39" y="66" type="curve"/>
      <point x="35" y="0" type="line"/>
      <point x="330" y="0" type="line"/>
      <point x="333" y="77" type="line"/>
      <point x="319" y="77"/>
      <point x="270" y="76"/>
      <point x="249" y="74" type="curve"/>
      <point x="252" y="91"/>
      <point x="255" y="128"/>
      <point x="257" y="165" type="curve" smooth="yes"/>
      <point x="263" y="272" type="line"/>
      <point x="282" y="272"/>
      <point x="294" y="272"/>
      <point x="315" y="272" type="curve"/>
      <point x="327" y="258"/>
      <point x="339" y="241"/>
      <point x="354" y="214" type="curve" smooth="yes"/>
      <point x="421" y="94" type="line" smooth="yes"/>
      <point x="445" y="51"/>
      <point x="467" y="17"/>
      <point x="490" y="0" type="curve"/>
      <point x="652" y="0" type="line"/>
      <point x="656" y="66" type="line"/>
      <point x="611" y="68"/>
      <point x="590" y="92"/>
      <point x="549" y="160" type="curve" smooth="yes"/>
      <point x="506" y="230" type="line" smooth="yes"/>
      <point x="489" y="257"/>
      <point x="464" y="283"/>
      <point x="440" y="294" type="curve"/>
      <point x="558" y="327"/>
      <point x="619" y="402"/>
      <point x="625" y="487" type="curve" smooth="yes"/>
      <point x="638" y="646"/>
      <point x="529" y="703"/>
    </contour>
    <contour>
      <point x="349" y="632" type="curve" smooth="yes"/>
      <point x="390" y="632"/>
      <point x="485" y="623"/>
      <point x="478" y="495" type="curve" smooth="yes"/>
      <point x="473" y="393"/>
      <point x="426" y="344"/>
      <point x="315" y="344" type="curve" smooth="yes"/>
      <point x="298" y="344"/>
      <point x="282" y="346"/>
      <point x="267" y="348" type="curve"/>
      <point x="277" y="553" type="line" smooth="yes"/>
      <point x="281" y="623"/>
      <point x="307" y="632"/>
    </contour>
  </outline>
</glyph>
<glyph name="S" format="2">
  <advance width="600"/>
  <unicode hex="0053"/>
  <anchor x="332" y="0" name="bottom"/>
  <anchor x="331" y="700" name="top"/>
  <outline>
    <contour>
      <point x="291" y="-16" type="curve" smooth="yes"/>
      <point x="446" y="-16"/>
      <point x="552" y="67"/>
      <point x="559" y="186" type="curve" smooth="yes"/>
      <point x="565" y="316"/>
      <point x="440" y="376"/>
      <point x="342" y="417" type="curve" smooth="yes"/>
      <point x="234" y="461"/>
      <point x="185" y="496"/>
      <point x="188" y="558" type="curve" smooth="yes"/>
      <point x="190" y="608"/>
      <point x="243" y="644"/>
      <point x="300" y="644" type="curve" smooth="yes"/>
      <point x="393" y="645"/>
      <point x="452" y="587"/>
      <point x="464" y="476" type="curve"/>
      <point x="530" y="476" type="line"/>
      <point x="542" y="709" type="line"/>
      <point x="465" y="709" type="line"/>
      <point x="465" y="668" type="line"/>
      <point x="423" y="700"/>
      <point x="353" y="716"/>
      <point x="300" y="716" type="curve" smooth="yes"/>
      <point x="123" y="716"/>
      <point x="61" y="608"/>
      <point x="56" y="525" type="curve" smooth="yes"/>
      <point x="49" y="394"/>
      <point x="143" y="332"/>
      <point x="270" y="280" type="curve" smooth="yes"/>
      <point x="343" y="250"/>
      <point x="427" y="220"/>
      <point x="423" y="150" type="curve" smooth="yes"/>
      <point x="421" y="99"/>
      <point x="369" y="56"/>
      <point x="298" y="56" type="curve" smooth="yes"/>
      <point x="205" y="56"/>
      <point x="134" y="113"/>
      <point x="122" y="225" type="curve"/>
      <point x="56" y="225" type="line"/>
      <point x="44" y="-9" type="line"/>
      <point x="121" y="-9" type="line"/>
      <point x="121" y="33" type="line"/>
      <point x="172" y="1"/>
      <point x="239" y="-16"/>
    </contour>
  </outline>
</glyph>
<glyph name="T" format="2">
  <advance width="648"/>
  <unicode hex="0054"/>
  <anchor x="342" y="0" name="bottom"/>
  <anchor x="324" y="350" name="center"/>
  <anchor x="350" y="700" name="top"/>
  <outline>
    <contour>
      <point x="650" y="700" type="line"/>
      <point x="46" y="700" type="line"/>
      <point x="29" y="474" type="line"/>
      <point x="95" y="474" type="line"/>
      <point x="100" y="582"/>
      <point x="151" y="631"/>
      <point x="227" y="632" type="curve" smooth="yes"/>
      <point x="273" y="632" type="line"/>
      <point x="248" y="153" type="line" smooth="yes"/>
      <point x="244" y="72"/>
      <point x="217" y="68"/>
      <point x="172" y="66" type="curve"/>
      <point x="168" y="0" type="line"/>
      <point x="458" y="0" type="line"/>
      <point x="462" y="77" type="line"/>
      <point x="448" y="77"/>
      <point x="403" y="76"/>
      <point x="382" y="74" type="curve"/>
      <point x="385" y="91"/>
      <point x="389" y="128"/>
      <point x="391" y="164" type="curve" smooth="yes"/>
      <point x="415" y="633" type="line"/>
      <point x="463" y="633" type="line" smooth="yes"/>
      <point x="539" y="634"/>
      <point x="583" y="582"/>
      <point x="578" y="474" type="curve"/>
      <point x="644" y="474" type="line"/>
    </contour>
  </outline>
</glyph>
<glyph name="asciicircum" format="2">
  <advance width="823"/>
  <unicode hex="005E"/>
  <outline>
    <contour>
      <point x="619" y="437" type="line"/>
      <point x="756" y="437" type="line"/>
      <point x="464" y="716" type="line"/>
      <point x="375" y="716" type="line"/>
      <point x="53" y="441" type="line"/>
      <point x="184" y="441" type="line"/>
      <point x="411" y="643" type="line"/>
    </contour>
  </outline>
</glyph>
<glyph name="c" format="2">
  <advance width="467"/>
  <unicode hex="0063"/>
  <anchor x="199" y="0" name="bottom"/>
  <anchor x="284" y="500" name="top"/>
  <outline>
    <contour>
      <point x="273" y="511" type="curve" smooth="yes"/>
      <point x="106" y="511"/>
      <point x="27" y="336"/>
      <point x="27" y="207" type="curve" smooth="yes"/>
      <point x="27" y="59"/>
      <point x="106" y="-10"/>
      <point x="223" y="-11" type="curve"/>
      <point x="306" y="-10"/>
      <point x="384" y="26"/>
      <point x="441" y="157" type="curve"/>
      <point x="384" y="185" type="line"/>
      <point x="343" y="91"/>
      <point x="284" y="78"/>
      <point x="247" y="81" type="curve" smooth="yes"/>
      <point x="205" y="85"/>
      <point x="160" y="124"/>
      <point x="164" y="233" type="curve" smooth="yes"/>
      <point x="166" y="313"/>
      <point x="186" y="445"/>
      <point x="271" y="445" type="curve" smooth="yes"/>
      <point x="295" y="445"/>
      <point x="313" y="435"/>
      <point x="319" y="423" type="curve"/>
      <point x="312" y="410"/>
      <point x="309" y="393"/>
      <point x="309" y="381" type="curve" smooth="yes"/>
      <point x="309" y="358"/>
      <point x="325" y="321"/>
      <point x="371" y="322" type="curve" smooth="yes"/>
      <point x="410" y="323"/>
      <point x="435" y="351"/>
      <point x="435" y="391" type="curve" smooth="yes"/>
      <point x="435" y="464"/>
      <point x="365" y="511"/>
    </contour>
  </outline>
</glyph>
<glyph name="d" format="2">
  <advance width="564"/>
  <unicode hex="0064"/>
  <anchor x="282" y="250" name="center"/>
  <anchor x="554" y="500" name="topright"/>
  <outline>
    <contour>
      <point x="176" y="-11" type="curve" smooth="yes"/>
      <point x="229" y="-11"/>
      <point x="297" y="22"/>
      <point x="345" y="140" type="curve"/>
      <point x="346" y="140" type="line"/>
      <point x="343" y="117"/>
      <point x="342" y="106"/>
      <point x="342" y="80" type="curve" smooth="yes"/>
      <point x="342" y="9"/>
      <point x="379" y="-11"/>
      <point x="422" y="-11" type="curve" smooth="yes"/>
      <point x="509" y="-11"/>
      <point x="546" y="88"/>
      <point x="558" y="145" type="curve"/>
      <point x="503" y="161" type="line"/>
      <point x="486" y="101"/>
      <point x="470" y="82"/>
      <point x="455" y="82" type="curve" smooth="yes"/>
      <point x="448" y="82"/>
      <point x="440" y="87"/>
      <point x="440" y="111" type="curve" smooth="yes"/>
      <point x="440" y="171"/>
      <point x="458" y="298"/>
      <point x="473" y="435" type="curve" smooth="yes"/>
      <point x="485" y="542"/>
      <point x="498" y="648"/>
      <point x="510" y="755" type="curve"/>
      <point x="456" y="755" type="line"/>
      <point x="441" y="742"/>
      <point x="396" y="725"/>
      <point x="303" y="725" type="curve"/>
      <point x="299" y="649" type="line"/>
      <point x="313" y="650"/>
      <point x="347" y="651"/>
      <point x="369" y="652" type="curve"/>
      <point x="365" y="629"/>
      <point x="362" y="600"/>
      <point x="353" y="509" type="curve"/>
      <point x="343" y="510"/>
      <point x="314" y="511"/>
      <point x="305" y="511" type="curve" smooth="yes"/>
      <point x="114" y="511"/>
      <point x="28" y="370"/>
      <point x="28" y="180" type="curve" smooth="yes"/>
      <point x="28" y="72"/>
      <point x="75" y="-11"/>
    </contour>
    <contour>
      <point x="213" y="80" type="curve" smooth="yes"/>
      <point x="184" y="80"/>
      <point x="164" y="113"/>
      <point x="164" y="181" type="curve" smooth="yes"/>
      <point x="164" y="260"/>
      <point x="179" y="445"/>
      <point x="292" y="445" type="curve" smooth="yes"/>
      <point x="305" y="445"/>
      <point x="336" y="441"/>
      <point x="345" y="437" type="curve"/>
      <point x="340" y="379"/>
      <point x="333" y="325"/>
      <point x="324" y="277" type="curve" smooth="yes"/>
      <point x="300" y="160"/>
      <point x="263" y="80"/>
    </contour>
  </outline>
</glyph>
<glyph name="e" format="2">
  <advance width="470"/>
  <unicode hex="0065"/>
  <anchor x="260" y="0" name="bottom"/>
  <anchor x="313" y="5" name="ogonek"/>
  <anchor x="263" y="500" name="top"/>
  <outline>
    <contour>
      <point x="280" y="511" type="curve" smooth="yes"/>
      <point x="104" y="511"/>
      <point x="27" y="336"/>
      <point x="27" y="207" type="curve" smooth="yes"/>
      <point x="27" y="59"/>
      <point x="104" y="-12"/>
      <point x="227" y="-11" type="curve" smooth="yes"/>
      <point x="305" y="-11"/>
      <point x="383" y="19"/>
      <point x="440" y="150" type="curve"/>
      <point x="384" y="177" type="line"/>
      <point x="348" y="94"/>
      <point x="287" y="81"/>
      <point x="254" y="81" type="curve" smooth="yes"/>
      <point x="211" y="81"/>
      <point x="164" y="108"/>
      <point x="164" y="222" type="curve"/>
      <point x="282" y="239"/>
      <point x="430" y="276"/>
      <point x="430" y="385" type="curve" smooth="yes"/>
      <point x="430" y="473"/>
      <point x="368" y="511"/>
    </contour>
    <contour>
      <point x="269" y="445" type="curve" smooth="yes"/>
      <point x="289" y="445"/>
      <point x="312" y="432"/>
      <point x="313" y="399" type="curve" smooth="yes"/>
      <point x="314" y="350"/>
      <point x="275" y="306"/>
      <point x="167" y="287" type="curve"/>
      <point x="175" y="361"/>
      <point x="201" y="445"/>
    </contour>
  </outline>
</glyph>
<glyph name="n" format="2">
  <advance width="610"/>
  <unicode hex="006E"/>
  <anchor x="327" y="0" name="bottom"/>
  <anchor x="341" y="500" name="top"/>
  <outline>
    <contour>
      <point x="453" y="-11" type="curve" smooth="yes"/>
      <point x="543" y="-11"/>
      <point x="593" y="88"/>
      <point x="604" y="145" type="curve"/>
      <point x="550" y="161" type="line"/>
      <point x="533" y="101"/>
      <point x="517" y="82"/>
      <point x="502" y="82" type="curve" smooth="yes"/>
      <point x="495" y="82"/>
      <point x="487" y="86"/>
      <point x="487" y="108" type="curve" smooth="yes"/>
      <point x="487" y="181"/>
      <point x="512" y="284"/>
      <point x="512" y="357" type="curve" smooth="yes"/>
      <point x="512" y="451"/>
      <point x="477" y="511"/>
      <point x="392" y="511" type="curve" smooth="yes"/>
      <point x="334" y="511"/>
      <point x="268" y="480"/>
      <point x="221" y="360" type="curve"/>
      <point x="220" y="360" type="line"/>
      <point x="223" y="383"/>
      <point x="226" y="394"/>
      <point x="226" y="420" type="curve" smooth="yes"/>
      <point x="226" y="491"/>
      <point x="185" y="511"/>
      <point x="142" y="511" type="curve" smooth="yes"/>
      <point x="55" y="511"/>
      <point x="20" y="412"/>
      <point x="8" y="355" type="curve"/>
      <point x="63" y="339" type="line"/>
      <point x="80" y="399"/>
      <point x="96" y="418"/>
      <point x="111" y="418" type="curve" smooth="yes"/>
      <point x="118" y="418"/>
      <point x="125" y="414"/>
      <point x="125" y="392" type="curve" smooth="yes"/>
      <point x="125" y="367"/>
      <point x="115" y="298"/>
      <point x="106" y="226" type="curve" smooth="yes"/>
      <point x="97" y="159"/>
      <point x="89" y="89"/>
      <point x="89" y="48" type="curve" smooth="yes"/>
      <point x="89" y="35"/>
      <point x="89" y="28"/>
      <point x="92" y="0" type="curve"/>
      <point x="221" y="0" type="line"/>
      <point x="220" y="16"/>
      <point x="218" y="54"/>
      <point x="218" y="72" type="curve" smooth="yes"/>
      <point x="218" y="212"/>
      <point x="295" y="419"/>
      <point x="356" y="419" type="curve" smooth="yes"/>
      <point x="376" y="419"/>
      <point x="384" y="407"/>
      <point x="384" y="377" type="curve" smooth="yes"/>
      <point x="384" y="315"/>
      <point x="359" y="181"/>
      <point x="359" y="102" type="curve" smooth="yes"/>
      <point x="359" y="31"/>
      <point x="379" y="-11"/>
    </contour>
  </outline>
</glyph>
<glyph name="o" format="2">
  <advance width="515"/>
  <unicode hex="006F"/>
  <anchor x="245" y="0" name="bottom"/>
  <anchor x="258" y="250" name="center"/>
  <anchor x="450" y="5" name="ogonek"/>
  <anchor x="273" y="500" name="top"/>
  <anchor x="435" y="500" name="topright"/>
  <outline>
    <contour>
      <point x="279" y="511" type="curve" smooth="yes"/>
      <point x="125" y="511"/>
      <point x="28" y="376"/>
      <point x="28" y="216" type="curve" smooth="yes"/>
      <point x="28" y="91"/>
      <point x="94" y="-11"/>
      <point x="229" y="-11" type="curve" smooth="yes"/>
      <point x="385" y="-11"/>
      <point x="480" y="129"/>
      <point x="480" y="288" type="curve" smooth="yes"/>
      <point x="480" y="430"/>
      <point x="391" y="511"/>
    </contour>
    <contour>
      <point x="264" y="445" type="curve" smooth="yes"/>
      <point x="331" y="444"/>
      <point x="344" y="332"/>
      <point x="342" y="259" type="curve" smooth="yes"/>
      <point x="340" y="177"/>
      <point x="314" y="55"/>
      <point x="245" y="55" type="curve" smooth="yes"/>
      <point x="181" y="55"/>
      <point x="164" y="164"/>
      <point x="164" y="244" type="curve" smooth="yes"/>
      <point x="164" y="354"/>
      <point x="203" y="446"/>
    </contour>
  </outline>
</glyph>
<glyph name="r" format="2">
  <advance width="459"/>
  <unicode hex="0072"/>
  <anchor x="203" y="0" name="bottom"/>
  <anchor x="250" y="500" name="top"/>
  <outline>
    <contour>
      <point x="92" y="0" type="curve"/>
      <point x="223" y="0" type="line"/>
      <point x="222" y="16"/>
      <point x="220" y="54"/>
      <point x="220" y="72" type="curve" smooth="yes"/>
      <point x="220" y="214"/>
      <point x="287" y="425"/>
      <point x="343" y="419" type="curve"/>
      <point x="342" y="387"/>
      <point x="369" y="367"/>
      <point x="398" y="367" type="curve" smooth="yes"/>
      <point x="438" y="367"/>
      <point x="465" y="400"/>
      <point x="465" y="435" type="curve" smooth="yes"/>
      <point x="465" y="481"/>
      <point x="431" y="511"/>
      <point x="381" y="511" type="curve" smooth="yes"/>
      <point x="332" y="511"/>
      <point x="271" y="483"/>
      <point x="217" y="331" type="curve"/>
      <point x="216" y="331" type="line"/>
      <point x="223" y="369"/>
      <point x="226" y="399"/>
      <point x="226" y="420" type="curve" smooth="yes"/>
      <point x="226" y="491"/>
      <point x="185" y="511"/>
      <point x="142" y="511" type="curve" smooth="yes"/>
      <point x="55" y="511"/>
      <point x="20" y="412"/>
      <point x="8" y="355" type="curve"/>
      <point x="63" y="339" type="line"/>
      <point x="80" y="399"/>
      <point x="96" y="418"/>
      <point x="111" y="418" type="curve" smooth="yes"/>
      <point x="118" y="418"/>
      <point x="125" y="414"/>
      <point x="125" y="392" type="curve" smooth="yes"/>
      <point x="125" y="367"/>
      <point x="116" y="300"/>
      <point x="106" y="229" type="curve" smooth="yes"/>
      <point x="98" y="162"/>
      <point x="89" y="90"/>
      <point x="89" y="48" type="curve" smooth="yes"/>
      <point x="89" y="35"/>
      <point x="89" y="28"/>
    </contour>
  </outline>
</glyph>
<glyph name="s" format="2">
  <advance width="446"/>
  <unicode hex="0073"/>
  <anchor x="224" y="0" name="bottom"/>
  <anchor x="237" y="500" name="top"/>
  <outline>
    <contour>
      <point x="200" y="-11" type="curve" smooth="yes"/>
      <point x="315" y="-11"/>
      <point x="404" y="53"/>
      <point x="404" y="143" type="curve" smooth="yes"/>
      <point x="404" y="226"/>
      <point x="321" y="269"/>
      <point x="255" y="307" type="curve" smooth="yes"/>
      <point x="174" y="354"/>
      <point x="162" y="365"/>
      <point x="162" y="393" type="curve" smooth="yes"/>
      <point x="162" y="426"/>
      <point x="201" y="445"/>
      <point x="229" y="445" type="curve" smooth="yes"/>
      <point x="247" y="445"/>
      <point x="273" y="439"/>
      <point x="284" y="425" type="curve"/>
      <point x="280" y="416"/>
      <point x="278" y="406"/>
      <point x="278" y="396" type="curve" smooth="yes"/>
      <point x="278" y="364"/>
      <point x="302" y="335"/>
      <point x="338" y="335" type="curve" smooth="yes"/>
      <point x="377" y="335"/>
      <point x="401" y="366"/>
      <point x="401" y="401" type="curve" smooth="yes"/>
      <point x="401" y="470"/>
      <point x="313" y="511"/>
      <point x="233" y="511" type="curve" smooth="yes"/>
      <point x="111" y="511"/>
      <point x="43" y="437"/>
      <point x="43" y="367" type="curve" smooth="yes"/>
      <point x="43" y="297"/>
      <point x="86" y="262"/>
      <point x="181" y="208" type="curve" smooth="yes"/>
      <point x="233" y="178"/>
      <point x="282" y="154"/>
      <point x="282" y="117" type="curve" smooth="yes"/>
      <point x="282" y="85"/>
      <point x="261" y="55"/>
      <point x="203" y="55" type="curve" smooth="yes"/>
      <point x="183" y="55"/>
      <point x="147" y="69"/>
      <point x="140" y="83" type="curve"/>
      <point x="144" y="93"/>
      <point x="146" y="103"/>
      <point x="146" y="113" type="curve" smooth="yes"/>
      <point x="146" y="147"/>
      <point x="121" y="175"/>
      <point x="85" y="175" type="curve" smooth="yes"/>
      <point x="49" y="175"/>
      <point x="21" y="146"/>
      <point x="21" y="105" type="curve" smooth="yes"/>
      <point x="21" y="34"/>
      <point x="104" y="-11"/>
    </contour>
  </outline>
</glyph>
<glyph name="t" format="2">
  <advance width="395"/>
  <unicode hex="0074"/>
  <anchor x="218" y="0" name="bottom"/>
  <anchor x="178" y="290" name="center"/>
  <outline>
    <contour>
      <point x="253" y="651" type="line"/>
      <point x="186" y="651" type="line"/>
      <point x="167" y="553"/>
      <point x="126" y="500"/>
      <point x="27" y="500" type="curve"/>
      <point x="18" y="427" type="line"/>
      <point x="98" y="428" type="line"/>
      <point x="87" y="333"/>
      <point x="78" y="219"/>
      <point x="75" y="151" type="curve" smooth="yes"/>
      <point x="73" y="68"/>
      <point x="92" y="-11"/>
      <point x="202" y="-11" type="curve" smooth="yes"/>
      <point x="277" y="-11"/>
      <point x="345" y="31"/>
      <point x="390" y="116" type="curve"/>
      <point x="339" y="148" type="line"/>
      <point x="309" y="93"/>
      <point x="264" y="85"/>
      <point x="249" y="85" type="curve" smooth="yes"/>
      <point x="205" y="85"/>
      <point x="201" y="125"/>
      <point x="201" y="151" type="curve" smooth="yes"/>
      <point x="201" y="196"/>
      <point x="215" y="333"/>
      <point x="227" y="429" type="curve"/>
      <point x="352" y="431" type="line"/>
      <point x="358" y="500" type="line"/>
      <point x="233" y="500" type="line"/>
    </contour>
  </outline>
</glyph>
<glyph name="u" format="2">
  <advance width="598"/>
  <unicode hex="0075"/>
  <anchor x="286" y="0" name="bottom"/>
  <anchor x="511" y="5" name="ogonek"/>
  <anchor x="315" y="500" name="top"/>
  <anchor x="549" y="500" name="topright"/>
  <outline>
    <contour>
      <point x="211" y="-11" type="curve" smooth="yes"/>
      <point x="269" y="-11"/>
      <point x="329" y="24"/>
      <point x="375" y="145" type="curve"/>
      <point x="376" y="145" type="line"/>
      <point x="374" y="122"/>
      <point x="371" y="106"/>
      <point x="371" y="80" type="curve" smooth="yes"/>
      <point x="371" y="9"/>
      <point x="412" y="-11"/>
      <point x="455" y="-11" type="curve" smooth="yes"/>
      <point x="542" y="-11"/>
      <point x="577" y="88"/>
      <point x="588" y="145" type="curve"/>
      <point x="534" y="161" type="line"/>
      <point x="517" y="101"/>
      <point x="501" y="82"/>
      <point x="486" y="82" type="curve" smooth="yes"/>
      <point x="479" y="82"/>
      <point x="472" y="86"/>
      <point x="472" y="108" type="curve" smooth="yes"/>
      <point x="472" y="133"/>
      <point x="482" y="199"/>
      <point x="491" y="270" type="curve" smooth="yes"/>
      <point x="500" y="338"/>
      <point x="509" y="410"/>
      <point x="509" y="452" type="curve" smooth="yes"/>
      <point x="509" y="465"/>
      <point x="509" y="472"/>
      <point x="506" y="500" type="curve"/>
      <point x="377" y="500" type="line"/>
      <point x="379" y="484"/>
      <point x="380" y="446"/>
      <point x="380" y="428" type="curve" smooth="yes"/>
      <point x="380" y="288"/>
      <point x="303" y="81"/>
      <point x="247" y="81" type="curve" smooth="yes"/>
      <point x="227" y="81"/>
      <point x="219" y="93"/>
      <point x="219" y="123" type="curve" smooth="yes"/>
      <point x="219" y="185"/>
      <point x="245" y="319"/>
      <point x="245" y="398" type="curve" smooth="yes"/>
      <point x="245" y="469"/>
      <point x="224" y="511"/>
      <point x="150" y="511" type="curve" smooth="yes"/>
      <point x="60" y="511"/>
      <point x="10" y="412"/>
      <point x="-1" y="355" type="curve"/>
      <point x="53" y="339" type="line"/>
      <point x="70" y="399"/>
      <point x="86" y="418"/>
      <point x="101" y="418" type="curve" smooth="yes"/>
      <point x="108" y="418"/>
      <point x="117" y="414"/>
      <point x="117" y="392" type="curve" smooth="yes"/>
      <point x="117" y="319"/>
      <point x="91" y="216"/>
      <point x="91" y="143" type="curve" smooth="yes"/>
      <point x="91" y="49"/>
      <point x="126" y="-11"/>
    </contour>
  </outline>
</glyph>
<glyph name="x" format="2">
  <advance width="543"/>
  <unicode hex="0078"/>
  <outline>
    <contour>
      <point x="96" y="-11" type="curve" smooth="yes"/>
      <point x="142" y="-11"/>
      <point x="187" y="11"/>
      <point x="237" y="161" type="curve"/>
      <point x="238" y="161" type="line"/>
      <point x="296" y="25"/>
      <point x="316" y="-11"/>
      <point x="383" y="-11" type="curve" smooth="yes"/>
      <point x="490" y="-11"/>
      <point x="515" y="91"/>
      <point x="521" y="149" type="curve"/>
      <point x="465" y="157" type="line"/>
      <point x="458" y="95"/>
      <point x="445" y="82"/>
      <point x="427" y="82" type="curve" smooth="yes"/>
      <point x="395" y="82"/>
      <point x="349" y="199"/>
      <point x="322" y="274" type="curve"/>
      <point x="357" y="359"/>
      <point x="373" y="387"/>
      <point x="391" y="401" type="curve"/>
      <point x="400" y="390"/>
      <point x="415" y="380"/>
      <point x="439" y="380" type="curve" smooth="yes"/>
      <point x="474" y="380"/>
      <point x="502" y="410"/>
      <point x="502" y="443" type="curve" smooth="yes"/>
      <point x="502" y="482"/>
      <point x="480" y="511"/>
      <point x="432" y="511" type="curve" smooth="yes"/>
      <point x="397" y="511"/>
      <point x="349" y="499"/>
      <point x="293" y="356" type="curve"/>
      <point x="283" y="393"/>
      <point x="279" y="404"/>
      <point x="271" y="424" type="curve" smooth="yes"/>
      <point x="252" y="476"/>
      <point x="228" y="511"/>
      <point x="173" y="511" type="curve" smooth="yes"/>
      <point x="66" y="511"/>
      <point x="32" y="409"/>
      <point x="26" y="351" type="curve"/>
      <point x="82" y="343" type="line"/>
      <point x="89" y="403"/>
      <point x="108" y="419"/>
      <point x="125" y="418" type="curve"/>
      <point x="138" y="417"/>
      <point x="147" y="412"/>
      <point x="160" y="384" type="curve" smooth="yes"/>
      <point x="177" y="345"/>
      <point x="187" y="307"/>
      <point x="208" y="251" type="curve"/>
      <point x="174" y="152"/>
      <point x="155" y="104"/>
      <point x="135" y="91" type="curve"/>
      <point x="129" y="109"/>
      <point x="111" y="128"/>
      <point x="79" y="128" type="curve" smooth="yes"/>
      <point x="45" y="128"/>
      <point x="16" y="99"/>
      <point x="16" y="58" type="curve" smooth="yes"/>
      <point x="16" y="17"/>
      <point x="47" y="-11"/>
    </contour>
  </outline>
</glyph>
<glyph name="y" format="2">
  <advance width="561"/>
  <unicode hex="0079"/>
  <anchor x="466" y="0" name="bottom"/>
  <anchor x="280" y="500" name="top"/>
  <outline>
    <contour>
      <point x="123" y="-271" type="curve" smooth="yes"/>
      <point x="227" y="-271"/>
      <point x="331" y="-145"/>
      <point x="407" y="2" type="curve" smooth="yes"/>
      <point x="475" y="135"/>
      <point x="520" y="284"/>
      <point x="520" y="371" type="curve" smooth="yes"/>
      <point x="520" y="439"/>
      <point x="492" y="511"/>
      <point x="418" y="511" type="curve" smooth="yes"/>
      <point x="385" y="511"/>
      <point x="349" y="489"/>
      <point x="349" y="443" type="curve" smooth="yes"/>
      <point x="349" y="411"/>
      <point x="376" y="385"/>
      <point x="410" y="385" type="curve" smooth="yes"/>
      <point x="415" y="385"/>
      <point x="419" y="385"/>
      <point x="424" y="386" type="curve"/>
      <point x="438" y="370"/>
      <point x="437" y="331"/>
      <point x="436" y="316" type="curve" smooth="yes"/>
      <point x="431" y="249"/>
      <point x="409" y="165"/>
      <point x="368" y="73" type="curve"/>
      <point x="367" y="73" type="line"/>
      <point x="345" y="202"/>
      <point x="293" y="339"/>
      <point x="265" y="407" type="curve" smooth="yes"/>
      <point x="244" y="457"/>
      <point x="208" y="511"/>
      <point x="142" y="511" type="curve" smooth="yes"/>
      <point x="35" y="511"/>
      <point x="-1" y="409"/>
      <point x="-7" y="351" type="curve"/>
      <point x="49" y="343" type="line"/>
      <point x="56" y="405"/>
      <point x="76" y="418"/>
      <point x="94" y="418" type="curve" smooth="yes"/>
      <point x="116" y="418"/>
      <point x="131" y="385"/>
      <point x="141" y="364" type="curve" smooth="yes"/>
      <point x="192" y="247"/>
      <point x="264" y="67"/>
      <point x="284" y="-61" type="curve"/>
      <point x="267" y="-98"/>
      <point x="209" y="-178"/>
      <point x="163" y="-178" type="curve" smooth="yes"/>
      <point x="160" y="-178"/>
      <point x="156" y="-178"/>
      <point x="153" y="-177" type="curve"/>
      <point x="148" y="-143"/>
      <point x="127" y="-123"/>
      <point x="92" y="-123" type="curve" smooth="yes"/>
      <point x="61" y="-123"/>
      <point x="28" y="-150"/>
      <point x="28" y="-193" type="curve" smooth="yes"/>
      <point x="28" y="-239"/>
      <point x="62" y="-271"/>
    </contour>
  </outline>
</glyph>
<glyph name="z" format="2">
  <advance width="491"/>
  <unicode hex="007A"/>
  <anchor x="258" y="500" name="top"/>
  <outline>
    <contour>
      <point x="61" y="-11" type="line"/>
      <point x="93" y="17"/>
      <point x="121" y="19"/>
      <point x="136" y="19" type="curve" smooth="yes"/>
      <point x="193" y="19"/>
      <point x="271" y="-11"/>
      <point x="327" y="-11" type="curve" smooth="yes"/>
      <point x="409" y="-11"/>
      <point x="450" y="59"/>
      <point x="450" y="130" type="curve" smooth="yes"/>
      <point x="450" y="161"/>
      <point x="443" y="185"/>
      <point x="436" y="206" type="curve"/>
      <point x="385" y="189" type="line"/>
      <point x="391" y="175"/>
      <point x="394" y="160"/>
      <point x="393" y="147" type="curve" smooth="yes"/>
      <point x="392" y="123"/>
      <point x="378" y="104"/>
      <point x="353" y="104" type="curve" smooth="yes"/>
      <point x="315" y="104"/>
      <point x="289" y="129"/>
      <point x="239" y="129" type="curve" smooth="yes"/>
      <point x="208" y="129"/>
      <point x="169" y="122"/>
      <point x="114" y="78" type="curve"/>
      <point x="113" y="78" type="line"/>
      <point x="164" y="120"/>
      <point x="229" y="172"/>
      <point x="315" y="280" type="curve"/>
      <point x="365" y="344"/>
      <point x="414" y="407"/>
      <point x="464" y="471" type="curve"/>
      <point x="421" y="511" type="line"/>
      <point x="389" y="483"/>
      <point x="356" y="481"/>
      <point x="341" y="481" type="curve" smooth="yes"/>
      <point x="284" y="481"/>
      <point x="216" y="511"/>
      <point x="160" y="511" type="curve" smooth="yes"/>
      <point x="78" y="511"/>
      <point x="37" y="441"/>
      <point x="37" y="370" type="curve" smooth="yes"/>
      <point x="37" y="339"/>
      <point x="41" y="313"/>
      <point x="49" y="292" type="curve"/>
      <point x="99" y="309" type="line"/>
      <point x="95" y="320"/>
      <point x="93" y="332"/>
      <point x="93" y="343" type="curve" smooth="yes"/>
      <point x="93" y="371"/>
      <point x="107" y="394"/>
      <point x="134" y="394" type="curve" smooth="yes"/>
      <point x="172" y="394"/>
      <point x="201" y="369"/>
      <point x="243" y="369" type="curve" smooth="yes"/>
      <point x="274" y="369"/>
      <point x="309" y="379"/>
      <point x="362" y="423" type="curve"/>
      <point x="363" y="423" type="line"/>
      <point x="311" y="374"/>
      <point x="279" y="353"/>
      <point x="213" y="276" type="curve" smooth="yes"/>
      <point x="151" y="204"/>
      <point x="63" y="95"/>
      <point x="18" y="29" type="curve"/>
    </contour>
  </outline>
</glyph>
<glyph name="bar" format="2">
  <advance width="234"/>
  <unicode hex="007C"/>
  <outline>
    <contour>
      <point x="197" y="760" type="line"/>
      <point x="85" y="760" type="line"/>
      <point x="34" y="-271" type="line"/>
      <point x="139" y="-271" type="line"/>
    </contour>
  </outline>
</glyph>
<glyph name="sterling" format="2">
  <advance width="550"/>
  <unicode hex="00A3"/>
  <outline>
    <contour>
      <point x="77" y="-16" type="curve" smooth="yes"/>
      <point x="112" y="-16"/>
      <point x="149" y="23"/>
      <point x="165" y="72" type="curve"/>
      <point x="199" y="71"/>
      <point x="239" y="51"/>
      <point x="270" y="32" type="curve" smooth="yes"/>
      <point x="306" y="8"/>
      <point x="341" y="-16"/>
      <point x="385" y="-16" type="curve" smooth="yes"/>
      <point x="458" y="-16"/>
      <point x="501" y="53"/>
      <point x="510" y="151" type="curve"/>
      <point x="448" y="151" type="line"/>
      <point x="444" y="112"/>
      <point x="422" y="94"/>
      <point x="407" y="94" type="curve" smooth="yes"/>
      <point x="380" y="94"/>
      <point x="356" y="112"/>
      <point x="327" y="127" type="curve" smooth="yes"/>
      <point x="308" y="136"/>
      <point x="286" y="144"/>
      <point x="260" y="144" type="curve" smooth="yes"/>
      <point x="237" y="144"/>
      <point x="212" y="140"/>
      <point x="174" y="124" type="curve"/>
      <point x="228" y="160"/>
      <point x="255" y="235"/>
      <point x="247" y="301" type="curve"/>
      <point x="394" y="304" type="line"/>
      <point x="398" y="375" type="line"/>
      <point x="239" y="375" type="line"/>
      <point x="233" y="415"/>
      <point x="230" y="460"/>
      <point x="233" y="512" type="curve" smooth="yes"/>
      <point x="236" y="573"/>
      <point x="263" y="648"/>
      <point x="334" y="648" type="curve" smooth="yes"/>
      <point x="357" y="648"/>
      <point x="372" y="640"/>
      <point x="378" y="632" type="curve"/>
      <point x="364" y="617"/>
      <point x="358" y="596"/>
      <point x="357" y="579" type="curve" smooth="yes"/>
      <point x="356" y="555"/>
      <point x="372" y="516"/>
      <point x="421" y="518" type="curve" smooth="yes"/>
      <point x="463" y="519"/>
      <point x="488" y="553"/>
      <point x="490" y="592" type="curve" smooth="yes"/>
      <point x="493" y="643"/>
      <point x="452" y="716"/>
      <point x="328" y="716" type="curve" smooth="yes"/>
      <point x="217" y="716"/>
      <point x="112" y="629"/>
      <point x="104" y="475" type="curve" smooth="yes"/>
      <point x="103" y="436"/>
      <point x="105" y="404"/>
      <point x="111" y="375" type="curve"/>
      <point x="55" y="375" type="line"/>
      <point x="50" y="298" type="line"/>
      <point x="129" y="299" type="line"/>
      <point x="141" y="236"/>
      <point x="144" y="180"/>
      <point x="115" y="128" type="curve"/>
      <point x="65" y="110"/>
      <point x="26" y="79"/>
      <point x="24" y="40" type="curve" smooth="yes"/>
      <point x="22" y="11"/>
      <point x="36" y="-16"/>
    </contour>
  </outline>
</glyph>
<glyph name="currency" format="2">
  <advance width="553"/>
  <unicode hex="00A4"/>
  <outline>
    <contour>
      <point x="113" y="27" type="line"/>
      <point x="163" y="87" type="line"/>
      <point x="189" y="71"/>
      <point x="223" y="62"/>
      <point x="262" y="62" type="curve" smooth="yes"/>
      <point x="301" y="62"/>
      <point x="335" y="71"/>
      <point x="364" y="87" type="curve"/>
      <point x="409" y="27" type="line"/>
      <point x="483" y="84" type="line"/>
      <point x="429" y="149" type="line"/>
      <point x="448" y="180"/>
      <point x="459" y="217"/>
      <point x="461" y="254" type="curve" smooth="yes"/>
      <point x="463" y="291"/>
      <point x="455" y="327"/>
      <point x="437" y="359" type="curve"/>
      <point x="501" y="428" type="line"/>
      <point x="433" y="487" type="line"/>
      <point x="380" y="425" type="line"/>
      <point x="354" y="442"/>
      <point x="321" y="453"/>
      <point x="283" y="453" type="curve" smooth="yes"/>
      <point x="244" y="453"/>
      <point x="211" y="442"/>
      <point x="183" y="425" type="curve"/>
      <point x="136" y="488" type="line"/>
      <point x="63" y="431" type="line"/>
      <point x="119" y="362" type="line"/>
      <point x="98" y="330"/>
      <point x="86" y="291"/>
      <point x="84" y="254" type="curve" smooth="yes"/>
      <point x="82" y="217"/>
      <point x="89" y="180"/>
      <point x="105" y="149" type="curve"/>
      <point x="44" y="84" type="line"/>
    </contour>
    <contour>
      <point x="266" y="135" type="curve" smooth="yes"/>
      <point x="212" y="135"/>
      <point x="203" y="219"/>
      <point x="206" y="269" type="curve" smooth="yes"/>
      <point x="208" y="307"/>
      <point x="228" y="382"/>
      <point x="279" y="382" type="curve" smooth="yes"/>
      <point x="331" y="382"/>
      <point x="344" y="307"/>
      <point x="342" y="269" type="curve" smooth="yes"/>
      <point x="339" y="219"/>
      <point x="320" y="135"/>
    </contour>
  </outline>
</glyph>
<glyph name="yen" format="2">
  <advance width="706"/>
  <unicode hex="00A5"/>
  <outline>
    <contour>
      <point x="214" y="0" type="line"/>
      <point x="503" y="0" type="line"/>
      <point x="507" y="77" type="line"/>
      <point x="493" y="77"/>
      <point x="449" y="76"/>
      <point x="427" y="74" type="curve"/>
      <point x="430" y="87"/>
      <point x="433" y="112"/>
      <point x="435" y="139" type="curve"/>
      <point x="540" y="140" type="line"/>
      <point x="543" y="213" type="line"/>
      <point x="438" y="214" type="line"/>
      <point x="441" y="265" type="line"/>
      <point x="544" y="266" type="line"/>
      <point x="548" y="340" type="line"/>
      <point x="478" y="340" type="line"/>
      <point x="514" y="402"/>
      <point x="549" y="465"/>
      <point x="585" y="527" type="curve"/>
      <point x="628" y="600"/>
      <point x="657" y="627"/>
      <point x="704" y="634" type="curve"/>
      <point x="708" y="700" type="line"/>
      <point x="487" y="700" type="line"/>
      <point x="483" y="623" type="line"/>
      <point x="497" y="624"/>
      <point x="538" y="625"/>
      <point x="560" y="626" type="curve"/>
      <point x="542" y="605"/>
      <point x="514" y="556"/>
      <point x="502" y="535" type="curve" smooth="yes"/>
      <point x="444" y="431"/>
      <point x="411" y="370"/>
      <point x="396" y="341" type="curve"/>
      <point x="390" y="341" type="line"/>
      <point x="379" y="370"/>
      <point x="354" y="417"/>
      <point x="346" y="432" type="curve" smooth="yes"/>
      <point x="323" y="474"/>
      <point x="299" y="515"/>
      <point x="276" y="557" type="curve" smooth="yes"/>
      <point x="246" y="611"/>
      <point x="281" y="638"/>
      <point x="339" y="634" type="curve"/>
      <point x="343" y="700" type="line"/>
      <point x="51" y="700" type="line"/>
      <point x="47" y="623" type="line"/>
      <point x="61" y="624"/>
      <point x="74" y="625"/>
      <point x="95" y="626" type="curve"/>
      <point x="94" y="604"/>
      <point x="109" y="561"/>
      <point x="128" y="531" type="curve" smooth="yes"/>
      <point x="247" y="341" type="line"/>
      <point x="195" y="342" type="line"/>
      <point x="190" y="264" type="line"/>
      <point x="299" y="265" type="line"/>
      <point x="296" y="215" type="line"/>
      <point x="190" y="215" type="line"/>
      <point x="186" y="138" type="line"/>
      <point x="292" y="138" type="line"/>
      <point x="286" y="72"/>
      <point x="259" y="68"/>
      <point x="217" y="66" type="curve"/>
    </contour>
  </outline>
</glyph>
<glyph name="section" format="2">
  <advance width="527"/>
  <unicode hex="00A7"/>
  <outline>
    <contour>
      <point x="227" y="-228" type="curve" smooth="yes"/>
      <point x="382" y="-228"/>
      <point x="435" y="-122"/>
      <point x="438" y="-45" type="curve" smooth="yes"/>
      <point x="441" y="3"/>
      <point x="420" y="35"/>
      <point x="404" y="61" type="curve"/>
      <point x="452" y="106"/>
      <point x="490" y="179"/>
      <point x="490" y="226" type="curve" smooth="yes"/>
      <point x="490" y="322"/>
      <point x="454" y="363"/>
      <point x="360" y="434" type="curve" smooth="yes"/>
      <point x="297" y="481"/>
      <point x="193" y="516"/>
      <point x="196" y="606" type="curve"/>
      <point x="199" y="645"/>
      <point x="231" y="689"/>
      <point x="293" y="689" type="curve" smooth="yes"/>
      <point x="323" y="689"/>
      <point x="349" y="676"/>
      <point x="358" y="655" type="curve"/>
      <point x="349" y="642"/>
      <point x="345" y="627"/>
      <point x="345" y="613" type="curve"/>
      <point x="343" y="591"/>
      <point x="359" y="553"/>
      <point x="406" y="554" type="curve" smooth="yes"/>
      <point x="445" y="556"/>
      <point x="469" y="589"/>
      <point x="471" y="626" type="curve" smooth="yes"/>
      <point x="474" y="691"/>
      <point x="403" y="760"/>
      <point x="293" y="760" type="curve" smooth="yes"/>
      <point x="147" y="760"/>
      <point x="86" y="646"/>
      <point x="84" y="569" type="curve" smooth="yes"/>
      <point x="84" y="531"/>
      <point x="89" y="500"/>
      <point x="118" y="461" type="curve"/>
      <point x="68" y="416"/>
      <point x="35" y="350"/>
      <point x="32" y="297" type="curve" smooth="yes"/>
      <point x="27" y="194"/>
      <point x="95" y="135"/>
      <point x="166" y="88" type="curve" smooth="yes"/>
      <point x="224" y="49"/>
      <point x="332" y="6"/>
      <point x="327" y="-76" type="curve" smooth="yes"/>
      <point x="325" y="-116"/>
      <point x="292" y="-157"/>
      <point x="230" y="-157" type="curve" smooth="yes"/>
      <point x="200" y="-157"/>
      <point x="171" y="-144"/>
      <point x="162" y="-123" type="curve"/>
      <point x="171" y="-110"/>
      <point x="175" y="-96"/>
      <point x="175" y="-82" type="curve"/>
      <point x="177" y="-60"/>
      <point x="161" y="-20"/>
      <point x="114" y="-21" type="curve" smooth="yes"/>
      <point x="75" y="-23"/>
      <point x="51" y="-57"/>
      <point x="49" y="-95" type="curve" smooth="yes"/>
      <point x="46" y="-160"/>
      <point x="117" y="-228"/>
    </contour>
    <contour>
      <point x="357" y="117" type="curve"/>
      <point x="289" y="173"/>
      <point x="148" y="219"/>
      <point x="148" y="321" type="curve" smooth="yes"/>
      <point x="148" y="343"/>
      <point x="156" y="385"/>
      <point x="167" y="405" type="curve"/>
      <point x="235" y="350"/>
      <point x="375" y="304"/>
      <point x="375" y="202" type="curve" smooth="yes"/>
      <point x="375" y="181"/>
      <point x="367" y="137"/>
    </contour>
  </outline>
</glyph>
<glyph name="dieresis" format="2">
  <advance width="415"/>
  <unicode hex="00A8"/>
  <anchor x="207" y="500" name="_top"/>
  <outline>
    <contour>
      <point x="290" y="600" type="curve" smooth="yes"/>
      <point x="328" y="600"/>
      <point x="359" y="635"/>
      <point x="359" y="681" type="curve" smooth="yes"/>
      <point x="359" y="719"/>
      <point x="335" y="751"/>
      <point x="299" y="751" type="curve" smooth="yes"/>
      <point x="262" y="751"/>
      <point x="229" y="714"/>
      <point x="229" y="670" type="curve" smooth="yes"/>
      <point x="229" y="630"/>
      <point x="255" y="600"/>
    </contour>
    <contour>
      <point x="116" y="600" type="curve" smooth="yes"/>
      <point x="154" y="600"/>
      <point x="185" y="636"/>
      <point x="185" y="681" type="curve" smooth="yes"/>
      <point x="185" y="719"/>
      <point x="161" y="751"/>
      <point x="125" y="751" type="curve" smooth="yes"/>
      <point x="88" y="751"/>
      <point x="55" y="714"/>
      <point x="55" y="670" type="curve" smooth="yes"/>
      <point x="55" y="630"/>
      <point x="81" y="600"/>
    </contour>
  </outline>
</glyph>
<glyph name="copyright" format="2">
  <advance width="890"/>
  <unicode hex="00A9"/>
  <outline>
    <contour>
      <point x="443" y="94" type="curve" smooth="yes"/>
      <point x="500" y="94"/>
      <point x="590" y="118"/>
      <point x="662" y="209" type="curve"/>
      <point x="622" y="250" type="line"/>
      <point x="580" y="200"/>
      <point x="523" y="175"/>
      <point x="476" y="176" type="curve" smooth="yes"/>
      <point x="382" y="178"/>
      <point x="328" y="259"/>
      <point x="332" y="349" type="curve" smooth="yes"/>
      <point x="337" y="449"/>
      <point x="401" y="523"/>
      <point x="472" y="523" type="curve" smooth="yes"/>
      <point x="525" y="523"/>
      <point x="578" y="491"/>
      <point x="584" y="411" type="curve"/>
      <point x="646" y="411" type="line"/>
      <point x="655" y="586" type="line"/>
      <point x="583" y="586" type="line"/>
      <point x="583" y="555" type="line"/>
      <point x="549" y="580"/>
      <point x="510" y="588"/>
      <point x="470" y="590" type="curve" smooth="yes"/>
      <point x="309" y="596"/>
      <point x="223" y="456"/>
      <point x="216" y="338" type="curve" smooth="yes"/>
      <point x="209" y="201"/>
      <point x="305" y="94"/>
    </contour>
    <contour>
      <point x="428" y="-71" type="curve" smooth="yes"/>
      <point x="656" y="-71"/>
      <point x="847" y="112"/>
      <point x="859" y="339" type="curve" smooth="yes"/>
      <point x="871" y="567"/>
      <point x="713" y="755"/>
      <point x="473" y="755" type="curve" smooth="yes"/>
      <point x="235" y="755"/>
      <point x="48" y="568"/>
      <point x="36" y="340" type="curve" smooth="yes"/>
      <point x="24" y="103"/>
      <point x="183" y="-71"/>
    </contour>
    <contour>
      <point x="434" y="-14" type="curve" smooth="yes"/>
      <point x="221" y="-14"/>
      <point x="97" y="147"/>
      <point x="107" y="340" type="curve" smooth="yes"/>
      <point x="117" y="533"/>
      <point x="264" y="697"/>
      <point x="468" y="697" type="curve" smooth="yes"/>
      <point x="674" y="697"/>
      <point x="799" y="533"/>
      <point x="789" y="340" type="curve" smooth="yes"/>
      <point x="779" y="147"/>
      <point x="640" y="-14"/>
    </contour>
  </outline>
</glyph>
<glyph name="softhyphen" format="2">
  <advance width="473"/>
  <unicode hex="00AD"/>
  <outline>
    <contour>
      <point x="424" y="370" type="line"/>
      <point x="57" y="370" type="line"/>
      <point x="52" y="269" type="line"/>
      <point x="418" y="272" type="line"/>
    </contour>
  </outline>
</glyph>
<glyph name="twosuperior" format="2">
  <advance width="376"/>
  <unicode hex="00B2"/>
  <outline>
    <contour>
      <point x="208" y="716" type="curve" smooth="yes"/>
      <point x="114" y="716"/>
      <point x="63" y="654"/>
      <point x="63" y="613" type="curve" smooth="yes"/>
      <point x="63" y="585"/>
      <point x="79" y="563"/>
      <point x="108" y="563" type="curve" smooth="yes"/>
      <point x="146" y="563"/>
      <point x="160" y="596"/>
      <point x="160" y="613" type="curve" smooth="yes"/>
      <point x="160" y="621"/>
      <point x="158" y="637"/>
      <point x="148" y="645" type="curve"/>
      <point x="154" y="653"/>
      <point x="171" y="660"/>
      <point x="184" y="660" type="curve" smooth="yes"/>
      <point x="210" y="660"/>
      <point x="230" y="644"/>
      <point x="230" y="608" type="curve" smooth="yes"/>
      <point x="230" y="583"/>
      <point x="219" y="536"/>
      <point x="160" y="485" type="curve" smooth="yes"/>
      <point x="104" y="438"/>
      <point x="56" y="394"/>
      <point x="50" y="302" type="curve"/>
      <point x="329" y="302" type="line"/>
      <point x="340" y="419" type="line"/>
      <point x="293" y="419" type="line"/>
      <point x="292" y="387"/>
      <point x="279" y="381"/>
      <point x="262" y="382" type="curve" smooth="yes"/>
      <point x="141" y="384" type="line"/>
      <point x="150" y="402"/>
      <point x="162" y="415"/>
      <point x="180" y="432" type="curve" smooth="yes"/>
      <point x="255" y="503"/>
      <point x="337" y="532"/>
      <point x="337" y="619" type="curve" smooth="yes"/>
      <point x="337" y="689"/>
      <point x="273" y="716"/>
    </contour>
  </outline>
</glyph>
<glyph name="onesuperior" format="2">
  <advance width="276"/>
  <unicode hex="00B9"/>
  <outline>
    <contour>
      <point x="68" y="301" type="line"/>
      <point x="243" y="301" type="line"/>
      <point x="246" y="345" type="line"/>
      <point x="237" y="345"/>
      <point x="215" y="345"/>
      <point x="203" y="344" type="curve"/>
      <point x="204" y="354"/>
      <point x="206" y="375"/>
      <point x="207" y="395" type="curve" smooth="yes"/>
      <point x="224" y="716" type="line"/>
      <point x="189" y="716" type="line"/>
      <point x="41" y="621" type="line"/>
      <point x="59" y="582" type="line"/>
      <point x="125" y="619" type="line"/>
      <point x="113" y="389" type="line" smooth="yes"/>
      <point x="110" y="343"/>
      <point x="95" y="340"/>
      <point x="70" y="339" type="curve"/>
    </contour>
  </outline>
</glyph>
<glyph name="AE" format="2">
  <advance width="931"/>
  <unicode hex="00C6"/>
  <outline>
    <contour>
      <point x="-24" y="0" type="line"/>
      <point x="200" y="0" type="line"/>
      <point x="204" y="77" type="line"/>
      <point x="124" y="74" type="line"/>
      <point x="124" y="75" type="line"/>
      <point x="146" y="91"/>
      <point x="168" y="120"/>
      <point x="191" y="151" type="curve" smooth="yes"/>
      <point x="229" y="202" type="line"/>
      <point x="292" y="203"/>
      <point x="363" y="206"/>
      <point x="424" y="207" type="curve"/>
      <point x="422" y="153" type="line" smooth="yes"/>
      <point x="418" y="72"/>
      <point x="391" y="68"/>
      <point x="346" y="66" type="curve"/>
      <point x="343" y="0" type="line"/>
      <point x="868" y="0" type="line"/>
      <point x="886" y="220" type="line"/>
      <point x="820" y="220" type="line"/>
      <point x="814" y="112"/>
      <point x="750" y="76"/>
      <point x="690" y="76" type="curve" smooth="yes"/>
      <point x="556" y="76" type="line"/>
      <point x="560" y="93"/>
      <point x="563" y="128"/>
      <point x="565" y="164" type="curve" smooth="yes"/>
      <point x="573" y="328" type="line"/>
      <point x="582" y="328"/>
      <point x="591" y="329"/>
      <point x="600" y="329" type="curve" smooth="yes"/>
      <point x="654" y="330"/>
      <point x="698" y="325"/>
      <point x="693" y="241" type="curve"/>
      <point x="759" y="241" type="line"/>
      <point x="772" y="484" type="line"/>
      <point x="695" y="484" type="line"/>
      <point x="695" y="459"/>
      <point x="694" y="425"/>
      <point x="695" y="397" type="curve"/>
      <point x="577" y="397" type="line"/>
      <point x="585" y="547" type="line" smooth="yes"/>
      <point x="589" y="625"/>
      <point x="614" y="633"/>
      <point x="656" y="634" type="curve" smooth="yes"/>
      <point x="692" y="635" type="line" smooth="yes"/>
      <point x="747" y="637"/>
      <point x="813" y="615"/>
      <point x="807" y="506" type="curve"/>
      <point x="873" y="506" type="line"/>
      <point x="877" y="700" type="line"/>
      <point x="379" y="700" type="line"/>
      <point x="375" y="623" type="line"/>
      <point x="390" y="624"/>
      <point x="429" y="625"/>
      <point x="451" y="625" type="curve"/>
      <point x="104" y="171" type="line" smooth="yes"/>
      <point x="68" y="124"/>
      <point x="26" y="66"/>
      <point x="-21" y="66" type="curve"/>
    </contour>
    <contour>
      <point x="281" y="276" type="line"/>
      <point x="368" y="392" type="line" smooth="yes"/>
      <point x="411" y="449"/>
      <point x="419" y="460"/>
      <point x="444" y="501" type="curve"/>
      <point x="445" y="501" type="line"/>
      <point x="428" y="276" type="line"/>
    </contour>
  </outline>
</glyph>
<glyph name="multiply" format="2">
  <advance width="530"/>
  <unicode hex="00D7"/>
  <outline>
    <contour>
      <point x="151" y="545" type="line"/>
      <point x="93" y="490" type="line"/>
      <point x="391" y="175" type="line"/>
      <point x="449" y="230" type="line"/>
    </contour>
    <contour>
      <point x="463" y="491" type="line"/>
      <point x="412" y="545" type="line"/>
      <point x="79" y="229" type="line"/>
      <point x="130" y="175" type="line"/>
    </contour>
  </outline>
</glyph>
<glyph name="germandbls" format="2">
  <advance width="671"/>
  <unicode hex="00DF"/>
  <outline>
    <contour>
      <point x="-20" y="-271" type="curve" smooth="yes"/>
      <point x="116" y="-271"/>
      <point x="179" y="-166"/>
      <point x="197" y="-11" type="curve"/>
      <point x="210" y="144"/>
      <point x="222" y="300"/>
      <point x="235" y="455" type="curve" smooth="yes"/>
      <point x="244" y="558"/>
      <point x="269" y="688"/>
      <point x="395" y="688" type="curve" smooth="yes"/>
      <point x="437" y="688"/>
      <point x="486" y="674"/>
      <point x="491" y="612" type="curve" smooth="yes"/>
      <point x="494" y="576"/>
      <point x="476" y="549"/>
      <point x="451" y="525" type="curve" smooth="yes"/>
      <point x="396" y="473"/>
      <point x="304" y="434"/>
      <point x="304" y="347" type="curve" smooth="yes"/>
      <point x="304" y="298"/>
      <point x="338" y="260"/>
      <point x="430" y="208" type="curve" smooth="yes"/>
      <point x="482" y="178"/>
      <point x="526" y="154"/>
      <point x="526" y="117" type="curve" smooth="yes"/>
      <point x="526" y="85"/>
      <point x="510" y="55"/>
      <point x="452" y="55" type="curve" smooth="yes"/>
      <point x="432" y="55"/>
      <point x="401" y="69"/>
      <point x="394" y="83" type="curve"/>
      <point x="398" y="93"/>
      <point x="400" y="103"/>
      <point x="400" y="113" type="curve" smooth="yes"/>
      <point x="400" y="147"/>
      <point x="375" y="175"/>
      <point x="339" y="175" type="curve" smooth="yes"/>
      <point x="303" y="175"/>
      <point x="275" y="146"/>
      <point x="275" y="105" type="curve" smooth="yes"/>
      <point x="275" y="34"/>
      <point x="353" y="-11"/>
      <point x="449" y="-11" type="curve" smooth="yes"/>
      <point x="564" y="-11"/>
      <point x="648" y="53"/>
      <point x="648" y="143" type="curve" smooth="yes"/>
      <point x="648" y="226"/>
      <point x="570" y="269"/>
      <point x="504" y="307" type="curve" smooth="yes"/>
      <point x="423" y="354"/>
      <point x="424" y="369"/>
      <point x="424" y="393" type="curve" smooth="yes"/>
      <point x="424" y="426"/>
      <point x="468" y="451"/>
      <point x="512" y="483" type="curve" smooth="yes"/>
      <point x="557" y="516"/>
      <point x="602" y="555"/>
      <point x="602" y="618" type="curve" smooth="yes"/>
      <point x="602" y="738"/>
      <point x="468" y="760"/>
      <point x="381" y="760" type="curve" smooth="yes"/>
      <point x="265" y="760"/>
      <point x="136" y="705"/>
      <point x="113" y="500" type="curve"/>
      <point x="33" y="500" type="line"/>
      <point x="24" y="427" type="line"/>
      <point x="104" y="428" type="line"/>
      <point x="95" y="317"/>
      <point x="81" y="103"/>
      <point x="71" y="-11" type="curve" smooth="yes"/>
      <point x="64" y="-89"/>
      <point x="54" y="-200"/>
      <point x="9" y="-200" type="curve" smooth="yes"/>
      <point x="3" y="-200"/>
      <point x="-1" y="-199"/>
      <point x="-4" y="-198" type="curve"/>
      <point x="1" y="-163"/>
      <point x="-23" y="-137"/>
      <point x="-53" y="-136" type="curve" smooth="yes"/>
      <point x="-98" y="-135"/>
      <point x="-115" y="-176"/>
      <point x="-115" y="-199" type="curve" smooth="yes"/>
      <point x="-115" y="-243"/>
      <point x="-81" y="-271"/>
    </contour>
  </outline>
</glyph>
<glyph name="ae" format="2">
  <advance width="731"/>
  <unicode hex="00E6"/>
  <outline>
    <contour>
      <point x="538" y="511" type="curve" smooth="yes"/>
      <point x="479" y="511"/>
      <point x="425" y="484"/>
      <point x="388" y="438" type="curve"/>
      <point x="371" y="495"/>
      <point x="323" y="511"/>
      <point x="260" y="511" type="curve" smooth="yes"/>
      <point x="143" y="511"/>
      <point x="58" y="453"/>
      <point x="54" y="379" type="curve" smooth="yes"/>
      <point x="52" y="343"/>
      <point x="73" y="312"/>
      <point x="112" y="311" type="curve" smooth="yes"/>
      <point x="159" y="310"/>
      <point x="181" y="346"/>
      <point x="183" y="374" type="curve" smooth="yes"/>
      <point x="183" y="383"/>
      <point x="182" y="402"/>
      <point x="173" y="414" type="curve"/>
      <point x="190" y="431"/>
      <point x="214" y="439"/>
      <point x="240" y="440" type="curve" smooth="yes"/>
      <point x="291" y="442"/>
      <point x="308" y="402"/>
      <point x="305" y="350" type="curve" smooth="yes"/>
      <point x="304" y="328"/>
      <point x="303" y="307"/>
      <point x="302" y="285" type="curve"/>
      <point x="168" y="279"/>
      <point x="26" y="249"/>
      <point x="19" y="122" type="curve" smooth="yes"/>
      <point x="15" y="46"/>
      <point x="63" y="-11"/>
      <point x="159" y="-11" type="curve" smooth="yes"/>
      <point x="217" y="-10"/>
      <point x="284" y="4"/>
      <point x="343" y="61" type="curve"/>
      <point x="378" y="15"/>
      <point x="416" y="-12"/>
      <point x="485" y="-11" type="curve" smooth="yes"/>
      <point x="563" y="-11"/>
      <point x="644" y="19"/>
      <point x="701" y="150" type="curve"/>
      <point x="645" y="178" type="line"/>
      <point x="608" y="95"/>
      <point x="545" y="81"/>
      <point x="512" y="81" type="curve" smooth="yes"/>
      <point x="469" y="81"/>
      <point x="420" y="114"/>
      <point x="420" y="228" type="curve"/>
      <point x="538" y="245"/>
      <point x="690" y="276"/>
      <point x="690" y="385" type="curve" smooth="yes"/>
      <point x="690" y="473"/>
      <point x="626" y="511"/>
    </contour>
    <contour>
      <point x="298" y="224" type="curve"/>
      <point x="297" y="188"/>
      <point x="300" y="158"/>
      <point x="306" y="117" type="curve"/>
      <point x="284" y="95"/>
      <point x="239" y="83"/>
      <point x="208" y="83" type="curve" smooth="yes"/>
      <point x="180" y="83"/>
      <point x="149" y="102"/>
      <point x="150" y="139" type="curve" smooth="yes"/>
      <point x="152" y="196"/>
      <point x="223" y="216"/>
    </contour>
    <contour>
      <point x="527" y="445" type="curve" smooth="yes"/>
      <point x="547" y="445"/>
      <point x="573" y="432"/>
      <point x="574" y="399" type="curve" smooth="yes"/>
      <point x="575" y="350"/>
      <point x="532" y="312"/>
      <point x="424" y="292" type="curve"/>
      <point x="432" y="367"/>
      <point x="459" y="445"/>
    </contour>
  </outline>
</glyph>
<glyph name="oslash" format="2">
  <advance width="515"/>
  <unicode hex="00F8"/>
  <anchor x="271" y="500" name="top"/>
  <outline>
    <contour>
      <point x="435" y="570" type="line"/>
      <point x="376" y="487" type="line"/>
      <point x="348" y="503"/>
      <point x="314" y="511"/>
      <point x="279" y="511" type="curve" smooth="yes"/>
      <point x="125" y="511"/>
      <point x="28" y="376"/>
      <point x="28" y="216" type="curve" smooth="yes"/>
      <point x="28" y="154"/>
      <point x="44" y="98"/>
      <point x="77" y="57" type="curve"/>
      <point x="13" y="-33" type="line"/>
      <point x="66" y="-77" type="line"/>
      <point x="131" y="12" type="line"/>
      <point x="158" y="-3"/>
      <point x="191" y="-11"/>
      <point x="229" y="-11" type="curve" smooth="yes"/>
      <point x="385" y="-11"/>
      <point x="480" y="129"/>
      <point x="480" y="288" type="curve" smooth="yes"/>
      <point x="480" y="349"/>
      <point x="464" y="398"/>
      <point x="436" y="436" type="curve"/>
      <point x="499" y="521" type="line"/>
    </contour>
    <contour>
      <point x="351" y="326" type="line"/>
      <point x="354" y="303"/>
      <point x="355" y="279"/>
      <point x="355" y="259" type="curve" smooth="yes"/>
      <point x="353" y="177"/>
      <point x="323" y="55"/>
      <point x="247" y="55" type="curve" smooth="yes"/>
      <point x="220" y="55"/>
      <point x="200" y="71"/>
      <point x="185" y="95" type="curve"/>
    </contour>
    <contour>
      <point x="264" y="445" type="curve" smooth="yes"/>
      <point x="292" y="445"/>
      <point x="312" y="429"/>
      <point x="326" y="405" type="curve"/>
      <point x="159" y="165" type="line"/>
      <point x="154" y="191"/>
      <point x="151" y="219"/>
      <point x="151" y="244" type="curve" smooth="yes"/>
      <point x="151" y="354"/>
      <point x="197" y="445"/>
    </contour>
  </outline>
</glyph>
<glyph name="Hbar" format="2">
  <advance width="807"/>
  <unicode hex="0126"/>
  <outline>
    <contour>
      <point x="757" y="538" type="line"/>
      <point x="52" y="538" type="line"/>
      <point x="50" y="485" type="line"/>
      <point x="755" y="489" type="line"/>
    </contour>
    <component base="H"/>
  </outline>
</glyph>
<glyph name="jcircumflex" format="2">
  <advance width="325"/>
  <unicode hex="0135"/>
  <outline>
    <contour>
      <point x="157" y="511" type="curve" smooth="yes"/>
      <point x="66" y="511"/>
      <point x="19" y="412"/>
      <point x="7" y="355" type="curve"/>
      <point x="62" y="339" type="line"/>
      <point x="79" y="399"/>
      <point x="95" y="418"/>
      <point x="110" y="418" type="curve" smooth="yes"/>
      <point x="117" y="418"/>
      <point x="125" y="414"/>
      <point x="125" y="392" type="curve" smooth="yes"/>
      <point x="125" y="330"/>
      <point x="121" y="233"/>
      <point x="115" y="145" type="curve" smooth="yes"/>
      <point x="109" y="71"/>
      <point x="87" y="-204"/>
      <point x="19" y="-205" type="curve" smooth="yes"/>
      <point x="13" y="-205"/>
      <point x="6" y="-204"/>
      <point x="4" y="-203" type="curve"/>
      <point x="12" y="-162"/>
      <point x="-16" y="-135"/>
      <point x="-45" y="-134" type="curve" smooth="yes"/>
      <point x="-92" y="-132"/>
      <point x="-108" y="-174"/>
      <point x="-108" y="-197" type="curve" smooth="yes"/>
      <point x="-108" y="-241"/>
      <point x="-71" y="-271"/>
      <point x="-10" y="-271" type="curve" smooth="yes"/>
      <point x="183" y="-271"/>
      <point x="227" y="-42"/>
      <point x="243" y="134" type="curve" smooth="yes"/>
      <point x="251" y="226"/>
      <point x="255" y="327"/>
      <point x="254" y="395" type="curve" smooth="yes"/>
      <point x="253" y="466"/>
      <point x="226" y="511"/>
    </contour>
    <contour>
      <point x="200" y="783" type="line"/>
      <point x="190" y="783" type="line"/>
      <point x="21" y="618" type="line"/>
      <point x="56" y="571" type="line"/>
      <point x="179" y="671" type="line"/>
      <point x="180" y="671" type="line"/>
      <point x="293" y="567" type="line"/>
      <point x="337" y="613" type="line"/>
    </contour>
  </outline>
</glyph>
<glyph name="Lslash" format="2">
  <advance width="606"/>
  <unicode hex="0141"/>
  <outline>
    <contour>
      <point x="357" y="700" type="line"/>
      <point x="73" y="700" type="line"/>
      <point x="69" y="623" type="line"/>
      <point x="83" y="624"/>
      <point x="123" y="625"/>
      <point x="144" y="626" type="curve"/>
      <point x="141" y="609"/>
      <point x="137" y="572"/>
      <point x="135" y="536" type="curve" smooth="yes"/>
      <point x="125" y="349" type="line"/>
      <point x="46" y="292" type="line"/>
      <point x="41" y="180" type="line"/>
      <point x="120" y="237" type="line"/>
      <point x="115" y="153" type="line" smooth="yes"/>
      <point x="111" y="72"/>
      <point x="84" y="68"/>
      <point x="40" y="66" type="curve"/>
      <point x="36" y="0" type="line"/>
      <point x="567" y="0" type="line"/>
      <point x="585" y="240" type="line"/>
      <point x="519" y="240" type="line"/>
      <point x="513" y="131"/>
      <point x="462" y="77"/>
      <point x="384" y="76" type="curve" smooth="yes"/>
      <point x="250" y="76" type="line"/>
      <point x="253" y="93"/>
      <point x="256" y="128"/>
      <point x="258" y="164" type="curve" smooth="yes"/>
      <point x="268" y="344" type="line"/>
      <point x="442" y="471" type="line"/>
      <point x="448" y="582" type="line"/>
      <point x="273" y="454" type="line"/>
      <point x="278" y="547" type="line" smooth="yes"/>
      <point x="282" y="628"/>
      <point x="309" y="632"/>
      <point x="354" y="634" type="curve"/>
    </contour>
  </outline>
</glyph>
<glyph name="OE" format="2">
  <advance width="1015"/>
  <unicode hex="0152"/>
  <outline>
    <contour>
      <point x="362" y="-16" type="curve" smooth="yes"/>
      <point x="406" y="-17"/>
      <point x="458" y="-14"/>
      <point x="507" y="0" type="curve"/>
      <point x="952" y="0" type="line"/>
      <point x="970" y="220" type="line"/>
      <point x="904" y="220" type="line"/>
      <point x="898" y="112"/>
      <point x="833" y="76"/>
      <point x="774" y="76" type="curve" smooth="yes"/>
      <point x="640" y="76" type="line"/>
      <point x="644" y="93"/>
      <point x="647" y="128"/>
      <point x="649" y="164" type="curve" smooth="yes"/>
      <point x="657" y="328" type="line"/>
      <point x="666" y="328"/>
      <point x="675" y="329"/>
      <point x="684" y="329" type="curve" smooth="yes"/>
      <point x="738" y="330"/>
      <point x="782" y="325"/>
      <point x="777" y="241" type="curve"/>
      <point x="843" y="241" type="line"/>
      <point x="856" y="484" type="line"/>
      <point x="779" y="484" type="line"/>
      <point x="779" y="459"/>
      <point x="778" y="425"/>
      <point x="779" y="397" type="curve"/>
      <point x="661" y="397" type="line"/>
      <point x="669" y="547" type="line" smooth="yes"/>
      <point x="673" y="625"/>
      <point x="698" y="633"/>
      <point x="740" y="634" type="curve" smooth="yes"/>
      <point x="776" y="635" type="line" smooth="yes"/>
      <point x="831" y="637"/>
      <point x="897" y="615"/>
      <point x="891" y="506" type="curve"/>
      <point x="957" y="506" type="line"/>
      <point x="961" y="700" type="line"/>
      <point x="543" y="700" type="line"/>
      <point x="502" y="711"/>
      <point x="448" y="716"/>
      <point x="416" y="716" type="curve" smooth="yes"/>
      <point x="161" y="716"/>
      <point x="48" y="520"/>
      <point x="39" y="337" type="curve" smooth="yes"/>
      <point x="28" y="139"/>
      <point x="157" y="-13"/>
    </contour>
    <contour>
      <point x="391" y="64" type="curve" smooth="yes"/>
      <point x="257" y="75"/>
      <point x="185" y="192"/>
      <point x="194" y="365" type="curve" smooth="yes"/>
      <point x="201" y="509"/>
      <point x="266" y="638"/>
      <point x="411" y="644" type="curve" smooth="yes"/>
      <point x="457" y="646"/>
      <point x="500" y="636"/>
      <point x="533" y="615" type="curve"/>
      <point x="530" y="596"/>
      <point x="527" y="566"/>
      <point x="526" y="536" type="curve" smooth="yes"/>
      <point x="502" y="78" type="line"/>
      <point x="468" y="66"/>
      <point x="433" y="61"/>
    </contour>
  </outline>
</glyph>
<glyph name="longs" format="2">
  <advance width="353"/>
  <unicode hex="017F"/>
  <outline>
    <contour>
      <point x="329" y="760" type="curve" smooth="yes"/>
      <point x="192" y="760"/>
      <point x="130" y="654"/>
      <point x="113" y="500" type="curve"/>
      <point x="33" y="500" type="line"/>
      <point x="24" y="427" type="line"/>
      <point x="104" y="428" type="line"/>
      <point x="95" y="317"/>
      <point x="81" y="103"/>
      <point x="71" y="-11" type="curve" smooth="yes"/>
      <point x="64" y="-89"/>
      <point x="54" y="-200"/>
      <point x="9" y="-200" type="curve" smooth="yes"/>
      <point x="3" y="-200"/>
      <point x="-1" y="-199"/>
      <point x="-4" y="-198" type="curve"/>
      <point x="1" y="-163"/>
      <point x="-23" y="-137"/>
      <point x="-53" y="-136" type="curve" smooth="yes"/>
      <point x="-98" y="-135"/>
      <point x="-115" y="-176"/>
      <point x="-115" y="-199" type="curve" smooth="yes"/>
      <point x="-115" y="-243"/>
      <point x="-81" y="-271"/>
      <point x="-20" y="-271" type="curve" smooth="yes"/>
      <point x="116" y="-271"/>
      <point x="179" y="-166"/>
      <point x="197" y="-11" type="curve" smooth="yes"/>
      <point x="209" y="93"/>
      <point x="225" y="297"/>
      <point x="237" y="500" type="curve" smooth="yes"/>
      <point x="243" y="608"/>
      <point x="254" y="689"/>
      <point x="299" y="689" type="curve" smooth="yes"/>
      <point x="305" y="689"/>
      <point x="310" y="688"/>
      <point x="312" y="687" type="curve"/>
      <point x="307" y="652"/>
      <point x="331" y="626"/>
      <point x="361" y="625" type="curve" smooth="yes"/>
      <point x="406" y="624"/>
      <point x="423" y="663"/>
      <point x="423" y="686" type="curve" smooth="yes"/>
      <point x="423" y="729"/>
      <point x="389" y="760"/>
    </contour>
  </outline>
</glyph>
<glyph name="Uhorn" format="2">
  <advance width="755"/>
  <unicode hex="01AF"/>
  <anchor x="365" y="0" name="bottom"/>
  <anchor x="492" y="5" name="ogonek"/>
  <anchor x="422" y="700" name="top"/>
  <anchor x="761" y="700" name="topright"/>
  <outline>
    <contour>
      <point x="685" y="700" type="line"/>
      <point x="524" y="700" type="line"/>
      <point x="521" y="623" type="line"/>
      <point x="535" y="624"/>
      <point x="574" y="625"/>
      <point x="596" y="626" type="curve"/>
      <point x="592" y="609"/>
      <point x="589" y="572"/>
      <point x="587" y="536" type="curve" smooth="yes"/>
      <point x="573" y="274" type="line" smooth="yes"/>
      <point x="565" y="126"/>
      <point x="497" y="56"/>
      <point x="387" y="60" type="curve" smooth="yes"/>
      <point x="306" y="63"/>
      <point x="230" y="105"/>
      <point x="239" y="272" type="curve" smooth="yes"/>
      <point x="253" y="547" type="line"/>
      <point x="257" y="628"/>
      <point x="284" y="632"/>
      <point x="329" y="634" type="curve"/>
      <point x="333" y="700" type="line"/>
      <point x="47" y="700" type="line"/>
      <point x="43" y="623" type="line"/>
      <point x="58" y="624"/>
      <point x="97" y="625"/>
      <point x="119" y="626" type="curve"/>
      <point x="115" y="609"/>
      <point x="112" y="572"/>
      <point x="110" y="536" type="curve" smooth="yes"/>
      <point x="97" y="294" type="line" smooth="yes"/>
      <point x="88" y="123"/>
      <point x="142" y="-16"/>
      <point x="367" y="-16" type="curve" smooth="yes"/>
      <point x="527" y="-16"/>
      <point x="651" y="67"/>
      <point x="664" y="297" type="curve" smooth="yes"/>
    </contour>
    <component base="horncomb" xOffset="564" yOffset="203"/>
  </outline>
</glyph>
<glyph name="gstroke" format="2">
  <advance width="520"/>
  <unicode hex="01E5"/>
  <outline>
    <contour>
      <point x="482" y="-62" type="line"/>
      <point x="177" y="-62" type="line"/>
      <point x="175" y="-115" type="line"/>
      <point x="480" y="-111" type="line"/>
    </contour>
    <component base="g"/>
  </outline>
</glyph>
<glyph name="jdotless" format="2">
  <advance width="313"/>
  <unicode hex="0237"/>
  <anchor x="129" y="-275" name="bottom"/>
  <anchor x="170" y="500" name="top"/>
  <outline>
    <contour>
      <point x="157" y="511" type="curve" smooth="yes"/>
      <point x="66" y="511"/>
      <point x="19" y="412"/>
      <point x="7" y="355" type="curve"/>
      <point x="62" y="339" type="line"/>
      <point x="79" y="399"/>
      <point x="95" y="418"/>
      <point x="110" y="418" type="curve" smooth="yes"/>
      <point x="117" y="418"/>
      <point x="125" y="414"/>
      <point x="125" y="392" type="curve" smooth="yes"/>
      <point x="125" y="330"/>
      <point x="121" y="233"/>
      <point x="115" y="145" type="curve" smooth="yes"/>
      <point x="109" y="71"/>
      <point x="87" y="-204"/>
      <point x="19" y="-205" type="curve" smooth="yes"/>
      <point x="13" y="-205"/>
      <point x="6" y="-204"/>
      <point x="4" y="-203" type="curve"/>
      <point x="12" y="-162"/>
      <point x="-16" y="-135"/>
      <point x="-45" y="-134" type="curve" smooth="yes"/>
      <point x="-92" y="-132"/>
      <point x="-108" y="-174"/>
      <point x="-108" y="-197" type="curve" smooth="yes"/>
      <point x="-108" y="-241"/>
      <point x="-71" y="-271"/>
      <point x="-10" y="-271" type="curve" smooth="yes"/>
      <point x="183" y="-271"/>
      <point x="227" y="-42"/>
      <point x="243" y="134" type="curve" smooth="yes"/>
      <point x="251" y="226"/>
      <point x="255" y="327"/>
      <point x="254" y="395" type="curve" smooth="yes"/>
      <point x="253" y="466"/>
      <point x="226" y="511"/>
    </contour>
  </outline>
</glyph>
<glyph name="schwa" format="2">
  <advance width="481"/>
  <unicode hex="0259"/>
  <outline>
    <contour>
      <point x="194" y="-11" type="curve" smooth="yes"/>
      <point x="380" y="-11"/>
      <point x="447" y="164"/>
      <point x="447" y="293" type="curve" smooth="yes"/>
      <point x="447" y="431"/>
      <point x="370" y="511"/>
      <point x="241" y="511" type="curve" smooth="yes"/>
      <point x="174" y="511"/>
      <point x="101" y="490"/>
      <point x="48" y="400" type="curve"/>
      <point x="104" y="373" type="line"/>
      <point x="131" y="407"/>
      <point x="181" y="419"/>
      <point x="212" y="419" type="curve" smooth="yes"/>
      <point x="268" y="419"/>
      <point x="317" y="377"/>
      <point x="309" y="247" type="curve"/>
      <point x="301" y="121"/>
      <point x="267" y="55"/>
      <point x="205" y="55" type="curve" smooth="yes"/>
      <point x="176" y="55"/>
      <point x="142" y="74"/>
      <point x="141" y="121" type="curve" smooth="yes"/>
      <point x="140" y="185"/>
      <point x="191" y="218"/>
      <point x="337" y="236" type="curve"/>
      <point x="328" y="300" type="line"/>
      <point x="198" y="284"/>
      <point x="24" y="251"/>
      <point x="24" y="123" type="curve" smooth="yes"/>
      <point x="24" y="35"/>
      <point x="103" y="-11"/>
    </contour>
  </outline>
</glyph>
<glyph name="circumflexcomb" format="2">
  <unicode hex="0302"/>
  <anchor x="232" y="500" name="_top"/>
  <anchor x="243" y="722" name="top"/>
  <outline>
    <contour>
      <point x="354" y="560" type="line"/>
      <point x="389" y="612" type="line"/>
      <point x="245" y="713" type="line"/>
      <point x="232" y="713" type="line"/>
      <point x="73" y="607" type="line"/>
      <point x="101" y="561" type="line"/>
      <point x="232" y="620" type="line"/>
    </contour>
  </outline>
</glyph>
<glyph name="brevecomb" format="2">
  <unicode hex="0306"/>
  <anchor x="167" y="500" name="_top"/>
  <anchor x="177" y="694" name="top"/>
  <outline>
    <contour>
      <point x="172.238" y="559.377" type="curve" smooth="yes"/>
      <point x="239.177" y="559.377"/>
      <point x="290.414" y="593.259"/>
      <point x="325.122" y="673.42" type="curve"/>
      <point x="278.844" y="693.254" type="line"/>
      <point x="258.184" y="663.503"/>
      <point x="225.954" y="632.1"/>
      <point x="176.37" y="632.1" type="curve" smooth="yes"/>
      <point x="125.96" y="632.1"/>
      <point x="93.73" y="662.677"/>
      <point x="71.418" y="693.254" type="curve"/>
      <point x="21.834" y="669.288" type="line"/>
      <point x="53.237" y="589.954"/>
      <point x="116.87" y="559.377"/>
    </contour>
  </outline>
</glyph>
<glyph name="horncomb" format="2">
  <unicode hex="031B"/>
  <anchor x="197" y="500" name="_topright"/>
  <anchor x="197" y="500" name="topright"/>
  <outline>
    <contour>
      <point x="93" y="435" type="line"/>
      <point x="203" y="435"/>
      <point x="267" y="485"/>
      <point x="284" y="572" type="curve"/>
      <point x="180" y="572" type="line"/>
      <point x="173" y="537"/>
      <point x="153" y="496"/>
      <point x="105" y="496" type="curve"/>
    </contour>
  </outline>
</glyph>
<glyph name="strokeshortcomb" format="2">
  <unicode hex="0335"/>
  <anchor x="274" y="313" name="_center"/>
  <outline>
    <contour>
      <point x="102" y="280" type="line"/>
      <point x="442" y="283" type="line"/>
      <point x="446" y="346" type="line"/>
      <point x="106" y="346" type="line"/>
    </contour>
  </outline>
</glyph>
<glyph name="Delta" format="2">
  <advance width="683"/>
  <unicode hex="0394"/>
  <outline>
    <contour>
      <point x="5" y="0" type="line"/>
      <point x="641" y="0" type="line"/>
      <point x="389" y="716" type="line"/>
      <point x="315" y="716" type="line"/>
    </contour>
    <contour>
      <point x="491" y="70" type="line"/>
      <point x="118" y="71" type="line"/>
      <point x="321" y="561" type="line"/>
    </contour>
  </outline>
</glyph>
<glyph name="mu" format="2">
  <advance width="597"/>
  <unicode hex="03BC"/>
  <outline>
    <contour>
      <point x="115" y="-271" type="curve" smooth="yes"/>
      <point x="163" y="-271"/>
      <point x="181" y="-233"/>
      <point x="183" y="-195" type="curve" smooth="yes"/>
      <point x="185" y="-158"/>
      <point x="157" y="-60"/>
      <point x="157" y="49" type="curve"/>
      <point x="158" y="49" type="line"/>
      <point x="177" y="14"/>
      <point x="207" y="-11"/>
      <point x="250" y="-11" type="curve" smooth="yes"/>
      <point x="290" y="-11"/>
      <point x="324" y="12"/>
      <point x="356" y="59" type="curve"/>
      <point x="357" y="59" type="line"/>
      <point x="366" y="13"/>
      <point x="395" y="-5"/>
      <point x="434" y="-5" type="curve" smooth="yes"/>
      <point x="484" y="-5"/>
      <point x="534" y="35"/>
      <point x="559" y="67" type="curve"/>
      <point x="527" y="109" type="line"/>
      <point x="511" y="95"/>
      <point x="499" y="91"/>
      <point x="490" y="91" type="curve" smooth="yes"/>
      <point x="464" y="91"/>
      <point x="467" y="126"/>
      <point x="468" y="142" type="curve" smooth="yes"/>
      <point x="488" y="500" type="line"/>
      <point x="366" y="500" type="line"/>
      <point x="346" y="116" type="line"/>
      <point x="325" y="92"/>
      <point x="295" y="75"/>
      <point x="264" y="75" type="curve" smooth="yes"/>
      <point x="208" y="75"/>
      <point x="190" y="134"/>
      <point x="195" y="228" type="curve" smooth="yes"/>
      <point x="209" y="500" type="line"/>
      <point x="87" y="500" type="line"/>
      <point x="52" y="-167" type="line" smooth="yes"/>
      <point x="49" y="-229"/>
      <point x="63" y="-271"/>
    </contour>
  </outline>
</glyph>
<glyph name="pi" format="2">
  <advance width="607"/>
  <unicode hex="03C0"/>
  <outline>
    <contour>
      <point x="74" y="-16" type="curve" smooth="yes"/>
      <point x="124" y="-16"/>
      <point x="164" y="16"/>
      <point x="188" y="78" type="curve" smooth="yes"/>
      <point x="215" y="144"/>
      <point x="223" y="297"/>
      <point x="228" y="403" type="curve"/>
      <point x="262" y="399"/>
      <point x="332" y="394"/>
      <point x="369" y="391" type="curve"/>
      <point x="366" y="336"/>
      <point x="358" y="205"/>
      <point x="354" y="136" type="curve" smooth="yes"/>
      <point x="352" y="82"/>
      <point x="345" y="-16"/>
      <point x="451" y="-16" type="curve" smooth="yes"/>
      <point x="500" y="-16"/>
      <point x="543" y="12"/>
      <point x="574" y="48" type="curve"/>
      <point x="546" y="92" type="line"/>
      <point x="536" y="87"/>
      <point x="526" y="83"/>
      <point x="517" y="83" type="curve" smooth="yes"/>
      <point x="499" y="83"/>
      <point x="486" y="96"/>
      <point x="488" y="136" type="curve" smooth="yes"/>
      <point x="492" y="222"/>
      <point x="498" y="317"/>
      <point x="502" y="403" type="curve"/>
      <point x="537" y="419"/>
      <point x="574" y="450"/>
      <point x="593" y="476" type="curve"/>
      <point x="559" y="521" type="line"/>
      <point x="515" y="499"/>
      <point x="481" y="494"/>
      <point x="455" y="494" type="curve" smooth="yes"/>
      <point x="344" y="494"/>
      <point x="291" y="511"/>
      <point x="191" y="511" type="curve" smooth="yes"/>
      <point x="125" y="511"/>
      <point x="67" y="469"/>
      <point x="30" y="426" type="curve"/>
      <point x="59" y="380" type="line"/>
      <point x="92" y="396"/>
      <point x="133" y="403"/>
      <point x="161" y="405" type="curve"/>
      <point x="156" y="305"/>
      <point x="146" y="137"/>
      <point x="117" y="102" type="curve"/>
      <point x="106" y="108"/>
      <point x="91" y="113"/>
      <point x="75" y="113" type="curve" smooth="yes"/>
      <point x="47" y="113"/>
      <point x="11" y="93"/>
      <point x="9" y="49" type="curve" smooth="yes"/>
      <point x="7" y="9"/>
      <point x="38" y="-16"/>
    </contour>
  </outline>
</glyph>
<glyph name="Nje-cy" format="2">
  <advance width="1064"/>
  <unicode hex="040A"/>
  <outline>
    <contour>
      <point x="35" y="0" type="line"/>
      <point x="320" y="0" type="line"/>
      <point x="324" y="77" type="line"/>
      <point x="249" y="74" type="line"/>
      <point x="252" y="91"/>
      <point x="256" y="128"/>
      <point x="257" y="164" type="curve" smooth="yes"/>
      <point x="265" y="323" type="line"/>
      <point x="541" y="326" type="line"/>
      <point x="544" y="402" type="line"/>
      <point x="269" y="402" type="line"/>
      <point x="277" y="547" type="line" smooth="yes"/>
      <point x="282" y="628"/>
      <point x="308" y="632"/>
      <point x="353" y="634" type="curve"/>
      <point x="356" y="700" type="line"/>
      <point x="72" y="700" type="line"/>
      <point x="68" y="623" type="line"/>
      <point x="143" y="626" type="line"/>
      <point x="140" y="609"/>
      <point x="136" y="572"/>
      <point x="134" y="536" type="curve" smooth="yes"/>
      <point x="114" y="153" type="line" smooth="yes"/>
      <point x="110" y="72"/>
      <point x="83" y="68"/>
      <point x="39" y="66" type="curve"/>
    </contour>
    <component base="Softsign-cy" xOffset="415"/>
  </outline>
</glyph>
<glyph name="Be-cy" format="2">
  <advance width="659"/>
  <unicode hex="0411"/>
  <outline>
    <contour>
      <point x="35" y="0" type="line"/>
      <point x="373" y="0" type="line" smooth="yes"/>
      <point x="513" y="0"/>
      <point x="622" y="68"/>
      <point x="627" y="199" type="curve" smooth="yes"/>
      <point x="632" y="321"/>
      <point x="578" y="415"/>
      <point x="330" y="409" type="curve" smooth="yes"/>
      <point x="270" y="407" type="line"/>
      <point x="277" y="547" type="line" smooth="yes"/>
      <point x="282" y="625"/>
      <point x="307" y="634"/>
      <point x="349" y="634" type="curve" smooth="yes"/>
      <point x="415" y="635" type="line" smooth="yes"/>
      <point x="469" y="636"/>
      <point x="535" y="615"/>
      <point x="529" y="506" type="curve"/>
      <point x="595" y="506" type="line"/>
      <point x="600" y="700" type="line"/>
      <point x="72" y="700" type="line"/>
      <point x="67" y="623" type="line"/>
      <point x="82" y="624"/>
      <point x="121" y="625"/>
      <point x="143" y="626" type="curve"/>
      <point x="140" y="609"/>
      <point x="136" y="572"/>
      <point x="134" y="536" type="curve" smooth="yes"/>
      <point x="114" y="153" type="line" smooth="yes"/>
      <point x="110" y="72"/>
      <point x="83" y="68"/>
      <point x="38" y="66" type="curve"/>
    </contour>
    <contour>
      <point x="346" y="72" type="curve" smooth="yes"/>
      <point x="315" y="71"/>
      <point x="284" y="71"/>
      <point x="249" y="71" type="curve"/>
      <point x="252" y="88"/>
      <point x="255" y="123"/>
      <point x="257" y="159" type="curve" smooth="yes"/>
      <point x="266" y="336" type="line"/>
      <point x="292" y="338"/>
      <point x="313" y="338"/>
      <point x="347" y="337" type="curve" smooth="yes"/>
      <point x="417" y="336"/>
      <point x="474" y="311"/>
      <point x="469" y="202" type="curve" smooth="yes"/>
      <point x="465" y="117"/>
      <point x="428" y="76"/>
    </contour>
  </outline>
</glyph>
<glyph name="Pe-cy" format="2">
  <advance width="789"/>
  <unicode hex="041F"/>
  <anchor x="757" y="0" name="bottomright"/>
  <outline>
    <contour>
      <point x="35" y="0" type="line"/>
      <point x="320" y="0" type="line"/>
      <point x="324" y="77" type="line"/>
      <point x="310" y="77"/>
      <point x="270" y="76"/>
      <point x="249" y="74" type="curve"/>
      <point x="252" y="91"/>
      <point x="255" y="128"/>
      <point x="257" y="164" type="curve" smooth="yes"/>
      <point x="277" y="546" type="line"/>
      <point x="283" y="609"/>
      <point x="305" y="622"/>
      <point x="340" y="622" type="curve" smooth="yes"/>
      <point x="546" y="625" type="line"/>
      <point x="540" y="591"/>
      <point x="539" y="556"/>
      <point x="537" y="522" type="curve"/>
      <point x="520" y="153" type="line" smooth="yes"/>
      <point x="516" y="72"/>
      <point x="489" y="68"/>
      <point x="444" y="66" type="curve"/>
      <point x="440" y="0" type="line"/>
      <point x="725" y="0" type="line"/>
      <point x="729" y="77" type="line"/>
      <point x="715" y="77"/>
      <point x="675" y="76"/>
      <point x="654" y="74" type="curve"/>
      <point x="657" y="91"/>
      <point x="661" y="128"/>
      <point x="663" y="164" type="curve" smooth="yes"/>
      <point x="683" y="547" type="line" smooth="yes"/>
      <point x="687" y="628"/>
      <point x="713" y="632"/>
      <point x="758" y="634" type="curve"/>
      <point x="762" y="700" type="line"/>
      <point x="72" y="700" type="line"/>
      <point x="68" y="623" type="line"/>
      <point x="82" y="624"/>
      <point x="122" y="625"/>
      <point x="143" y="626" type="curve"/>
      <point x="140" y="609"/>
      <point x="136" y="572"/>
      <point x="134" y="536" type="curve" smooth="yes"/>
      <point x="114" y="153" type="line" smooth="yes"/>
      <point x="110" y="72"/>
      <point x="83" y="68"/>
      <point x="39" y="66" type="curve"/>
    </contour>
  </outline>
</glyph>
<glyph name="Tse-cy" format="2">
  <advance width="794"/>
  <unicode hex="0426"/>
  <outline>
    <contour>
      <point x="678" y="-177" type="curve"/>
      <point x="751" y="-177" type="line"/>
      <point x="765" y="79" type="line"/>
      <point x="654" y="74" type="line"/>
      <point x="657" y="91"/>
      <point x="661" y="128"/>
      <point x="663" y="164" type="curve" smooth="yes"/>
      <point x="683" y="547" type="line" smooth="yes"/>
      <point x="687" y="628"/>
      <point x="714" y="632"/>
      <point x="758" y="634" type="curve"/>
      <point x="762" y="700" type="line"/>
      <point x="477" y="700" type="line"/>
      <point x="473" y="623" type="line"/>
      <point x="487" y="623"/>
      <point x="527" y="624"/>
      <point x="548" y="626" type="curve"/>
      <point x="545" y="609"/>
      <point x="542" y="572"/>
      <point x="540" y="536" type="curve" smooth="yes"/>
      <point x="520" y="154" type="line"/>
      <point x="514" y="91"/>
      <point x="492" y="78"/>
      <point x="457" y="78" type="curve" smooth="yes"/>
      <point x="251" y="75" type="line"/>
      <point x="257" y="109"/>
      <point x="258" y="144"/>
      <point x="260" y="178" type="curve" smooth="yes"/>
      <point x="277" y="547" type="line" smooth="yes"/>
      <point x="281" y="628"/>
      <point x="308" y="632"/>
      <point x="353" y="634" type="curve"/>
      <point x="357" y="700" type="line"/>
      <point x="72" y="700" type="line"/>
      <point x="68" y="623" type="line"/>
      <point x="82" y="623"/>
      <point x="122" y="624"/>
      <point x="143" y="626" type="curve"/>
      <point x="140" y="609"/>
      <point x="136" y="572"/>
      <point x="134" y="536" type="curve" smooth="yes"/>
      <point x="114" y="153" type="line" smooth="yes"/>
      <point x="110" y="72"/>
      <point x="84" y="68"/>
      <point x="39" y="66" type="curve"/>
      <point x="35" y="0" type="line"/>
      <point x="617" y="0" type="line" smooth="yes"/>
      <point x="675" y="0"/>
      <point x="686" y="-73"/>
    </contour>
  </outline>
</glyph>
<glyph name="Sha-cy" format="2">
  <advance width="1100"/>
  <unicode hex="0428"/>
  <outline>
    <contour>
      <point x="35" y="0" type="line"/>
      <point x="1035" y="0" type="line"/>
      <point x="1040" y="77" type="line"/>
      <point x="1025" y="77"/>
      <point x="986" y="76"/>
      <point x="964" y="74" type="curve"/>
      <point x="967" y="91"/>
      <point x="971" y="128"/>
      <point x="973" y="164" type="curve" smooth="yes"/>
      <point x="993" y="547" type="line" smooth="yes"/>
      <point x="997" y="628"/>
      <point x="1023" y="632"/>
      <point x="1069" y="634" type="curve"/>
      <point x="1072" y="700" type="line"/>
      <point x="785" y="700" type="line"/>
      <point x="781" y="623" type="line"/>
      <point x="795" y="624"/>
      <point x="834" y="625"/>
      <point x="856" y="626" type="curve"/>
      <point x="853" y="609"/>
      <point x="850" y="572"/>
      <point x="848" y="536" type="curve" smooth="yes"/>
      <point x="828" y="165" type="line" smooth="yes"/>
      <point x="824" y="84"/>
      <point x="797" y="79"/>
      <point x="754" y="78" type="curve" smooth="yes"/>
      <point x="608" y="76" type="line"/>
      <point x="611" y="93"/>
      <point x="614" y="129"/>
      <point x="616" y="164" type="curve" smooth="yes"/>
      <point x="636" y="547" type="line" smooth="yes"/>
      <point x="641" y="628"/>
      <point x="667" y="632"/>
      <point x="712" y="634" type="curve"/>
      <point x="716" y="700" type="line"/>
      <point x="429" y="700" type="line"/>
      <point x="424" y="623" type="line"/>
      <point x="438" y="624"/>
      <point x="478" y="625"/>
      <point x="500" y="626" type="curve"/>
      <point x="497" y="609"/>
      <point x="493" y="572"/>
      <point x="491" y="536" type="curve" smooth="yes"/>
      <point x="472" y="165" type="line" smooth="yes"/>
      <point x="467" y="84"/>
      <point x="441" y="81"/>
      <point x="397" y="78" type="curve"/>
      <point x="251" y="76" type="line"/>
      <point x="256" y="103"/>
      <point x="258" y="130"/>
      <point x="259" y="157" type="curve"/>
      <point x="280" y="547" type="line" smooth="yes"/>
      <point x="284" y="628"/>
      <point x="311" y="632"/>
      <point x="356" y="634" type="curve"/>
      <point x="359" y="700" type="line"/>
      <point x="72" y="700" type="line"/>
      <point x="68" y="623" type="line"/>
      <point x="82" y="624"/>
      <point x="122" y="625"/>
      <point x="144" y="626" type="curve"/>
      <point x="140" y="609"/>
      <point x="137" y="572"/>
      <point x="135" y="536" type="curve" smooth="yes"/>
      <point x="115" y="153" type="line" smooth="yes"/>
      <point x="110" y="72"/>
      <point x="84" y="68"/>
      <point x="39" y="66" type="curve"/>
    </contour>
  </outline>
</glyph>
<glyph name="Shcha-cy" format="2">
  <advance width="1104"/>
  <unicode hex="0429"/>
  <outline>
    <contour>
      <point x="988" y="-177" type="curve"/>
      <point x="1061" y="-177" type="line"/>
      <point x="1075" y="79" type="line"/>
      <point x="964" y="74" type="line"/>
      <point x="927" y="0" type="line"/>
      <point x="985" y="0"/>
      <point x="996" y="-73"/>
    </contour>
    <component base="Sha-cy"/>
  </outline>
</glyph>
<glyph name="Hardsign-cy" format="2">
  <advance width="782"/>
  <unicode hex="042A"/>
  <outline>
    <contour>
      <point x="168" y="0" type="line"/>
      <point x="484" y="0" type="line" smooth="yes"/>
      <point x="625" y="0"/>
      <point x="731" y="69"/>
      <point x="738" y="199" type="curve" smooth="yes"/>
      <point x="744" y="305"/>
      <point x="681" y="418"/>
      <point x="441" y="409" type="curve" smooth="yes"/>
      <point x="406" y="407" type="line"/>
      <point x="413" y="547" type="line" smooth="yes"/>
      <point x="417" y="628"/>
      <point x="444" y="632"/>
      <point x="489" y="634" type="curve"/>
      <point x="493" y="700" type="line"/>
      <point x="47" y="700" type="line"/>
      <point x="29" y="474" type="line"/>
      <point x="95" y="474" type="line"/>
      <point x="101" y="582"/>
      <point x="151" y="631"/>
      <point x="227" y="632" type="curve" smooth="yes"/>
      <point x="279" y="632" type="line"/>
      <point x="272" y="605"/>
      <point x="270" y="579"/>
      <point x="269" y="552" type="curve"/>
      <point x="248" y="153" type="line" smooth="yes"/>
      <point x="244" y="72"/>
      <point x="217" y="68"/>
      <point x="172" y="66" type="curve"/>
    </contour>
    <contour>
      <point x="384" y="71" type="curve"/>
      <point x="388" y="88"/>
      <point x="391" y="123"/>
      <point x="393" y="159" type="curve" smooth="yes"/>
      <point x="402" y="336" type="line"/>
      <point x="421" y="336"/>
      <point x="440" y="337"/>
      <point x="459" y="337" type="curve" smooth="yes"/>
      <point x="534" y="339"/>
      <point x="586" y="306"/>
      <point x="581" y="207" type="curve" smooth="yes"/>
      <point x="577" y="128"/>
      <point x="539" y="76"/>
      <point x="458" y="72" type="curve" smooth="yes"/>
      <point x="434" y="71"/>
      <point x="408" y="71"/>
    </contour>
  </outline>
</glyph>
<glyph name="Ereversed-cy" format="2">
  <advance width="702"/>
  <unicode hex="042D"/>
  <anchor x="345" y="700" name="top"/>
  <outline>
    <contour>
      <point x="309" y="-16" type="curve" smooth="yes"/>
      <point x="515" y="-16"/>
      <point x="660" y="141"/>
      <point x="670" y="340" type="curve" smooth="yes"/>
      <point x="679" y="522"/>
      <point x="573" y="716"/>
      <point x="353" y="716" type="curve" smooth="yes"/>
      <point x="288" y="716"/>
      <point x="220" y="699"/>
      <point x="165" y="667" type="curve"/>
      <point x="170" y="709" type="line"/>
      <point x="93" y="709" type="line"/>
      <point x="81" y="490" type="line"/>
      <point x="146" y="490" type="line"/>
      <point x="171" y="595"/>
      <point x="233" y="647"/>
      <point x="323" y="648" type="curve" smooth="yes"/>
      <point x="453" y="648"/>
      <point x="513" y="530"/>
      <point x="517" y="397" type="curve"/>
      <point x="265" y="397" type="line"/>
      <point x="274" y="459" type="line"/>
      <point x="201" y="459" type="line"/>
      <point x="188" y="241" type="line"/>
      <point x="250" y="241" type="line"/>
      <point x="254" y="325"/>
      <point x="299" y="329"/>
      <point x="353" y="329" type="curve" smooth="yes"/>
      <point x="515" y="328" type="line"/>
      <point x="499" y="166"/>
      <point x="418" y="53"/>
      <point x="293" y="53" type="curve" smooth="yes"/>
      <point x="210" y="53"/>
      <point x="120" y="104"/>
      <point x="66" y="188" type="curve"/>
      <point x="16" y="144" type="line"/>
      <point x="106" y="9"/>
      <point x="226" y="-16"/>
    </contour>
  </outline>
</glyph>
<glyph name="be-cy" format="2">
  <advance width="535"/>
  <unicode hex="0431"/>
  <outline>
    <contour>
      <point x="243" y="-11" type="curve" smooth="yes"/>
      <point x="381" y="-11"/>
      <point x="490" y="94"/>
      <point x="495" y="259" type="curve" smooth="yes"/>
      <point x="499" y="406"/>
      <point x="400" y="482"/>
      <point x="292" y="482" type="curve" smooth="yes"/>
      <point x="216" y="481"/>
      <point x="138" y="444"/>
      <point x="97" y="357" type="curve"/>
      <point x="94" y="357" type="line"/>
      <point x="108" y="472"/>
      <point x="158" y="550"/>
      <point x="245" y="578" type="curve" smooth="yes"/>
      <point x="306" y="598"/>
      <point x="375" y="591"/>
      <point x="429" y="606" type="curve" smooth="yes"/>
      <point x="474" y="624"/>
      <point x="492" y="652"/>
      <point x="521" y="754" type="curve"/>
      <point x="477" y="770" type="line"/>
      <point x="459" y="744"/>
      <point x="451" y="737"/>
      <point x="434" y="729" type="curve" smooth="yes"/>
      <point x="383" y="706"/>
      <point x="281" y="718"/>
      <point x="189" y="658" type="curve" smooth="yes"/>
      <point x="73" y="583"/>
      <point x="44" y="447"/>
      <point x="38" y="313" type="curve" smooth="yes"/>
      <point x="27" y="98"/>
      <point x="116" y="-11"/>
    </contour>
    <contour>
      <point x="263" y="55" type="curve" smooth="yes"/>
      <point x="200" y="53"/>
      <point x="177" y="162"/>
      <point x="181" y="263" type="curve" smooth="yes"/>
      <point x="185" y="335"/>
      <point x="220" y="414"/>
      <point x="279" y="415" type="curve" smooth="yes"/>
      <point x="344" y="417"/>
      <point x="360" y="317"/>
      <point x="357" y="235" type="curve" smooth="yes"/>
      <point x="353" y="149"/>
      <point x="335" y="56"/>
    </contour>
  </outline>
</glyph>
<glyph name="ve-cy" format="2">
  <advance width="507"/>
  <unicode hex="0432"/>
  <outline>
    <contour>
      <point x="229" y="-11" type="curve"/>
      <point x="365" y="-11"/>
      <point x="466" y="68"/>
      <point x="466" y="166" type="curve"/>
      <point x="466" y="239"/>
      <point x="411" y="311"/>
      <point x="203" y="259" type="curve"/>
      <point x="210" y="220" type="line"/>
      <point x="302" y="249"/>
      <point x="340" y="200"/>
      <point x="340" y="146" type="curve" smooth="yes"/>
      <point x="340" y="96"/>
      <point x="307" y="62"/>
      <point x="259" y="62" type="curve" smooth="yes"/>
      <point x="200" y="62"/>
      <point x="170" y="115"/>
      <point x="165" y="208" type="curve"/>
      <point x="258" y="232" type="line"/>
      <point x="256" y="252" type="line"/>
      <point x="389" y="281"/>
      <point x="438" y="343"/>
      <point x="438" y="402" type="curve" smooth="yes"/>
      <point x="438" y="474"/>
      <point x="364" y="511"/>
      <point x="285" y="511" type="curve"/>
      <point x="115" y="511"/>
      <point x="27" y="354"/>
      <point x="27" y="205" type="curve" smooth="yes"/>
      <point x="27" y="81"/>
      <point x="86" y="-11"/>
    </contour>
    <contour>
      <point x="167" y="274" type="curve"/>
      <point x="180" y="372"/>
      <point x="224" y="445"/>
      <point x="279" y="445" type="curve"/>
      <point x="304" y="445"/>
      <point x="317" y="431"/>
      <point x="313" y="390" type="curve" smooth="yes"/>
      <point x="308" y="336"/>
      <point x="280" y="301"/>
    </contour>
  </outline>
</glyph>
<glyph name="ge-cy" format="2">
  <advance width="443"/>
  <unicode hex="0433"/>
  <anchor x="406" y="0" name="bottomright"/>
  <anchor x="216" y="250" name="center"/>
  <anchor x="229" y="500" name="top"/>
  <outline>
    <contour>
      <point x="196" y="-16" type="curve" smooth="yes"/>
      <point x="312" y="-16"/>
      <point x="378" y="50"/>
      <point x="428" y="118" type="curve"/>
      <point x="380" y="157" type="line"/>
      <point x="337" y="105"/>
      <point x="294" y="78"/>
      <point x="247" y="78" type="curve" smooth="yes"/>
      <point x="213" y="78"/>
      <point x="168" y="94"/>
      <point x="172" y="146" type="curve" smooth="yes"/>
      <point x="175" y="182"/>
      <point x="205" y="209"/>
      <point x="270" y="245" type="curve" smooth="yes"/>
      <point x="357" y="293"/>
      <point x="408" y="329"/>
      <point x="408" y="399" type="curve" smooth="yes"/>
      <point x="408" y="455"/>
      <point x="372" y="512"/>
      <point x="269" y="512" type="curve" smooth="yes"/>
      <point x="170" y="512"/>
      <point x="91" y="461"/>
      <point x="32" y="382" type="curve"/>
      <point x="80" y="346" type="line"/>
      <point x="123" y="396"/>
      <point x="164" y="422"/>
      <point x="217" y="422" type="curve" smooth="yes"/>
      <point x="254" y="422"/>
      <point x="273" y="400"/>
      <point x="272" y="369" type="curve" smooth="yes"/>
      <point x="270" y="330"/>
      <point x="241" y="308"/>
      <point x="194" y="280" type="curve" smooth="yes"/>
      <point x="81" y="213"/>
      <point x="33" y="173"/>
      <point x="33" y="105" type="curve" smooth="yes"/>
      <point x="33" y="20"/>
      <point x="121" y="-16"/>
    </contour>
  </outline>
</glyph>
<glyph name="de-cy" format="2">
  <advance width="524"/>
  <unicode hex="0434"/>
  <outline>
    <contour>
      <point x="232" y="-11" type="curve" smooth="yes"/>
      <point x="357" y="-11"/>
      <point x="482" y="70"/>
      <point x="493" y="299" type="curve" smooth="yes"/>
      <point x="507" y="560"/>
      <point x="417" y="759"/>
      <point x="241" y="759" type="curve" smooth="yes"/>
      <point x="185" y="759"/>
      <point x="144" y="735"/>
      <point x="98" y="699" type="curve"/>
      <point x="128" y="661" type="line"/>
      <point x="162" y="684"/>
      <point x="194" y="695"/>
      <point x="225" y="695" type="curve" smooth="yes"/>
      <point x="305" y="695"/>
      <point x="366" y="615"/>
      <point x="374" y="449" type="curve"/>
      <point x="348" y="486"/>
      <point x="317" y="499"/>
      <point x="278" y="500" type="curve" smooth="yes"/>
      <point x="147" y="503"/>
      <point x="30" y="384"/>
      <point x="27" y="209" type="curve" smooth="yes"/>
      <point x="25" y="69"/>
      <point x="115" y="-11"/>
    </contour>
    <contour>
      <point x="243" y="55" type="curve" smooth="yes"/>
      <point x="199" y="55"/>
      <point x="160" y="99"/>
      <point x="162" y="209" type="curve" smooth="yes"/>
      <point x="165" y="350"/>
      <point x="224" y="431"/>
      <point x="292" y="431" type="curve" smooth="yes"/>
      <point x="359" y="431"/>
      <point x="374" y="350"/>
      <point x="366" y="270" type="curve" smooth="yes"/>
      <point x="353" y="125"/>
      <point x="305" y="55"/>
    </contour>
  </outline>
</glyph>
<glyph name="zhe-cy" format="2">
  <advance width="929"/>
  <unicode hex="0436"/>
  <anchor x="896" y="0" name="bottomright"/>
  <anchor x="478" y="500" name="top"/>
  <outline>
    <contour>
      <point x="156" y="-11" type="curve" smooth="yes"/>
      <point x="280" y="-11"/>
      <point x="349" y="130"/>
      <point x="349" y="293" type="curve" smooth="yes"/>
      <point x="349" y="451"/>
      <point x="280" y="510"/>
      <point x="193" y="511" type="curve"/>
      <point x="126" y="510"/>
      <point x="69" y="478"/>
      <point x="26" y="348" type="curve"/>
      <point x="75" y="326" type="line"/>
      <point x="103" y="399"/>
      <point x="138" y="434"/>
      <point x="168" y="434" type="curve" smooth="yes"/>
      <point x="208" y="434"/>
      <point x="238" y="376"/>
      <point x="236" y="267" type="curve" smooth="yes"/>
      <point x="234" y="188"/>
      <point x="215" y="36"/>
      <point x="151" y="36" type="curve" smooth="yes"/>
      <point x="128" y="36"/>
      <point x="114" y="49"/>
      <point x="109" y="77" type="curve"/>
      <point x="129" y="89"/>
      <point x="138" y="102"/>
      <point x="138" y="125" type="curve" smooth="yes"/>
      <point x="138" y="148"/>
      <point x="114" y="170"/>
      <point x="83" y="170" type="curve" smooth="yes"/>
      <point x="48" y="170"/>
      <point x="29" y="145"/>
      <point x="29" y="109" type="curve" smooth="yes"/>
      <point x="29" y="36"/>
      <point x="87" y="-11"/>
    </contour>
    <contour>
      <point x="736" y="-11" type="curve"/>
      <point x="803" y="-10"/>
      <point x="860" y="22"/>
      <point x="903" y="152" type="curve"/>
      <point x="854" y="174" type="line"/>
      <point x="826" y="101"/>
      <point x="791" y="66"/>
      <point x="761" y="66" type="curve" smooth="yes"/>
      <point x="722" y="66"/>
      <point x="691" y="124"/>
      <point x="693" y="233" type="curve" smooth="yes"/>
      <point x="695" y="313"/>
      <point x="714" y="464"/>
      <point x="778" y="464" type="curve" smooth="yes"/>
      <point x="801" y="464"/>
      <point x="815" y="451"/>
      <point x="820" y="423" type="curve"/>
      <point x="800" y="411"/>
      <point x="791" y="398"/>
      <point x="791" y="375" type="curve" smooth="yes"/>
      <point x="791" y="352"/>
      <point x="815" y="330"/>
      <point x="847" y="330" type="curve" smooth="yes"/>
      <point x="881" y="330"/>
      <point x="900" y="355"/>
      <point x="900" y="391" type="curve" smooth="yes"/>
      <point x="900" y="464"/>
      <point x="842" y="511"/>
      <point x="773" y="511" type="curve" smooth="yes"/>
      <point x="649" y="511"/>
      <point x="580" y="370"/>
      <point x="580" y="207" type="curve" smooth="yes"/>
      <point x="580" y="49"/>
      <point x="649" y="-10"/>
    </contour>
    <contour>
      <point x="385" y="0" type="curve"/>
      <point x="515" y="0" type="line"/>
      <point x="512" y="23"/>
      <point x="511" y="46"/>
      <point x="511" y="65" type="curve"/>
      <point x="508" y="166"/>
      <point x="542" y="358"/>
      <point x="542" y="464" type="curve"/>
      <point x="542" y="478"/>
      <point x="542" y="485"/>
      <point x="539" y="500" type="curve"/>
      <point x="412" y="500" type="line"/>
      <point x="415" y="477"/>
      <point x="416" y="454"/>
      <point x="417" y="435" type="curve"/>
      <point x="417" y="367"/>
      <point x="408" y="303"/>
      <point x="400" y="232" type="curve"/>
      <point x="386" y="111"/>
      <point x="383" y="68"/>
      <point x="383" y="36" type="curve"/>
      <point x="383" y="22"/>
      <point x="383" y="15"/>
    </contour>
    <contour>
      <point x="317" y="216" type="line"/>
      <point x="600" y="218" type="line"/>
      <point x="604" y="286" type="line"/>
      <point x="323" y="286" type="line"/>
    </contour>
  </outline>
</glyph>
<glyph name="ze-cy" format="2">
  <advance width="484"/>
  <unicode hex="0437"/>
  <anchor x="228" y="0" name="bottom"/>
  <anchor x="254" y="500" name="top"/>
  <outline>
    <contour>
      <point x="209" y="-17" type="curve" smooth="yes"/>
      <point x="377" y="-17"/>
      <point x="443" y="69"/>
      <point x="443" y="153" type="curve" smooth="yes"/>
      <point x="443" y="214"/>
      <point x="399" y="265"/>
      <point x="302" y="275" type="curve"/>
      <point x="302" y="278" type="line"/>
      <point x="372" y="299"/>
      <point x="422" y="334"/>
      <point x="422" y="394" type="curve" smooth="yes"/>
      <point x="422" y="471"/>
      <point x="347" y="512"/>
      <point x="234" y="512" type="curve" smooth="yes"/>
      <point x="124" y="512"/>
      <point x="46" y="452"/>
      <point x="49" y="388" type="curve" smooth="yes"/>
      <point x="51" y="354"/>
      <point x="76" y="333"/>
      <point x="109" y="333" type="curve" smooth="yes"/>
      <point x="145" y="333"/>
      <point x="169" y="358"/>
      <point x="169" y="385" type="curve" smooth="yes"/>
      <point x="169" y="405"/>
      <point x="166" y="416"/>
      <point x="154" y="428" type="curve"/>
      <point x="165" y="443"/>
      <point x="196" y="452"/>
      <point x="221" y="452" type="curve" smooth="yes"/>
      <point x="260" y="452"/>
      <point x="291" y="433"/>
      <point x="291" y="385" type="curve" smooth="yes"/>
      <point x="291" y="330"/>
      <point x="262" y="304"/>
      <point x="144" y="279" type="curve"/>
      <point x="153" y="228" type="line"/>
      <point x="265" y="248"/>
      <point x="305" y="210"/>
      <point x="305" y="143" type="curve" smooth="yes"/>
      <point x="305" y="81"/>
      <point x="270" y="42"/>
      <point x="205" y="42" type="curve" smooth="yes"/>
      <point x="172" y="42"/>
      <point x="135" y="61"/>
      <point x="131" y="79" type="curve"/>
      <point x="137" y="90"/>
      <point x="142" y="103"/>
      <point x="142" y="117" type="curve" smooth="yes"/>
      <point x="142" y="145"/>
      <point x="127" y="178"/>
      <point x="82" y="178" type="curve" smooth="yes"/>
      <point x="40" y="178"/>
      <point x="15" y="146"/>
      <point x="13" y="111" type="curve" smooth="yes"/>
      <point x="10" y="46"/>
      <point x="89" y="-17"/>
    </contour>
  </outline>
</glyph>
<glyph name="el-cy" format="2">
  <advance width="631"/>
  <unicode hex="043B"/>
  <outline>
    <contour>
      <point x="83" y="-11" type="curve" smooth="yes"/>
      <point x="241" y="-11"/>
      <point x="312" y="185"/>
      <point x="357" y="411" type="curve"/>
      <point x="359" y="424"/>
      <point x="372" y="430"/>
      <point x="383" y="431" type="curve"/>
      <point x="411" y="432" type="line"/>
      <point x="410" y="296"/>
      <point x="381" y="160"/>
      <point x="381" y="90" type="curve" smooth="yes"/>
      <point x="381" y="9"/>
      <point x="430" y="-11"/>
      <point x="473" y="-11" type="curve" smooth="yes"/>
      <point x="561" y="-11"/>
      <point x="614" y="88"/>
      <point x="625" y="145" type="curve"/>
      <point x="571" y="161" type="line"/>
      <point x="554" y="101"/>
      <point x="538" y="82"/>
      <point x="523" y="82" type="curve" smooth="yes"/>
      <point x="516" y="82"/>
      <point x="509" y="86"/>
      <point x="509" y="108" type="curve" smooth="yes"/>
      <point x="509" y="157"/>
      <point x="546" y="366"/>
      <point x="546" y="452" type="curve" smooth="yes"/>
      <point x="546" y="465"/>
      <point x="546" y="472"/>
      <point x="543" y="500" type="curve"/>
      <point x="189" y="500" type="line"/>
      <point x="183" y="430" type="line"/>
      <point x="275" y="431" type="line"/>
      <point x="249" y="269"/>
      <point x="200" y="93"/>
      <point x="120" y="72" type="curve"/>
      <point x="121" y="76"/>
      <point x="121" y="80"/>
      <point x="121" y="84" type="curve" smooth="yes"/>
      <point x="121" y="114"/>
      <point x="97" y="134"/>
      <point x="64" y="134" type="curve" smooth="yes"/>
      <point x="32" y="134"/>
      <point x="0" y="104"/>
      <point x="0" y="64" type="curve" smooth="yes"/>
      <point x="0" y="22"/>
      <point x="34" y="-11"/>
    </contour>
  </outline>
</glyph>
<glyph name="em-cy" format="2">
  <advance width="877"/>
  <unicode hex="043C"/>
  <outline>
    <contour>
      <point x="85" y="-11" type="curve" smooth="yes"/>
      <point x="213" y="-11"/>
      <point x="268" y="188"/>
      <point x="318" y="418" type="curve"/>
      <point x="333" y="418" type="line"/>
      <point x="327" y="350"/>
      <point x="324" y="198"/>
      <point x="329" y="123" type="curve" smooth="yes"/>
      <point x="333" y="24"/>
      <point x="357" y="-11"/>
      <point x="404" y="-11" type="curve" smooth="yes"/>
      <point x="500" y="-11"/>
      <point x="544" y="95"/>
      <point x="651" y="418" type="curve"/>
      <point x="661" y="418" type="line"/>
      <point x="643" y="244"/>
      <point x="626" y="143"/>
      <point x="626" y="93" type="curve" smooth="yes"/>
      <point x="626" y="9"/>
      <point x="675" y="-11"/>
      <point x="716" y="-11" type="curve" smooth="yes"/>
      <point x="806" y="-11"/>
      <point x="859" y="88"/>
      <point x="871" y="145" type="curve"/>
      <point x="816" y="161" type="line"/>
      <point x="799" y="101"/>
      <point x="783" y="82"/>
      <point x="768" y="82" type="curve" smooth="yes"/>
      <point x="761" y="82"/>
      <point x="754" y="86"/>
      <point x="754" y="107" type="curve" smooth="yes"/>
      <point x="754" y="157"/>
      <point x="791" y="366"/>
      <point x="791" y="452" type="curve" smooth="yes"/>
      <point x="791" y="465"/>
      <point x="791" y="472"/>
      <point x="788" y="500" type="curve"/>
      <point x="610" y="500" type="line"/>
      <point x="534" y="232"/>
      <point x="480" y="107"/>
      <point x="463" y="107" type="curve" smooth="yes"/>
      <point x="454" y="107"/>
      <point x="451" y="120"/>
      <point x="449" y="145" type="curve" smooth="yes"/>
      <point x="445" y="224"/>
      <point x="441" y="316"/>
      <point x="443" y="407" type="curve" smooth="yes"/>
      <point x="443" y="441"/>
      <point x="440" y="478"/>
      <point x="434" y="500" type="curve"/>
      <point x="148" y="500" type="line"/>
      <point x="143" y="430" type="line"/>
      <point x="252" y="430" type="line"/>
      <point x="228" y="271"/>
      <point x="180" y="97"/>
      <point x="121" y="73" type="curve"/>
      <point x="122" y="77"/>
      <point x="122" y="80"/>
      <point x="122" y="83" type="curve" smooth="yes"/>
      <point x="122" y="114"/>
      <point x="98" y="134"/>
      <point x="68" y="134" type="curve" smooth="yes"/>
      <point x="32" y="134"/>
      <point x="0" y="104"/>
      <point x="0" y="64" type="curve" smooth="yes"/>
      <point x="0" y="22"/>
      <point x="34" y="-11"/>
    </contour>
  </outline>
</glyph>
<glyph name="ef-cy" format="2">
  <advance width="776"/>
  <unicode hex="0444"/>
  <outline>
    <contour>
      <point x="225" y="-255" type="line"/>
      <point x="478" y="-255" type="line"/>
      <point x="478" y="-179" type="line"/>
      <point x="464" y="-179"/>
      <point x="433" y="-180"/>
      <point x="412" y="-182" type="curve"/>
      <point x="416" y="-152"/>
      <point x="418" y="-111"/>
      <point x="419" y="-92" type="curve"/>
      <point x="425" y="38"/>
      <point x="439" y="274"/>
      <point x="474" y="576" type="curve" smooth="yes"/>
      <point x="481" y="634"/>
      <point x="488" y="693"/>
      <point x="496" y="755" type="curve"/>
      <point x="441" y="755" type="line"/>
      <point x="427" y="742"/>
      <point x="383" y="725"/>
      <point x="290" y="725" type="curve"/>
      <point x="286" y="649" type="line"/>
      <point x="304" y="650"/>
      <point x="341" y="651"/>
      <point x="362" y="652" type="curve"/>
      <point x="357" y="623"/>
      <point x="353" y="585"/>
      <point x="349" y="559" type="curve" smooth="yes"/>
      <point x="321" y="349"/>
      <point x="306" y="120"/>
      <point x="288" y="-100" type="curve" smooth="yes"/>
      <point x="283" y="-152"/>
      <point x="274" y="-190"/>
      <point x="225" y="-190" type="curve"/>
    </contour>
    <contour>
      <point x="229" y="-11" type="curve" smooth="yes"/>
      <point x="275" y="-11"/>
      <point x="315" y="1"/>
      <point x="350" y="21" type="curve"/>
      <point x="331" y="103" type="line"/>
      <point x="315" y="76"/>
      <point x="288" y="55"/>
      <point x="255" y="55" type="curve" smooth="yes"/>
      <point x="181" y="55"/>
      <point x="164" y="164"/>
      <point x="164" y="244" type="curve" smooth="yes"/>
      <point x="164" y="354"/>
      <point x="210" y="446"/>
      <point x="284" y="445" type="curve" smooth="yes"/>
      <point x="322" y="445"/>
      <point x="340" y="421"/>
      <point x="350" y="395" type="curve"/>
      <point x="371" y="470" type="line"/>
      <point x="344" y="497"/>
      <point x="317" y="511"/>
      <point x="271" y="511" type="curve" smooth="yes"/>
      <point x="130" y="511"/>
      <point x="28" y="376"/>
      <point x="28" y="216" type="curve" smooth="yes"/>
      <point x="28" y="91"/>
      <point x="94" y="-11"/>
    </contour>
    <contour>
      <point x="492" y="-11" type="curve" smooth="yes"/>
      <point x="646" y="-11"/>
      <point x="741" y="129"/>
      <point x="741" y="288" type="curve" smooth="yes"/>
      <point x="741" y="430"/>
      <point x="651" y="511"/>
      <point x="537" y="511" type="curve" smooth="yes"/>
      <point x="472" y="511"/>
      <point x="415" y="485"/>
      <point x="373" y="442" type="curve"/>
      <point x="407" y="383" type="line"/>
      <point x="429" y="420"/>
      <point x="477" y="445"/>
      <point x="516" y="445" type="curve" smooth="yes"/>
      <point x="598" y="444"/>
      <point x="605" y="322"/>
      <point x="603" y="259" type="curve" smooth="yes"/>
      <point x="600" y="177"/>
      <point x="571" y="55"/>
      <point x="492" y="55" type="curve" smooth="yes"/>
      <point x="453" y="55"/>
      <point x="420" y="85"/>
      <point x="388" y="126" type="curve"/>
      <point x="356" y="47" type="line"/>
      <point x="387" y="11"/>
      <point x="431" y="-11"/>
    </contour>
  </outline>
</glyph>
<glyph name="sha-cy" format="2">
  <advance width="878"/>
  <unicode hex="0448"/>
  <outline>
    <contour>
      <point x="219" y="-11" type="curve" smooth="yes"/>
      <point x="276" y="-11"/>
      <point x="340" y="20"/>
      <point x="387" y="140" type="curve"/>
      <point x="388" y="140" type="line"/>
      <point x="386" y="127"/>
      <point x="385" y="114"/>
      <point x="385" y="103" type="curve" smooth="yes"/>
      <point x="385" y="31"/>
      <point x="419" y="-11"/>
      <point x="483" y="-11" type="curve" smooth="yes"/>
      <point x="541" y="-11"/>
      <point x="610" y="20"/>
      <point x="657" y="140" type="curve"/>
      <point x="658" y="140" type="line"/>
      <point x="655" y="117"/>
      <point x="652" y="106"/>
      <point x="652" y="80" type="curve" smooth="yes"/>
      <point x="652" y="9"/>
      <point x="693" y="-11"/>
      <point x="736" y="-11" type="curve" smooth="yes"/>
      <point x="824" y="-11"/>
      <point x="859" y="88"/>
      <point x="870" y="145" type="curve"/>
      <point x="816" y="161" type="line"/>
      <point x="799" y="101"/>
      <point x="783" y="82"/>
      <point x="768" y="82" type="curve" smooth="yes"/>
      <point x="760" y="82"/>
      <point x="753" y="86"/>
      <point x="753" y="108" type="curve" smooth="yes"/>
      <point x="753" y="133"/>
      <point x="763" y="201"/>
      <point x="772" y="273" type="curve" smooth="yes"/>
      <point x="781" y="340"/>
      <point x="790" y="410"/>
      <point x="790" y="452" type="curve" smooth="yes"/>
      <point x="790" y="465"/>
      <point x="790" y="472"/>
      <point x="787" y="500" type="curve"/>
      <point x="658" y="500" type="line"/>
      <point x="659" y="484"/>
      <point x="661" y="446"/>
      <point x="661" y="428" type="curve" smooth="yes"/>
      <point x="661" y="288"/>
      <point x="583" y="81"/>
      <point x="522" y="81" type="curve" smooth="yes"/>
      <point x="502" y="81"/>
      <point x="494" y="93"/>
      <point x="494" y="123" type="curve" smooth="yes"/>
      <point x="494" y="185"/>
      <point x="518" y="319"/>
      <point x="518" y="433" type="curve" smooth="yes"/>
      <point x="518" y="445"/>
      <point x="518" y="472"/>
      <point x="515" y="500" type="curve"/>
      <point x="385" y="500" type="line"/>
      <point x="387" y="475"/>
      <point x="389" y="441"/>
      <point x="389" y="423" type="curve" smooth="yes"/>
      <point x="389" y="283"/>
      <point x="315" y="81"/>
      <point x="254" y="81" type="curve" smooth="yes"/>
      <point x="234" y="81"/>
      <point x="226" y="93"/>
      <point x="226" y="123" type="curve" smooth="yes"/>
      <point x="226" y="185"/>
      <point x="251" y="319"/>
      <point x="251" y="398" type="curve" smooth="yes"/>
      <point x="251" y="469"/>
      <point x="231" y="511"/>
      <point x="157" y="511" type="curve" smooth="yes"/>
      <point x="67" y="511"/>
      <point x="17" y="412"/>
      <point x="6" y="355" type="curve"/>
      <point x="60" y="339" type="line"/>
      <point x="77" y="399"/>
      <point x="93" y="418"/>
      <point x="108" y="418" type="curve" smooth="yes"/>
      <point x="116" y="418"/>
      <point x="124" y="414"/>
      <point x="124" y="392" type="curve" smooth="yes"/>
      <point x="124" y="319"/>
      <point x="99" y="216"/>
      <point x="99" y="143" type="curve" smooth="yes"/>
      <point x="99" y="49"/>
      <point x="134" y="-11"/>
    </contour>
  </outline>
</glyph>
<glyph name="shcha-cy" format="2">
  <advance width="919"/>
  <unicode hex="0449"/>
  <outline>
    <contour>
      <point x="772" y="-200" type="line"/>
      <point x="864" y="-126"/>
      <point x="886" y="-55"/>
      <point x="849" y="5" type="curve"/>
      <point x="837" y="25"/>
      <point x="837" y="47"/>
      <point x="845" y="69" type="curve"/>
      <point x="864" y="136" type="line"/>
      <point x="824" y="151" type="line"/>
      <point x="779" y="69" type="line"/>
      <point x="779" y="0" type="line"/>
      <point x="789" y="-3" type="line"/>
      <point x="777" y="-28"/>
      <point x="771" y="-39"/>
      <point x="774" y="-73" type="curve" smooth="yes"/>
      <point x="776" y="-98"/>
      <point x="772" y="-118"/>
      <point x="734" y="-162" type="curve"/>
    </contour>
    <component base="sha-cy"/>
  </outline>
</glyph>
<glyph name="ereversed-cy" format="2">
  <advance width="544"/>
  <unicode hex="044D"/>
  <anchor x="285" y="500" name="top"/>
  <outline>
    <contour>
      <point x="215" y="-16" type="curve" smooth="yes"/>
      <point x="394" y="-16"/>
      <point x="501" y="110"/>
      <point x="509" y="261" type="curve" smooth="yes"/>
      <point x="518" y="426"/>
      <point x="412" y="515"/>
      <point x="295" y="515" type="curve" smooth="yes"/>
      <point x="244" y="515"/>
      <point x="191" y="497"/>
      <point x="146" y="461" type="curve"/>
      <point x="151" y="511" type="line"/>
      <point x="75" y="511" type="line"/>
      <point x="65" y="334" type="line"/>
      <point x="130" y="334" type="line"/>
      <point x="143" y="391"/>
      <point x="188" y="427"/>
      <point x="254" y="427" type="curve" smooth="yes"/>
      <point x="334" y="427"/>
      <point x="381" y="373"/>
      <point x="374" y="240" type="curve" smooth="yes"/>
      <point x="368" y="123"/>
      <point x="319" y="53"/>
      <point x="232" y="51" type="curve" smooth="yes"/>
      <point x="195" y="50"/>
      <point x="166" y="59"/>
      <point x="146" y="87" type="curve"/>
      <point x="155" y="101"/>
      <point x="160" y="119"/>
      <point x="161" y="131" type="curve" smooth="yes"/>
      <point x="162" y="159"/>
      <point x="147" y="196"/>
      <point x="96" y="196" type="curve" smooth="yes"/>
      <point x="53" y="196"/>
      <point x="27" y="160"/>
      <point x="25" y="121" type="curve" smooth="yes"/>
      <point x="22" y="51"/>
      <point x="83" y="-16"/>
    </contour>
    <contour>
      <point x="165" y="224" type="line"/>
      <point x="386" y="226" type="line"/>
      <point x="384" y="293" type="line"/>
      <point x="169" y="293" type="line"/>
    </contour>
  </outline>
</glyph>
<glyph name="ia-cy" format="2">
  <advance width="609"/>
  <unicode hex="044F"/>
  <outline>
    <contour>
      <point x="443" y="-11" type="curve"/>
      <point x="539" y="-9"/>
      <point x="583" y="76"/>
      <point x="603" y="145" type="curve"/>
      <point x="549" y="161" type="line"/>
      <point x="535" y="108"/>
      <point x="512" y="82"/>
      <point x="498" y="82" type="curve" smooth="yes"/>
      <point x="489" y="82"/>
      <point x="483" y="93"/>
      <point x="486" y="118" type="curve" smooth="yes"/>
      <point x="499" y="222"/>
      <point x="530" y="414"/>
      <point x="529" y="503" type="curve"/>
      <point x="462" y="509"/>
      <point x="431" y="512"/>
      <point x="366" y="512" type="curve"/>
      <point x="259" y="512"/>
      <point x="132" y="460"/>
      <point x="127" y="345" type="curve" smooth="yes"/>
      <point x="125" y="260"/>
      <point x="187" y="206"/>
      <point x="261" y="191" type="curve"/>
      <point x="260" y="177" type="line"/>
      <point x="307" y="175"/>
      <point x="355" y="180"/>
      <point x="410" y="189" type="curve"/>
      <point x="414" y="259" type="line"/>
      <point x="369" y="247"/>
      <point x="345" y="243"/>
      <point x="320" y="243" type="curve"/>
      <point x="271" y="243"/>
      <point x="247" y="278"/>
      <point x="248" y="332" type="curve" smooth="yes"/>
      <point x="249" y="401"/>
      <point x="291" y="439"/>
      <point x="349" y="439" type="curve" smooth="yes"/>
      <point x="364" y="439"/>
      <point x="379" y="437"/>
      <point x="396" y="433" type="curve"/>
      <point x="392" y="387"/>
      <point x="391" y="333"/>
      <point x="361" y="141" type="curve" smooth="yes"/>
      <point x="348" y="54"/>
      <point x="368" y="-11"/>
    </contour>
    <contour>
      <point x="140" y="-10" type="curve" smooth="yes"/>
      <point x="194" y="-10"/>
      <point x="222" y="19"/>
      <point x="246" y="95" type="curve" smooth="yes"/>
      <point x="269" y="167"/>
      <point x="281" y="176"/>
      <point x="310" y="177" type="curve"/>
      <point x="320" y="219" type="line"/>
      <point x="205" y="243"/>
      <point x="162" y="197"/>
      <point x="147" y="138" type="curve" smooth="yes"/>
      <point x="135" y="87"/>
      <point x="125" y="66"/>
      <point x="109" y="66" type="curve" smooth="yes"/>
      <point x="90" y="66"/>
      <point x="74" y="91"/>
      <point x="60" y="131" type="curve"/>
      <point x="10" y="113" type="line"/>
      <point x="34" y="32"/>
      <point x="76" y="-10"/>
    </contour>
  </outline>
</glyph>
<glyph name="dje-cy" format="2">
  <advance width="577"/>
  <unicode hex="0452"/>
  <outline>
    <contour>
      <point x="289" y="-234" type="curve" smooth="yes"/>
      <point x="412" y="-234"/>
      <point x="489" y="-108"/>
      <point x="502" y="38" type="curve" smooth="yes"/>
      <point x="512" y="154"/>
      <point x="519" y="266"/>
      <point x="517" y="317" type="curve" smooth="yes"/>
      <point x="513" y="420"/>
      <point x="489" y="471"/>
      <point x="405" y="471" type="curve" smooth="yes"/>
      <point x="356" y="471"/>
      <point x="267" y="436"/>
      <point x="218" y="300" type="curve"/>
      <point x="217" y="300" type="line"/>
      <point x="235" y="376"/>
      <point x="253" y="519"/>
      <point x="257" y="551" type="curve" smooth="yes"/>
      <point x="262" y="591"/>
      <point x="274" y="697"/>
      <point x="281" y="755" type="curve"/>
      <point x="227" y="755" type="line"/>
      <point x="213" y="742"/>
      <point x="168" y="725"/>
      <point x="75" y="725" type="curve"/>
      <point x="71" y="649" type="line"/>
      <point x="86" y="650"/>
      <point x="120" y="651"/>
      <point x="141" y="652" type="curve"/>
      <point x="135" y="625"/>
      <point x="131" y="582"/>
      <point x="128" y="559" type="curve" smooth="yes"/>
      <point x="114" y="440"/>
      <point x="97" y="212"/>
      <point x="97" y="48" type="curve" smooth="yes"/>
      <point x="97" y="35"/>
      <point x="97" y="28"/>
      <point x="100" y="0" type="curve"/>
      <point x="228" y="0" type="line"/>
      <point x="227" y="16"/>
      <point x="225" y="54"/>
      <point x="225" y="83" type="curve" smooth="yes"/>
      <point x="225" y="195"/>
      <point x="299" y="379"/>
      <point x="360" y="379" type="curve" smooth="yes"/>
      <point x="381" y="379"/>
      <point x="388" y="366"/>
      <point x="388" y="336" type="curve" smooth="yes"/>
      <point x="388" y="294"/>
      <point x="386" y="147"/>
      <point x="374" y="35" type="curve" smooth="yes"/>
      <point x="359" y="-108"/>
      <point x="311" y="-161"/>
      <point x="254" y="-161" type="curve" smooth="yes"/>
      <point x="229" y="-161"/>
      <point x="217" y="-159"/>
      <point x="192" y="-153" type="curve"/>
      <point x="173" y="-217" type="line"/>
      <point x="223" y="-231"/>
      <point x="252" y="-234"/>
    </contour>
    <contour>
      <point x="50" y="531" type="line"/>
      <point x="451" y="534" type="line"/>
      <point x="456" y="597" type="line"/>
      <point x="54" y="597" type="line"/>
    </contour>
  </outline>
</glyph>
<glyph name="nje-cy" format="2">
  <advance width="779"/>
  <unicode hex="045A"/>
  <outline>
    <contour>
      <point x="519" y="-10" type="curve" smooth="yes"/>
      <point x="649" y="-10"/>
      <point x="738" y="62"/>
      <point x="743" y="174" type="curve" smooth="yes"/>
      <point x="748" y="283"/>
      <point x="676" y="328"/>
      <point x="589" y="328" type="curve" smooth="yes"/>
      <point x="564" y="328"/>
      <point x="538" y="322"/>
      <point x="512" y="313" type="curve"/>
      <point x="522" y="397"/>
      <point x="525" y="422"/>
      <point x="525" y="452" type="curve" smooth="yes"/>
      <point x="525" y="465"/>
      <point x="525" y="472"/>
      <point x="522" y="500" type="curve"/>
      <point x="388" y="500" type="line"/>
      <point x="397" y="437"/>
      <point x="390" y="368"/>
      <point x="380" y="286" type="curve"/>
      <point x="242" y="286" type="line"/>
      <point x="248" y="333"/>
      <point x="254" y="373"/>
      <point x="254" y="395" type="curve" smooth="yes"/>
      <point x="254" y="483"/>
      <point x="217" y="511"/>
      <point x="162" y="511" type="curve" smooth="yes"/>
      <point x="72" y="511"/>
      <point x="20" y="412"/>
      <point x="8" y="355" type="curve"/>
      <point x="63" y="339" type="line"/>
      <point x="80" y="399"/>
      <point x="96" y="418"/>
      <point x="111" y="418" type="curve" smooth="yes"/>
      <point x="122" y="418"/>
      <point x="125" y="411"/>
      <point x="125" y="392" type="curve" smooth="yes"/>
      <point x="125" y="369"/>
      <point x="117" y="313"/>
      <point x="109" y="250" type="curve" smooth="yes"/>
      <point x="99" y="177"/>
      <point x="89" y="94"/>
      <point x="89" y="48" type="curve" smooth="yes"/>
      <point x="89" y="35"/>
      <point x="89" y="20"/>
      <point x="92" y="0" type="curve"/>
      <point x="225" y="0" type="line"/>
      <point x="224" y="17"/>
      <point x="222" y="48"/>
      <point x="222" y="77" type="curve" smooth="yes"/>
      <point x="222" y="121"/>
      <point x="227" y="170"/>
      <point x="233" y="216" type="curve"/>
      <point x="371" y="217" type="line"/>
      <point x="362" y="149" type="line" smooth="yes"/>
      <point x="351" y="60"/>
      <point x="397" y="-10"/>
    </contour>
    <contour>
      <point x="543" y="62" type="curve" smooth="yes"/>
      <point x="499" y="62"/>
      <point x="482" y="92"/>
      <point x="491" y="159" type="curve" smooth="yes"/>
      <point x="500" y="226" type="line"/>
      <point x="501" y="235"/>
      <point x="503" y="245"/>
      <point x="502" y="253" type="curve"/>
      <point x="524" y="262"/>
      <point x="542" y="266"/>
      <point x="559" y="266" type="curve" smooth="yes"/>
      <point x="603" y="266"/>
      <point x="631" y="234"/>
      <point x="626" y="154" type="curve" smooth="yes"/>
      <point x="624" y="91"/>
      <point x="592" y="62"/>
    </contour>
  </outline>
</glyph>
<glyph name="Yat-cy" format="2">
  <advance width="730"/>
  <unicode hex="0462"/>
  <guideline x="507" y="739" angle="0"/>
  <outline>
    <contour>
      <point x="116" y="0" type="line"/>
      <point x="432" y="0" type="line" smooth="yes"/>
      <point x="572" y="0"/>
      <point x="679" y="69"/>
      <point x="686" y="199" type="curve" smooth="yes"/>
      <point x="691" y="305"/>
      <point x="628" y="422"/>
      <point x="389" y="409" type="curve" smooth="yes"/>
      <point x="353" y="407" type="line"/>
      <point x="363" y="586" type="line" smooth="yes"/>
      <point x="367" y="667"/>
      <point x="394" y="671"/>
      <point x="439" y="673" type="curve"/>
      <point x="442" y="739" type="line"/>
      <point x="155" y="739" type="line"/>
      <point x="151" y="662" type="line"/>
      <point x="165" y="663"/>
      <point x="205" y="664"/>
      <point x="227" y="665" type="curve"/>
      <point x="223" y="648"/>
      <point x="220" y="611"/>
      <point x="218" y="575" type="curve" smooth="yes"/>
      <point x="196" y="153" type="line" smooth="yes"/>
      <point x="191" y="72"/>
      <point x="165" y="68"/>
      <point x="120" y="66" type="curve"/>
    </contour>
    <contour>
      <point x="332" y="71" type="curve"/>
      <point x="335" y="88"/>
      <point x="339" y="123"/>
      <point x="341" y="159" type="curve" smooth="yes"/>
      <point x="350" y="336" type="line"/>
      <point x="369" y="336"/>
      <point x="388" y="337"/>
      <point x="407" y="337" type="curve" smooth="yes"/>
      <point x="481" y="339"/>
      <point x="534" y="306"/>
      <point x="529" y="207" type="curve" smooth="yes"/>
      <point x="524" y="128"/>
      <point x="487" y="76"/>
      <point x="405" y="72" type="curve" smooth="yes"/>
      <point x="381" y="71"/>
      <point x="356" y="71"/>
    </contour>
    <contour>
      <point x="23" y="390" type="line"/>
      <point x="89" y="390" type="line"/>
      <point x="94" y="498"/>
      <point x="144" y="548"/>
      <point x="220" y="548" type="curve" smooth="yes"/>
      <point x="416" y="549" type="line" smooth="yes"/>
      <point x="502" y="549"/>
      <point x="549" y="538"/>
      <point x="544" y="440" type="curve"/>
      <point x="610" y="440" type="line"/>
      <point x="613" y="616" type="line"/>
      <point x="39" y="616" type="line"/>
    </contour>
  </outline>
</glyph>
<glyph name="yat-cy" format="2">
  <advance width="713"/>
  <unicode hex="0463"/>
  <outline>
    <contour>
      <point x="463" y="-10" type="curve" smooth="yes"/>
      <point x="573" y="-10"/>
      <point x="672" y="52"/>
      <point x="677" y="174" type="curve" smooth="yes"/>
      <point x="682" y="293"/>
      <point x="600" y="328"/>
      <point x="523" y="328" type="curve" smooth="yes"/>
      <point x="485" y="328"/>
      <point x="438" y="311"/>
      <point x="394" y="281" type="curve"/>
      <point x="386" y="223" type="line"/>
      <point x="430" y="250"/>
      <point x="460" y="266"/>
      <point x="493" y="266" type="curve" smooth="yes"/>
      <point x="537" y="266"/>
      <point x="555" y="234"/>
      <point x="550" y="164" type="curve" smooth="yes"/>
      <point x="546" y="111"/>
      <point x="522" y="56"/>
      <point x="479" y="56" type="curve" smooth="yes"/>
      <point x="444" y="56"/>
      <point x="426" y="92"/>
      <point x="435" y="159" type="curve" smooth="yes"/>
      <point x="444" y="224"/>
      <point x="453" y="289"/>
      <point x="462" y="354" type="curve" smooth="yes"/>
      <point x="473" y="440"/>
      <point x="457" y="511"/>
      <point x="372" y="511" type="curve" smooth="yes"/>
      <point x="314" y="511"/>
      <point x="268" y="480"/>
      <point x="221" y="360" type="curve"/>
      <point x="220" y="360" type="line"/>
      <point x="223" y="383"/>
      <point x="226" y="394"/>
      <point x="226" y="420" type="curve" smooth="yes"/>
      <point x="226" y="491"/>
      <point x="185" y="511"/>
      <point x="142" y="511" type="curve" smooth="yes"/>
      <point x="55" y="511"/>
      <point x="20" y="412"/>
      <point x="8" y="355" type="curve"/>
      <point x="63" y="339" type="line"/>
      <point x="80" y="399"/>
      <point x="96" y="418"/>
      <point x="111" y="418" type="curve" smooth="yes"/>
      <point x="118" y="418"/>
      <point x="125" y="414"/>
      <point x="125" y="392" type="curve" smooth="yes"/>
      <point x="125" y="367"/>
      <point x="115" y="299"/>
      <point x="106" y="228" type="curve" smooth="yes"/>
      <point x="97" y="161"/>
      <point x="89" y="90"/>
      <point x="89" y="48" type="curve" smooth="yes"/>
      <point x="89" y="35"/>
      <point x="89" y="28"/>
      <point x="92" y="0" type="curve"/>
      <point x="221" y="0" type="line"/>
      <point x="220" y="16"/>
      <point x="218" y="54"/>
      <point x="218" y="72" type="curve" smooth="yes"/>
      <point x="218" y="212"/>
      <point x="273" y="418"/>
      <point x="328" y="418" type="curve" smooth="yes"/>
      <point x="337" y="418"/>
      <point x="340" y="407"/>
      <point x="340" y="390" type="curve" smooth="yes"/>
      <point x="340" y="333"/>
      <point x="306" y="207"/>
      <point x="306" y="149" type="curve" smooth="yes"/>
      <point x="306" y="59"/>
      <point x="351" y="-10"/>
    </contour>
  </outline>
</glyph>
<glyph name="semisoftsign-cy" format="2">
  <advance width="520"/>
  <unicode hex="048D"/>
  <outline>
    <contour>
      <point x="258" y="-10" type="curve" smooth="yes"/>
      <point x="388" y="-10"/>
      <point x="477" y="62"/>
      <point x="482" y="174" type="curve" smooth="yes"/>
      <point x="487" y="283"/>
      <point x="415" y="328"/>
      <point x="328" y="328" type="curve" smooth="yes"/>
      <point x="283" y="328"/>
      <point x="233" y="311"/>
      <point x="189" y="281" type="curve"/>
      <point x="181" y="223" type="line"/>
      <point x="225" y="250"/>
      <point x="265" y="266"/>
      <point x="298" y="266" type="curve" smooth="yes"/>
      <point x="342" y="266"/>
      <point x="370" y="234"/>
      <point x="365" y="154" type="curve" smooth="yes"/>
      <point x="362" y="91"/>
      <point x="331" y="62"/>
      <point x="282" y="62" type="curve" smooth="yes"/>
      <point x="237" y="62"/>
      <point x="230" y="90"/>
      <point x="230" y="159" type="curve" smooth="yes"/>
      <point x="230" y="260"/>
      <point x="253" y="491"/>
      <point x="259" y="551" type="curve" smooth="yes"/>
      <point x="264" y="600"/>
      <point x="276" y="697"/>
      <point x="283" y="755" type="curve"/>
      <point x="229" y="755" type="line"/>
      <point x="215" y="742"/>
      <point x="170" y="725"/>
      <point x="77" y="725" type="curve"/>
      <point x="73" y="649" type="line"/>
      <point x="143" y="652" type="line"/>
      <point x="137" y="625"/>
      <point x="132" y="582"/>
      <point x="130" y="559" type="curve" smooth="yes"/>
      <point x="124" y="506"/>
      <point x="116" y="409"/>
      <point x="110" y="320" type="curve" smooth="yes"/>
      <point x="105" y="249"/>
      <point x="101" y="183"/>
      <point x="101" y="149" type="curve" smooth="yes"/>
      <point x="101" y="52"/>
      <point x="136" y="-10"/>
    </contour>
    <contour>
      <point x="11" y="434" type="line"/>
      <point x="431" y="437" type="line"/>
      <point x="434" y="500" type="line"/>
      <point x="14" y="500" type="line"/>
    </contour>
  </outline>
</glyph>
<glyph name="Gheupturn-cy" format="2">
  <advance width="566"/>
  <unicode hex="0490"/>
  <outline>
    <contour>
      <point x="35" y="0" type="line"/>
      <point x="333" y="0" type="line"/>
      <point x="337" y="77" type="line"/>
      <point x="249" y="74" type="line"/>
      <point x="252" y="91"/>
      <point x="255" y="128"/>
      <point x="257" y="164" type="curve" smooth="yes"/>
      <point x="277" y="547" type="line" smooth="yes"/>
      <point x="281" y="625"/>
      <point x="307" y="633"/>
      <point x="349" y="634" type="curve" smooth="yes"/>
      <point x="567" y="634" type="line"/>
      <point x="577" y="829" type="line"/>
      <point x="517" y="829" type="line"/>
      <point x="511" y="720"/>
      <point x="441" y="700"/>
      <point x="387" y="700" type="curve" smooth="yes"/>
      <point x="72" y="700" type="line"/>
      <point x="68" y="623" type="line"/>
      <point x="143" y="626" type="line"/>
      <point x="140" y="609"/>
      <point x="136" y="572"/>
      <point x="134" y="536" type="curve" smooth="yes"/>
      <point x="114" y="153" type="line" smooth="yes"/>
      <point x="110" y="72"/>
      <point x="83" y="68"/>
      <point x="39" y="66" type="curve"/>
    </contour>
  </outline>
</glyph>
<glyph name="gheupturn-cy" format="2">
  <advance width="481"/>
  <unicode hex="0491"/>
  <outline>
    <contour>
      <point x="24" y="0" type="line"/>
      <point x="287" y="0" type="line"/>
      <point x="291" y="76" type="line"/>
      <point x="226" y="73" type="line"/>
      <point x="230" y="103"/>
      <point x="233" y="142"/>
      <point x="234" y="161" type="curve" smooth="yes"/>
      <point x="244" y="346" type="line" smooth="yes"/>
      <point x="247" y="399"/>
      <point x="252" y="435"/>
      <point x="308" y="435" type="curve" smooth="yes"/>
      <point x="465" y="435" type="line"/>
      <point x="478" y="607" type="line"/>
      <point x="413" y="607" type="line"/>
      <point x="409" y="535"/>
      <point x="378" y="500"/>
      <point x="318" y="500" type="curve" smooth="yes"/>
      <point x="49" y="500" type="line"/>
      <point x="45" y="424" type="line"/>
      <point x="60" y="424"/>
      <point x="89" y="425"/>
      <point x="110" y="427" type="curve"/>
      <point x="106" y="397"/>
      <point x="103" y="358"/>
      <point x="102" y="339" type="curve" smooth="yes"/>
      <point x="92" y="154" type="line" smooth="yes"/>
      <point x="89" y="101"/>
      <point x="83" y="65"/>
      <point x="28" y="65" type="curve"/>
    </contour>
  </outline>
</glyph>
<glyph name="Ghestroke-cy" format="2">
  <advance width="566"/>
  <unicode hex="0492"/>
  <outline>
    <contour>
      <point x="27" y="303" type="line"/>
      <point x="402" y="306" type="line"/>
      <point x="406" y="382" type="line"/>
      <point x="31" y="382" type="line"/>
    </contour>
    <component base="Ge-cy"/>
  </outline>
</glyph>
<glyph name="Endescender-cy" format="2">
  <advance width="806"/>
  <unicode hex="04A2"/>
  <outline>
    <contour>
      <point x="690" y="-177" type="curve"/>
      <point x="763" y="-177" type="line"/>
      <point x="777" y="79" type="line"/>
      <point x="666" y="74" type="line"/>
      <point x="629" y="0" type="line"/>
      <point x="687" y="0"/>
      <point x="698" y="-73"/>
    </contour>
    <component base="En-cy"/>
  </outline>
</glyph>
<glyph name="endescender-cy" format="2">
  <advance width="625"/>
  <unicode hex="04A3"/>
  <outline>
    <contour>
      <point x="493" y="-200" type="line"/>
      <point x="585" y="-126"/>
      <point x="607" y="-55"/>
      <point x="570" y="5" type="curve" smooth="yes"/>
      <point x="559" y="24"/>
      <point x="557" y="43"/>
      <point x="569" y="63" type="curve" smooth="yes"/>
      <point x="587" y="93"/>
      <point x="599" y="121"/>
      <point x="604" y="145" type="curve"/>
      <point x="550" y="161" type="line"/>
      <point x="533" y="101"/>
      <point x="517" y="82"/>
      <point x="502" y="82" type="curve" smooth="yes"/>
      <point x="495" y="82"/>
      <point x="488" y="86"/>
      <point x="488" y="108" type="curve" smooth="yes"/>
      <point x="488" y="157"/>
      <point x="525" y="366"/>
      <point x="525" y="452" type="curve" smooth="yes"/>
      <point x="525" y="465"/>
      <point x="525" y="472"/>
      <point x="522" y="500" type="curve"/>
      <point x="388" y="500" type="line"/>
      <point x="393" y="429"/>
      <point x="388" y="354"/>
      <point x="380" y="286" type="curve"/>
      <point x="242" y="286" type="line"/>
      <point x="248" y="333"/>
      <point x="254" y="373"/>
      <point x="254" y="395" type="curve" smooth="yes"/>
      <point x="254" y="483"/>
      <point x="217" y="511"/>
      <point x="162" y="511" type="curve" smooth="yes"/>
      <point x="72" y="511"/>
      <point x="20" y="412"/>
      <point x="8" y="355" type="curve"/>
      <point x="63" y="339" type="line"/>
      <point x="80" y="399"/>
      <point x="96" y="418"/>
      <point x="111" y="418" type="curve" smooth="yes"/>
      <point x="122" y="418"/>
      <point x="125" y="411"/>
      <point x="125" y="392" type="curve" smooth="yes"/>
      <point x="125" y="367"/>
      <point x="116" y="300"/>
      <point x="106" y="228" type="curve" smooth="yes"/>
      <point x="98" y="161"/>
      <point x="89" y="90"/>
      <point x="89" y="48" type="curve" smooth="yes"/>
      <point x="89" y="35"/>
      <point x="89" y="20"/>
      <point x="92" y="0" type="curve"/>
      <point x="225" y="0" type="line"/>
      <point x="224" y="17"/>
      <point x="222" y="48"/>
      <point x="222" y="77" type="curve" smooth="yes"/>
      <point x="222" y="121"/>
      <point x="227" y="170"/>
      <point x="233" y="216" type="curve"/>
      <point x="372" y="217" type="line"/>
      <point x="366" y="166"/>
      <point x="360" y="121"/>
      <point x="360" y="90" type="curve" smooth="yes"/>
      <point x="360" y="9"/>
      <point x="409" y="-11"/>
      <point x="452" y="-11" type="curve" smooth="yes"/>
      <point x="470" y="-11"/>
      <point x="486" y="-7"/>
      <point x="501" y="0" type="curve"/>
      <point x="509" y="-3" type="line"/>
      <point x="497" y="-28"/>
      <point x="492" y="-39"/>
      <point x="495" y="-73" type="curve" smooth="yes"/>
      <point x="497" y="-98"/>
      <point x="493" y="-118"/>
      <point x="455" y="-162" type="curve"/>
    </contour>
  </outline>
</glyph>
<glyph name="haabkhasian-cy" format="2">
  <advance width="694"/>
  <unicode hex="04A9"/>
  <outline>
    <contour>
      <point x="310" y="-17" type="curve" smooth="yes"/>
      <point x="354" y="-17"/>
      <point x="399" y="-9"/>
      <point x="441" y="6" type="curve"/>
      <point x="481" y="-9"/>
      <point x="521" y="-17"/>
      <point x="552" y="-17" type="curve" smooth="yes"/>
      <point x="593" y="-17"/>
      <point x="630" y="-5"/>
      <point x="653" y="9" type="curve"/>
      <point x="639" y="67" type="line"/>
      <point x="601" y="46"/>
      <point x="571" y="45"/>
      <point x="534" y="51" type="curve"/>
      <point x="534" y="53" type="line"/>
      <point x="619" y="91"/>
      <point x="665" y="158"/>
      <point x="669" y="227" type="curve" smooth="yes"/>
      <point x="675" y="331"/>
      <point x="584" y="406"/>
      <point x="467" y="405" type="curve" smooth="yes"/>
      <point x="354" y="404"/>
      <point x="264" y="334"/>
      <point x="259" y="228" type="curve" smooth="yes"/>
      <point x="255" y="148"/>
      <point x="302" y="89"/>
      <point x="361" y="49" type="curve"/>
      <point x="361" y="47" type="line"/>
      <point x="356" y="47"/>
      <point x="351" y="47"/>
      <point x="346" y="47" type="curve" smooth="yes"/>
      <point x="242" y="47"/>
      <point x="157" y="133"/>
      <point x="163" y="257" type="curve" smooth="yes"/>
      <point x="169" y="366"/>
      <point x="249" y="441"/>
      <point x="340" y="449" type="curve" smooth="yes"/>
      <point x="372" y="452"/>
      <point x="429" y="447"/>
      <point x="464" y="439" type="curve"/>
      <point x="481" y="499" type="line"/>
      <point x="445" y="508"/>
      <point x="397" y="516"/>
      <point x="349" y="516" type="curve" smooth="yes"/>
      <point x="157" y="516"/>
      <point x="36" y="392"/>
      <point x="29" y="242" type="curve" smooth="yes"/>
      <point x="21" y="90"/>
      <point x="140" y="-17"/>
    </contour>
    <contour>
      <point x="461" y="79" type="curve"/>
      <point x="410" y="109"/>
      <point x="391" y="173"/>
      <point x="395" y="235" type="curve" smooth="yes"/>
      <point x="398" y="315"/>
      <point x="430" y="340"/>
      <point x="470" y="340" type="curve" smooth="yes"/>
      <point x="523" y="340"/>
      <point x="538" y="286"/>
      <point x="535" y="216" type="curve" smooth="yes"/>
      <point x="532" y="170"/>
      <point x="517" y="113"/>
    </contour>
  </outline>
</glyph>
<glyph name="tedescender-cy" format="2">
  <advance width="878"/>
  <unicode hex="04AD"/>
  <outline>
    <contour>
      <point x="766" y="-200" type="line"/>
      <point x="858" y="-126"/>
      <point x="880" y="-55"/>
      <point x="843" y="5" type="curve"/>
      <point x="832" y="24"/>
      <point x="832" y="49"/>
      <point x="843" y="70" type="curve"/>
      <point x="773" y="69" type="line"/>
      <point x="772" y="1" type="line"/>
      <point x="783" y="-3" type="line"/>
      <point x="771" y="-28"/>
      <point x="765" y="-39"/>
      <point x="768" y="-73" type="curve" smooth="yes"/>
      <point x="770" y="-98"/>
      <point x="766" y="-118"/>
      <point x="728" y="-162" type="curve"/>
    </contour>
    <component base="m"/>
  </outline>
</glyph>
<glyph name="Hadescender-cy" format="2">
  <advance width="740"/>
  <unicode hex="04B2"/>
  <outline>
    <contour>
      <point x="654" y="-177" type="curve"/>
      <point x="727" y="-177" type="line"/>
      <point x="741" y="83" type="line"/>
      <point x="644" y="74" type="line"/>
      <point x="593" y="0" type="line"/>
      <point x="651" y="0"/>
      <point x="662" y="-73"/>
    </contour>
    <component base="Ha-cy"/>
  </outline>
</glyph>
<glyph name="chedescender-cy" format="2">
  <advance width="625"/>
  <unicode hex="04B7"/>
  <outline>
    <contour>
      <point x="494" y="-200" type="line"/>
      <point x="586" y="-126"/>
      <point x="608" y="-55"/>
      <point x="571" y="5" type="curve"/>
      <point x="559" y="25"/>
      <point x="561" y="49"/>
      <point x="574" y="71" type="curve"/>
      <point x="501" y="69" type="line"/>
      <point x="500" y="1" type="line"/>
      <point x="509" y="-3" type="line"/>
      <point x="497" y="-28"/>
      <point x="493" y="-39"/>
      <point x="496" y="-73" type="curve" smooth="yes"/>
      <point x="498" y="-98"/>
      <point x="494" y="-118"/>
      <point x="456" y="-162" type="curve"/>
    </contour>
    <component base="che-cy"/>
  </outline>
</glyph>
<glyph name="Cheabkhasian-cy" format="2">
  <advance width="881"/>
  <unicode hex="04BC"/>
  <outline>
    <contour>
      <point x="534" y="-16" type="curve"/>
      <point x="622" y="-16"/>
      <point x="748" y="9"/>
      <point x="854" y="144" type="curve"/>
      <point x="809" y="183" type="line"/>
      <point x="749" y="106"/>
      <point x="647" y="60"/>
      <point x="563" y="60" type="curve" smooth="yes"/>
      <point x="391" y="59"/>
      <point x="346" y="237"/>
      <point x="353" y="362" type="curve" smooth="yes"/>
      <point x="360" y="490"/>
      <point x="418" y="645"/>
      <point x="555" y="648" type="curve" smooth="yes"/>
      <point x="707" y="651"/>
      <point x="738" y="505"/>
      <point x="707" y="330" type="curve"/>
      <point x="855" y="331" type="line"/>
      <point x="860" y="353"/>
      <point x="863" y="376"/>
      <point x="865" y="399" type="curve" smooth="yes"/>
      <point x="873" y="556"/>
      <point x="787" y="716"/>
      <point x="573" y="716" type="curve" smooth="yes"/>
      <point x="326" y="716"/>
      <point x="206" y="523"/>
      <point x="197" y="350" type="curve" smooth="yes"/>
      <point x="188" y="176"/>
      <point x="261" y="-16"/>
    </contour>
    <contour>
      <point x="273" y="327" type="curve"/>
      <point x="855" y="331" type="line"/>
      <point x="746" y="397" type="line"/>
      <point x="277" y="397" type="line" smooth="yes"/>
      <point x="137" y="397"/>
      <point x="89" y="424"/>
      <point x="86" y="440" type="curve" smooth="yes"/>
      <point x="84" y="444"/>
      <point x="85" y="448"/>
      <point x="87" y="451" type="curve"/>
      <point x="93" y="449"/>
      <point x="99" y="448"/>
      <point x="105" y="448" type="curve" smooth="yes"/>
      <point x="135" y="448"/>
      <point x="162" y="472"/>
      <point x="165" y="510" type="curve" smooth="yes"/>
      <point x="167" y="544"/>
      <point x="151" y="587"/>
      <point x="92" y="587" type="curve" smooth="yes"/>
      <point x="40" y="587"/>
      <point x="-2" y="542"/>
      <point x="-4" y="488" type="curve" smooth="yes"/>
      <point x="-9" y="409"/>
      <point x="49" y="327"/>
    </contour>
  </outline>
</glyph>
<glyph name="Chedescenderabkhasian-cy" format="2">
  <advance width="874"/>
  <unicode hex="04BE"/>
  <outline>
    <contour>
      <point x="460" y="-178" type="line"/>
      <point x="547" y="-176" type="line"/>
      <point x="548" y="39" type="line"/>
      <point x="471" y="39" type="line"/>
    </contour>
    <component base="Cheabkhasian-cy" yxScale="0.052" xOffset="-25"/>
  </outline>
</glyph>
<glyph name="Kahook-cy" format="2">
  <advance width="672"/>
  <unicode hex="04C3"/>
  <outline>
    <contour>
      <point x="468" y="-237" type="line"/>
      <point x="570" y="-192"/>
      <point x="647" y="-131"/>
      <point x="652" y="-36" type="curve" smooth="yes"/>
      <point x="655" y="30"/>
      <point x="641" y="124"/>
      <point x="564" y="231" type="curve" smooth="yes"/>
      <point x="515" y="299"/>
      <point x="469" y="347"/>
      <point x="417" y="378" type="curve"/>
      <point x="521" y="532" type="line" smooth="yes"/>
      <point x="581" y="621"/>
      <point x="636" y="632"/>
      <point x="681" y="634" type="curve"/>
      <point x="684" y="700" type="line"/>
      <point x="439" y="700" type="line"/>
      <point x="436" y="623" type="line"/>
      <point x="499" y="626" type="line"/>
      <point x="481" y="612"/>
      <point x="451" y="566"/>
      <point x="425" y="526" type="curve" smooth="yes"/>
      <point x="342" y="395" type="line"/>
      <point x="269" y="395" type="line"/>
      <point x="277" y="547" type="line" smooth="yes"/>
      <point x="281" y="628"/>
      <point x="308" y="632"/>
      <point x="353" y="634" type="curve"/>
      <point x="356" y="700" type="line"/>
      <point x="72" y="700" type="line"/>
      <point x="68" y="623" type="line"/>
      <point x="143" y="626" type="line"/>
      <point x="140" y="609"/>
      <point x="136" y="572"/>
      <point x="134" y="536" type="curve" smooth="yes"/>
      <point x="114" y="153" type="line" smooth="yes"/>
      <point x="110" y="72"/>
      <point x="83" y="68"/>
      <point x="39" y="66" type="curve"/>
      <point x="35" y="0" type="line"/>
      <point x="320" y="0" type="line"/>
      <point x="324" y="77" type="line"/>
      <point x="249" y="74" type="line"/>
      <point x="252" y="91"/>
      <point x="255" y="128"/>
      <point x="257" y="164" type="curve" smooth="yes"/>
      <point x="265" y="315" type="line"/>
      <point x="298" y="315" type="line"/>
      <point x="332" y="296"/>
      <point x="369" y="268"/>
      <point x="450" y="154" type="curve" smooth="yes"/>
      <point x="506" y="75"/>
      <point x="533" y="-14"/>
      <point x="528" y="-66" type="curve" smooth="yes"/>
      <point x="523" y="-125"/>
      <point x="488" y="-157"/>
      <point x="439" y="-180" type="curve"/>
    </contour>
  </outline>
</glyph>
<glyph name="kahook-cy" format="2">
  <advance width="607"/>
  <unicode hex="04C4"/>
  <outline>
    <contour>
      <point x="304" y="-229" type="curve" smooth="yes"/>
      <point x="454" y="-229"/>
      <point x="534" y="-25"/>
      <point x="534" y="82" type="curve" smooth="yes"/>
      <point x="534" y="186"/>
      <point x="500" y="268"/>
      <point x="351" y="269" type="curve"/>
      <point x="383" y="281"/>
      <point x="404" y="308"/>
      <point x="425" y="352" type="curve" smooth="yes"/>
      <point x="440" y="384"/>
      <point x="447" y="396"/>
      <point x="466" y="409" type="curve"/>
      <point x="470" y="382"/>
      <point x="494" y="368"/>
      <point x="521" y="368" type="curve" smooth="yes"/>
      <point x="562" y="368"/>
      <point x="585" y="402"/>
      <point x="585" y="439" type="curve" smooth="yes"/>
      <point x="585" y="483"/>
      <point x="550" y="511"/>
      <point x="504" y="511" type="curve" smooth="yes"/>
      <point x="445" y="511"/>
      <point x="396" y="463"/>
      <point x="370" y="375" type="curve" smooth="yes"/>
      <point x="349" y="305"/>
      <point x="314" y="289"/>
      <point x="266" y="289" type="curve" smooth="yes"/>
      <point x="242" y="289" type="line"/>
      <point x="249" y="335"/>
      <point x="254" y="373"/>
      <point x="254" y="395" type="curve" smooth="yes"/>
      <point x="254" y="483"/>
      <point x="217" y="511"/>
      <point x="167" y="511" type="curve" smooth="yes"/>
      <point x="72" y="511"/>
      <point x="20" y="412"/>
      <point x="8" y="355" type="curve"/>
      <point x="63" y="339" type="line"/>
      <point x="80" y="399"/>
      <point x="96" y="418"/>
      <point x="111" y="418" type="curve" smooth="yes"/>
      <point x="122" y="418"/>
      <point x="125" y="411"/>
      <point x="125" y="392" type="curve" smooth="yes"/>
      <point x="125" y="369"/>
      <point x="117" y="309"/>
      <point x="108" y="243" type="curve" smooth="yes"/>
      <point x="99" y="172"/>
      <point x="89" y="93"/>
      <point x="89" y="48" type="curve" smooth="yes"/>
      <point x="89" y="35"/>
      <point x="89" y="20"/>
      <point x="92" y="0" type="curve"/>
      <point x="225" y="0" type="line"/>
      <point x="224" y="17"/>
      <point x="222" y="48"/>
      <point x="222" y="77" type="curve" smooth="yes"/>
      <point x="222" y="125"/>
      <point x="228" y="177"/>
      <point x="234" y="227" type="curve"/>
      <point x="290" y="227" type="line" smooth="yes"/>
      <point x="365" y="227"/>
      <point x="396" y="178"/>
      <point x="396" y="106" type="curve" smooth="yes"/>
      <point x="396" y="-22"/>
      <point x="362" y="-162"/>
      <point x="277" y="-162" type="curve" smooth="yes"/>
      <point x="268" y="-162"/>
      <point x="258" y="-161"/>
      <point x="247" y="-159" type="curve"/>
      <point x="236" y="-221" type="line"/>
      <point x="263" y="-228"/>
      <point x="278" y="-229"/>
    </contour>
  </outline>
</glyph>
<glyph name="Enhook-cy" format="2">
  <advance width="802"/>
  <unicode hex="04C7"/>
  <outline>
    <contour>
      <point x="459" y="-229" type="curve" smooth="yes"/>
      <point x="589" y="-229"/>
      <point x="660" y="-119"/>
      <point x="668" y="34" type="curve" smooth="yes"/>
      <point x="695" y="547" type="line" smooth="yes"/>
      <point x="699" y="628"/>
      <point x="726" y="632"/>
      <point x="771" y="634" type="curve"/>
      <point x="774" y="700" type="line"/>
      <point x="489" y="700" type="line"/>
      <point x="485" y="623" type="line"/>
      <point x="561" y="626" type="line"/>
      <point x="557" y="609"/>
      <point x="554" y="572"/>
      <point x="552" y="536" type="curve" smooth="yes"/>
      <point x="544" y="391" type="line"/>
      <point x="269" y="391" type="line"/>
      <point x="277" y="547" type="line" smooth="yes"/>
      <point x="281" y="628"/>
      <point x="308" y="632"/>
      <point x="353" y="634" type="curve"/>
      <point x="356" y="700" type="line"/>
      <point x="72" y="700" type="line"/>
      <point x="68" y="623" type="line"/>
      <point x="143" y="626" type="line"/>
      <point x="140" y="609"/>
      <point x="136" y="572"/>
      <point x="134" y="536" type="curve" smooth="yes"/>
      <point x="114" y="153" type="line" smooth="yes"/>
      <point x="110" y="72"/>
      <point x="83" y="68"/>
      <point x="39" y="66" type="curve"/>
      <point x="35" y="0" type="line"/>
      <point x="320" y="0" type="line"/>
      <point x="324" y="77" type="line"/>
      <point x="249" y="74" type="line"/>
      <point x="252" y="91"/>
      <point x="255" y="128"/>
      <point x="257" y="164" type="curve" smooth="yes"/>
      <point x="265" y="312" type="line"/>
      <point x="541" y="315" type="line"/>
      <point x="525" y="23" type="line" smooth="yes"/>
      <point x="518" y="-112"/>
      <point x="462" y="-156"/>
      <point x="410" y="-156" type="curve" smooth="yes"/>
      <point x="389" y="-156"/>
      <point x="371" y="-155"/>
      <point x="347" y="-149" type="curve"/>
      <point x="328" y="-212" type="line"/>
      <point x="392" y="-229"/>
      <point x="432" y="-229"/>
    </contour>
  </outline>
</glyph>
<glyph name="chekhakassian-cy" format="2">
  <advance width="610"/>
  <unicode hex="04CC"/>
  <outline>
    <contour>
      <point x="189" y="-198" type="line"/>
      <point x="286" y="-130"/>
      <point x="302" y="-79"/>
      <point x="280" y="-9" type="curve" smooth="yes"/>
      <point x="275" y="7"/>
      <point x="274" y="31"/>
      <point x="275" y="41" type="curve"/>
      <point x="243" y="49" type="line"/>
      <point x="223" y="14"/>
      <point x="210" y="-7"/>
      <point x="205" y="-24" type="curve" smooth="yes"/>
      <point x="201" y="-40"/>
      <point x="200" y="-53"/>
      <point x="200" y="-71" type="curve" smooth="yes"/>
      <point x="200" y="-96"/>
      <point x="195" y="-116"/>
      <point x="154" y="-157" type="curve"/>
    </contour>
    <component base="che-cy"/>
  </outline>
</glyph>
<glyph name="emtail-cy" format="2">
  <advance width="896"/>
  <unicode hex="04CE"/>
  <outline>
    <contour>
      <point x="708" y="-212" type="line"/>
      <point x="770" y="-157"/>
      <point x="885" y="-62"/>
      <point x="885" y="47" type="curve" smooth="yes"/>
      <point x="885" y="88"/>
      <point x="879" y="123"/>
      <point x="871" y="145" type="curve"/>
      <point x="816" y="161" type="line"/>
      <point x="793" y="59" type="line" smooth="yes"/>
      <point x="781" y="15" type="line"/>
      <point x="785" y="8" type="line"/>
      <point x="775" y="-56"/>
      <point x="717" y="-127"/>
      <point x="670" y="-172" type="curve"/>
    </contour>
    <component base="em-cy"/>
  </outline>
</glyph>
<glyph name="Obarred-cy" format="2">
  <advance width="762"/>
  <unicode hex="04E8"/>
  <anchor x="405" y="700" name="top"/>
  <outline>
    <contour>
      <point x="186" y="312" type="line"/>
      <point x="591" y="315" type="line"/>
      <point x="591" y="391" type="line"/>
      <point x="186" y="391" type="line"/>
    </contour>
    <component base="O-cy"/>
  </outline>
</glyph>
<glyph name="Gestrokehook-cy" format="2">
  <advance width="566"/>
  <unicode hex="04FA"/>
  <outline>
    <contour>
      <point x="149" y="-229" type="curve" smooth="yes"/>
      <point x="279" y="-229"/>
      <point x="350" y="-119"/>
      <point x="356" y="0" type="curve" smooth="yes"/>
      <point x="360" y="77" type="line"/>
      <point x="249" y="74" type="line"/>
      <point x="252" y="91"/>
      <point x="255" y="128"/>
      <point x="257" y="164" type="curve" smooth="yes"/>
      <point x="264" y="305" type="line"/>
      <point x="402" y="306" type="line"/>
      <point x="406" y="382" type="line"/>
      <point x="268" y="382" type="line"/>
      <point x="277" y="547" type="line" smooth="yes"/>
      <point x="281" y="625"/>
      <point x="307" y="633"/>
      <point x="349" y="634" type="curve" smooth="yes"/>
      <point x="385" y="635" type="line" smooth="yes"/>
      <point x="439" y="637"/>
      <point x="505" y="615"/>
      <point x="500" y="506" type="curve"/>
      <point x="565" y="506" type="line"/>
      <point x="570" y="700" type="line"/>
      <point x="72" y="700" type="line"/>
      <point x="68" y="623" type="line"/>
      <point x="82" y="624"/>
      <point x="122" y="625"/>
      <point x="143" y="626" type="curve"/>
      <point x="140" y="609"/>
      <point x="136" y="572"/>
      <point x="134" y="536" type="curve" smooth="yes"/>
      <point x="126" y="382" type="line"/>
      <point x="31" y="382" type="line"/>
      <point x="27" y="303" type="line"/>
      <point x="122" y="304" type="line"/>
      <point x="114" y="153" type="line" smooth="yes"/>
      <point x="110" y="72"/>
      <point x="83" y="68"/>
      <point x="39" y="66" type="curve"/>
      <point x="35" y="0" type="line"/>
      <point x="213" y="0" type="line"/>
      <point x="201" y="-117"/>
      <point x="149" y="-156"/>
      <point x="100" y="-156" type="curve" smooth="yes"/>
      <point x="79" y="-156"/>
      <point x="61" y="-155"/>
      <point x="37" y="-149" type="curve"/>
      <point x="18" y="-212" type="line"/>
      <point x="82" y="-229"/>
      <point x="122" y="-229"/>
    </contour>
  </outline>
</glyph>
